SplineFontDB: 3.1
FontName: OxygenSans-Bold
FullName: OxygenSans Bold
FamilyName: OxygenSans
Weight: Bold
Copyright: Copyright 2009-2012 vernon adams.
Version: 1.001;PS (version unavailable);hotconv 1.0.57;makeotf.lib2.0.21895 DEVELOPMENT
ItalicAngle: 0
UnderlinePosition: 0
UnderlineWidth: 0
Ascent: 1548
Descent: 500
sfntRevision: 0x00010041
LayerCount: 2
Layer: 0 1 "Back"  1
Layer: 1 1 "Fore"  0
XUID: [1021 14 500265001 5657178]
FSType: 0
OS2Version: 1
OS2_WeightWidthSlopeOnly: 0
OS2_UseTypoMetrics: 1
CreationTime: 1350955586
ModificationTime: 1351882932
PfmFamily: 81
TTFWeight: 700
TTFWidth: 5
LineGap: 0
VLineGap: 0
Panose: 0 0 0 0 0 0 0 0 0 0
OS2TypoAscent: 1548
OS2TypoAOffset: 0
OS2TypoDescent: -500
OS2TypoDOffset: 0
OS2TypoLinegap: 0
OS2WinAscent: 1901
OS2WinAOffset: 0
OS2WinDescent: 483
OS2WinDOffset: 0
HheadAscent: 2291
HheadAOffset: 0
HheadDescent: -599
HheadDOffset: 0
OS2SubXSize: 1331
OS2SubYSize: 1228
OS2SubXOff: 0
OS2SubYOff: 153
OS2SupXSize: 1331
OS2SupYSize: 1228
OS2SupXOff: 0
OS2SupYOff: 716
OS2StrikeYSize: 50
OS2StrikeYPos: 610
OS2Vendor: 'newt'
OS2CodePages: 2000019f.00000000
OS2UnicodeRanges: 0000008f.00000000.00000000.00000000
Lookup: 258 0 0 "'kern' Horizontal Kerning in Latin lookup 0"  {"'kern' Horizontal Kerning in Latin lookup 0 per glyph data 0"  "'kern' Horizontal Kerning in Latin lookup 0 kerning class 1"  } ['kern' ('latn' <'dflt' > ) ]
MarkAttachClasses: 1
DEI: 91125
KernClass2: 28 21 "'kern' Horizontal Kerning in Latin lookup 0 kerning class 1" 
 81 A Agrave Aacute Acircumflex Atilde Adieresis Aring Amacron Abreve Aogonek uni0202
 1 B
 75 D O Q Eth Ograve Oacute Ocircumflex Otilde Odieresis Oslash uni020C uni020E
 1 F
 1 K
 1 L
 1 P
 44 R Racute Rcommaaccent Rcaron uni0210 uni0212
 22 T Tcommaaccent uni021A
 45 U Ugrave Uacute Ucircumflex Udieresis uni0216
 1 V
 1 W
 18 Y Yacute Ydieresis
 1 a
 69 b o p ograve oacute ocircumflex otilde odieresis oslash thorn uni020F
 1 c
 1 d
 1 e
 1 f
 24 h m n ntilde hbar nacute

StartChar: .notdef
Encoding: 65536 -1 0
Width: 1024
Flags: W
LayerCount: 2
UndoRedoHistory
Layer: 1
Undoes
UndoOperation
Index: 0
Type: 1
WasModified: 0
WasOrder2: 1
Width: 1024
VWidth: 2048
LBearingChange: 0
UnicodeEnc: 0
InstructionsLength: 0
SplineSet
102 -500 m 1,0,-1
 102 1501 l 1,1,-1
 922 1501 l 1,2,-1
 922 -500 l 1,3,-1
 102 -500 l 1,0,-1
204 -398 m 1,4,-1
 820 -398 l 1,5,-1
 820 1399 l 1,6,-1
 204 1399 l 1,7,-1
 204 -398 l 1,4,-1
EndSplineSet
EndUndoOperation
UndoOperation
Index: 1
Type: 1
WasModified: 0
WasOrder2: 1
Width: 1024
VWidth: 2048
LBearingChange: 0
UnicodeEnc: 0
InstructionsLength: 0
SplineSet
102 -500 m 1,0,-1
 922 -500 l 1,1,-1
 922 1501 l 1,2,-1
 102 1501 l 1,3,-1
 102 -500 l 1,0,-1
204 -398 m 1,4,-1
 204 1399 l 1,5,-1
 820 1399 l 1,6,-1
 820 -398 l 1,7,-1
 204 -398 l 1,4,-1
EndSplineSet
EndUndoOperation
UndoOperation
Index: 2
Type: 1
WasModified: 0
WasOrder2: 1
Width: 1024
VWidth: 2048
LBearingChange: 0
UnicodeEnc: 0
InstructionsLength: 0
SplineSet
204 -398 m 1,0,-1
 204 1399 l 1,1,-1
 820 1399 l 1,2,-1
 820 -398 l 1,3,-1
 204 -398 l 1,0,-1
102 -500 m 1,4,-1
 922 -500 l 1,5,-1
 922 1501 l 1,6,-1
 102 1501 l 1,7,-1
 102 -500 l 1,4,-1
EndSplineSet
EndUndoOperation
EndUndoes
Redoes
EndRedoes
EndUndoRedoHistory
Fore
SplineSet
102 -500 m 1,0,-1
 102 1501 l 1,1,-1
 922 1501 l 1,2,-1
 922 -500 l 1,3,-1
 102 -500 l 1,0,-1
204 -398 m 1,4,-1
 820 -398 l 1,5,-1
 820 1399 l 1,6,-1
 204 1399 l 1,7,-1
 204 -398 l 1,4,-1
EndSplineSet
EndChar

StartChar: exclam
Encoding: 33 33 4
Width: 617
GlyphClass: 2
Flags: W
LayerCount: 2
UndoRedoHistory
Layer: 1
Undoes
UndoOperation
Index: 0
Type: 1
WasModified: 0
WasOrder2: 1
Width: 617
VWidth: 2048
LBearingChange: 0
UnicodeEnc: 0
InstructionsLength: 0
SplineSet
430 1127 m 1,0,-1
 373 418 l 1,1,-1
 260 418 l 1,2,-1
 196 1127 l 1,3,-1
 196 1335 l 1,4,-1
 430 1335 l 1,5,-1
 430 1127 l 1,0,-1
309 -7 m 0,6,7
 247 -7 247 -7 204.5 36.5 c 128,-1,8
 162 80 162 80 162 139 c 0,9,10
 162 199 162 199 204.5 242.5 c 128,-1,11
 247 286 247 286 309 286 c 0,12,13
 370 286 370 286 412.5 242.5 c 128,-1,14
 455 199 455 199 455 139 c 0,15,16
 455 80 455 80 412.5 36.5 c 128,-1,17
 370 -7 370 -7 309 -7 c 0,6,7
EndSplineSet
EndUndoOperation
UndoOperation
Index: 1
Type: 1
WasModified: 0
WasOrder2: 1
Width: 617
VWidth: 2048
LBearingChange: 0
UnicodeEnc: 0
InstructionsLength: 0
SplineSet
430 1127 m 1,0,-1
 373 418 l 1,1,-1
 260 418 l 1,2,-1
 196 1127 l 1,3,-1
 196 1335 l 1,4,-1
 430 1335 l 1,5,-1
 430 1127 l 1,0,-1
309 -7 m 0,6,7
 247 -7 247 -7 204.5 36.5 c 128,-1,8
 162 80 162 80 162 139 c 0,9,10
 162 199 162 199 204.5 242.5 c 128,-1,11
 247 286 247 286 309 286 c 0,12,13
 370 286 370 286 412.5 242.5 c 128,-1,14
 455 199 455 199 455 139 c 0,15,16
 455 80 455 80 412.5 36.5 c 128,-1,17
 370 -7 370 -7 309 -7 c 0,6,7
EndSplineSet
EndUndoOperation
UndoOperation
Index: 2
Type: 1
WasModified: 0
WasOrder2: 1
Width: 617
VWidth: 2048
LBearingChange: 0
UnicodeEnc: 0
InstructionsLength: 0
SplineSet
309 -7 m 0,0,1
 247 -7 247 -7 204.5 36.5 c 128,-1,2
 162 80 162 80 162 139 c 0,3,4
 162 199 162 199 204.5 242.5 c 128,-1,5
 247 286 247 286 309 286 c 0,6,7
 370 286 370 286 412.5 242.5 c 128,-1,8
 455 199 455 199 455 139 c 0,9,10
 455 80 455 80 412.5 36.5 c 128,-1,11
 370 -7 370 -7 309 -7 c 0,0,1
430 1127 m 1,12,-1
 373 418 l 1,13,-1
 260 418 l 1,14,-1
 196 1127 l 1,15,-1
 196 1335 l 1,16,-1
 430 1335 l 1,17,-1
 430 1127 l 1,12,-1
EndSplineSet
EndUndoOperation
EndUndoes
Redoes
EndRedoes
EndUndoRedoHistory
Fore
SplineSet
430 1127 m 1,0,-1
 373 418 l 1,1,-1
 260 418 l 1,2,-1
 196 1127 l 1,3,-1
 196 1335 l 1,4,-1
 430 1335 l 1,5,-1
 430 1127 l 1,0,-1
309 -7 m 0,6,7
 247 -7 247 -7 204.5 36.5 c 128,-1,8
 162 80 162 80 162 139 c 0,9,10
 162 199 162 199 204.5 242.5 c 128,-1,11
 247 286 247 286 309 286 c 0,12,13
 370 286 370 286 412.5 242.5 c 128,-1,14
 455 199 455 199 455 139 c 0,15,16
 455 80 455 80 412.5 36.5 c 128,-1,17
 370 -7 370 -7 309 -7 c 0,6,7
EndSplineSet
EndChar

StartChar: quotedbl
Encoding: 34 34 5
Width: 689
GlyphClass: 2
Flags: W
LayerCount: 2
UndoRedoHistory
Layer: 1
Undoes
UndoOperation
Index: 0
Type: 1
WasModified: 0
WasOrder2: 1
Width: 689
VWidth: 2048
LBearingChange: 0
UnicodeEnc: 0
InstructionsLength: 0
SplineSet
122 848 m 1,0,-1
 90 1347 l 1,1,-1
 311 1347 l 1,2,-1
 283 848 l 1,3,-1
 122 848 l 1,0,-1
429 854 m 1,4,-1
 399 1347 l 1,5,-1
 618 1347 l 1,6,-1
 589 854 l 1,7,-1
 429 854 l 1,4,-1
EndSplineSet
EndUndoOperation
UndoOperation
Index: 1
Type: 1
WasModified: 0
WasOrder2: 1
Width: 689
VWidth: 2048
LBearingChange: 0
UnicodeEnc: 0
InstructionsLength: 0
SplineSet
122 848 m 1,0,-1
 283 848 l 1,1,-1
 311 1347 l 1,2,-1
 90 1347 l 1,3,-1
 122 848 l 1,0,-1
429 854 m 1,4,-1
 589 854 l 1,5,-1
 618 1347 l 1,6,-1
 399 1347 l 1,7,-1
 429 854 l 1,4,-1
EndSplineSet
EndUndoOperation
UndoOperation
Index: 2
Type: 1
WasModified: 0
WasOrder2: 1
Width: 689
VWidth: 2048
LBearingChange: 0
UnicodeEnc: 0
InstructionsLength: 0
SplineSet
429 854 m 1,0,-1
 589 854 l 1,1,-1
 618 1347 l 1,2,-1
 399 1347 l 1,3,-1
 429 854 l 1,0,-1
122 848 m 1,4,-1
 283 848 l 1,5,-1
 311 1347 l 1,6,-1
 90 1347 l 1,7,-1
 122 848 l 1,4,-1
EndSplineSet
EndUndoOperation
EndUndoes
Redoes
EndRedoes
EndUndoRedoHistory
Fore
SplineSet
122 848 m 1,0,-1
 90 1347 l 1,1,-1
 311 1347 l 1,2,-1
 283 848 l 1,3,-1
 122 848 l 1,0,-1
429 854 m 1,4,-1
 399 1347 l 1,5,-1
 618 1347 l 1,6,-1
 589 854 l 1,7,-1
 429 854 l 1,4,-1
EndSplineSet
EndChar

StartChar: numbersign
Encoding: 35 35 6
Width: 1045
GlyphClass: 2
Flags: W
LayerCount: 2
UndoRedoHistory
Layer: 1
Undoes
UndoOperation
Index: 0
Type: 1
WasModified: 0
WasOrder2: 1
Width: 1045
VWidth: 2048
LBearingChange: 0
UnicodeEnc: 0
InstructionsLength: 0
SplineSet
252 547 m 1,0,-1
 297 808 l 1,1,-1
 111 808 l 1,2,-1
 118 990 l 1,3,-1
 329 990 l 1,4,-1
 399 1336 l 1,5,-1
 590 1336 l 1,6,-1
 524 990 l 1,7,-1
 672 990 l 1,8,-1
 737 1336 l 1,9,-1
 925 1336 l 1,10,-1
 859 990 l 1,11,-1
 1020 990 l 1,12,-1
 1008 809 l 1,13,-1
 825 809 l 1,14,-1
 776 547 l 1,15,-1
 949 547 l 1,16,-1
 940 369 l 1,17,-1
 747 369 l 1,18,-1
 676 -13 l 1,19,-1
 485 -13 l 1,20,-1
 554 369 l 1,21,-1
 408 369 l 1,22,-1
 338 -13 l 1,23,-1
 151 -13 l 1,24,-1
 218 369 l 1,25,-1
 40 369 l 1,26,-1
 49 547 l 1,27,-1
 252 547 l 1,0,-1
440 547 m 1,28,-1
 590 547 l 1,29,-1
 638 809 l 1,30,-1
 490 809 l 1,31,-1
 440 547 l 1,28,-1
EndSplineSet
EndUndoOperation
UndoOperation
Index: 1
Type: 1
WasModified: 0
WasOrder2: 1
Width: 1045
VWidth: 2048
LBearingChange: 0
UnicodeEnc: 0
InstructionsLength: 0
SplineSet
252 547 m 1,0,-1
 297 808 l 1,1,-1
 111 808 l 1,2,-1
 118 990 l 1,3,-1
 329 990 l 1,4,-1
 399 1336 l 1,5,-1
 590 1336 l 1,6,-1
 524 990 l 1,7,-1
 672 990 l 1,8,-1
 737 1336 l 1,9,-1
 925 1336 l 1,10,-1
 859 990 l 1,11,-1
 1020 990 l 1,12,-1
 1008 809 l 1,13,-1
 825 809 l 1,14,-1
 776 547 l 1,15,-1
 949 547 l 1,16,-1
 940 369 l 1,17,-1
 747 369 l 1,18,-1
 676 -13 l 1,19,-1
 485 -13 l 1,20,-1
 554 369 l 1,21,-1
 408 369 l 1,22,-1
 338 -13 l 1,23,-1
 151 -13 l 1,24,-1
 218 369 l 1,25,-1
 40 369 l 1,26,-1
 49 547 l 1,27,-1
 252 547 l 1,0,-1
440 547 m 1,28,-1
 590 547 l 1,29,-1
 638 809 l 1,30,-1
 490 809 l 1,31,-1
 440 547 l 1,28,-1
EndSplineSet
EndUndoOperation
UndoOperation
Index: 2
Type: 1
WasModified: 0
WasOrder2: 1
Width: 1045
VWidth: 2048
LBearingChange: 0
UnicodeEnc: 0
InstructionsLength: 0
SplineSet
440 547 m 1,0,-1
 590 547 l 1,1,-1
 638 809 l 1,2,-1
 490 809 l 1,3,-1
 440 547 l 1,0,-1
252 547 m 1,4,-1
 297 808 l 1,5,-1
 111 808 l 1,6,-1
 118 990 l 1,7,-1
 329 990 l 1,8,-1
 399 1336 l 1,9,-1
 590 1336 l 1,10,-1
 524 990 l 1,11,-1
 672 990 l 1,12,-1
 737 1336 l 1,13,-1
 925 1336 l 1,14,-1
 859 990 l 1,15,-1
 1020 990 l 1,16,-1
 1008 809 l 1,17,-1
 825 809 l 1,18,-1
 776 547 l 1,19,-1
 949 547 l 1,20,-1
 940 369 l 1,21,-1
 747 369 l 1,22,-1
 676 -13 l 1,23,-1
 485 -13 l 1,24,-1
 554 369 l 1,25,-1
 408 369 l 1,26,-1
 338 -13 l 1,27,-1
 151 -13 l 1,28,-1
 218 369 l 1,29,-1
 40 369 l 1,30,-1
 49 547 l 1,31,-1
 252 547 l 1,4,-1
EndSplineSet
EndUndoOperation
EndUndoes
Redoes
EndRedoes
EndUndoRedoHistory
Fore
SplineSet
252 547 m 1,0,-1
 297 808 l 1,1,-1
 111 808 l 1,2,-1
 118 990 l 1,3,-1
 329 990 l 1,4,-1
 399 1336 l 1,5,-1
 590 1336 l 1,6,-1
 524 990 l 1,7,-1
 672 990 l 1,8,-1
 737 1336 l 1,9,-1
 925 1336 l 1,10,-1
 859 990 l 1,11,-1
 1020 990 l 1,12,-1
 1008 809 l 1,13,-1
 825 809 l 1,14,-1
 776 547 l 1,15,-1
 949 547 l 1,16,-1
 940 369 l 1,17,-1
 747 369 l 1,18,-1
 676 -13 l 1,19,-1
 485 -13 l 1,20,-1
 554 369 l 1,21,-1
 408 369 l 1,22,-1
 338 -13 l 1,23,-1
 151 -13 l 1,24,-1
 218 369 l 1,25,-1
 40 369 l 1,26,-1
 49 547 l 1,27,-1
 252 547 l 1,0,-1
440 547 m 1,28,-1
 590 547 l 1,29,-1
 638 809 l 1,30,-1
 490 809 l 1,31,-1
 440 547 l 1,28,-1
EndSplineSet
EndChar

StartChar: dollar
Encoding: 36 36 7
Width: 1053
GlyphClass: 2
Flags: W
LayerCount: 2
UndoRedoHistory
Layer: 1
Undoes
UndoOperation
Index: 0
Type: 1
WasModified: 0
WasOrder2: 1
Width: 1053
VWidth: 2048
LBearingChange: 0
UnicodeEnc: 0
InstructionsLength: 0
SplineSet
487 841 m 1,0,-1
 487 1123 l 1,1,2
 352 1101 352 1101 352 980 c 0,3,4
 352 885 352 885 450 853 c 2,5,-1
 487 841 l 1,0,-1
606 220 m 1,6,-1
 609 220 l 1,7,8
 725 251 725 251 725 385 c 0,9,10
 725 482 725 482 606 532 c 1,11,-1
 606 220 l 1,6,-1
606 -148 m 1,12,-1
 487 -148 l 1,13,-1
 487 -17 l 1,14,15
 236 -14 236 -14 68 82 c 1,16,-1
 133 300 l 1,17,18
 190 265 190 265 291 240 c 128,-1,19
 392 215 392 215 487 211 c 1,20,-1
 487 572 l 1,21,-1
 349 617 l 2,22,23
 223 658 223 658 153 747.5 c 128,-1,24
 83 837 83 837 83 975 c 0,25,26
 83 1144 83 1144 193.5 1242.5 c 128,-1,27
 304 1341 304 1341 487 1356 c 1,28,-1
 487 1480 l 1,29,-1
 606 1480 l 1,30,-1
 606 1356 l 1,31,32
 803 1346 803 1346 963 1255 c 1,33,-1
 882 1048 l 1,34,35
 725 1117 725 1117 606 1126 c 1,36,-1
 606 801 l 1,37,-1
 658 783 l 1,38,39
 838 723 838 723 918 631.5 c 128,-1,40
 998 540 998 540 998 381 c 0,41,42
 998 213 998 213 892.5 112 c 128,-1,43
 787 11 787 11 606 -11 c 1,44,-1
 606 -148 l 1,12,-1
EndSplineSet
EndUndoOperation
UndoOperation
Index: 1
Type: 1
WasModified: 0
WasOrder2: 1
Width: 1053
VWidth: 2048
LBearingChange: 0
UnicodeEnc: 0
InstructionsLength: 0
SplineSet
487 841 m 1,0,-1
 487 1123 l 1,1,2
 352 1101 352 1101 352 980 c 0,3,4
 352 885 352 885 450 853 c 2,5,-1
 487 841 l 1,0,-1
606 220 m 1,6,-1
 609 220 l 1,7,8
 725 251 725 251 725 385 c 0,9,10
 725 482 725 482 606 532 c 1,11,-1
 606 220 l 1,6,-1
606 -148 m 1,12,-1
 487 -148 l 1,13,-1
 487 -17 l 1,14,15
 236 -14 236 -14 68 82 c 1,16,-1
 133 300 l 1,17,18
 190 265 190 265 291 240 c 128,-1,19
 392 215 392 215 487 211 c 1,20,-1
 487 572 l 1,21,-1
 349 617 l 2,22,23
 223 658 223 658 153 747.5 c 128,-1,24
 83 837 83 837 83 975 c 0,25,26
 83 1144 83 1144 193.5 1242.5 c 128,-1,27
 304 1341 304 1341 487 1356 c 1,28,-1
 487 1480 l 1,29,-1
 606 1480 l 1,30,-1
 606 1356 l 1,31,32
 803 1346 803 1346 963 1255 c 1,33,-1
 882 1048 l 1,34,35
 725 1117 725 1117 606 1126 c 1,36,-1
 606 801 l 1,37,-1
 658 783 l 1,38,39
 838 723 838 723 918 631.5 c 128,-1,40
 998 540 998 540 998 381 c 0,41,42
 998 213 998 213 892.5 112 c 128,-1,43
 787 11 787 11 606 -11 c 1,44,-1
 606 -148 l 1,12,-1
EndSplineSet
EndUndoOperation
UndoOperation
Index: 2
Type: 1
WasModified: 0
WasOrder2: 1
Width: 1053
VWidth: 2048
LBearingChange: 0
UnicodeEnc: 0
InstructionsLength: 0
SplineSet
606 -148 m 1,0,-1
 487 -148 l 1,1,-1
 487 -17 l 1,2,3
 236 -14 236 -14 68 82 c 1,4,-1
 133 300 l 1,5,6
 190 265 190 265 291 240 c 128,-1,7
 392 215 392 215 487 211 c 1,8,-1
 487 572 l 1,9,-1
 349 617 l 2,10,11
 223 658 223 658 153 747.5 c 128,-1,12
 83 837 83 837 83 975 c 0,13,14
 83 1144 83 1144 193.5 1242.5 c 128,-1,15
 304 1341 304 1341 487 1356 c 1,16,-1
 487 1480 l 1,17,-1
 606 1480 l 1,18,-1
 606 1356 l 1,19,20
 803 1346 803 1346 963 1255 c 1,21,-1
 882 1048 l 1,22,23
 725 1117 725 1117 606 1126 c 1,24,-1
 606 801 l 1,25,-1
 658 783 l 1,26,27
 838 723 838 723 918 631.5 c 128,-1,28
 998 540 998 540 998 381 c 0,29,30
 998 213 998 213 892.5 112 c 128,-1,31
 787 11 787 11 606 -11 c 1,32,-1
 606 -148 l 1,0,-1
606 220 m 1,33,-1
 609 220 l 1,34,35
 725 251 725 251 725 385 c 0,36,37
 725 482 725 482 606 532 c 1,38,-1
 606 220 l 1,33,-1
487 841 m 1,39,-1
 487 1123 l 1,40,41
 352 1101 352 1101 352 980 c 0,42,43
 352 885 352 885 450 853 c 2,44,-1
 487 841 l 1,39,-1
EndSplineSet
EndUndoOperation
EndUndoes
Redoes
EndRedoes
EndUndoRedoHistory
Fore
SplineSet
487 841 m 1,0,-1
 487 1123 l 1,1,2
 352 1101 352 1101 352 980 c 0,3,4
 352 885 352 885 450 853 c 2,5,-1
 487 841 l 1,0,-1
606 220 m 1,6,-1
 609 220 l 1,7,8
 725 251 725 251 725 385 c 0,9,10
 725 482 725 482 606 532 c 1,11,-1
 606 220 l 1,6,-1
606 -148 m 1,12,-1
 487 -148 l 1,13,-1
 487 -17 l 1,14,15
 236 -14 236 -14 68 82 c 1,16,-1
 133 300 l 1,17,18
 190 265 190 265 291 240 c 128,-1,19
 392 215 392 215 487 211 c 1,20,-1
 487 572 l 1,21,-1
 349 617 l 2,22,23
 223 658 223 658 153 747.5 c 128,-1,24
 83 837 83 837 83 975 c 0,25,26
 83 1144 83 1144 193.5 1242.5 c 128,-1,27
 304 1341 304 1341 487 1356 c 1,28,-1
 487 1480 l 1,29,-1
 606 1480 l 1,30,-1
 606 1356 l 1,31,32
 803 1346 803 1346 963 1255 c 1,33,-1
 882 1048 l 1,34,35
 725 1117 725 1117 606 1126 c 1,36,-1
 606 801 l 1,37,-1
 658 783 l 1,38,39
 838 723 838 723 918 631.5 c 128,-1,40
 998 540 998 540 998 381 c 0,41,42
 998 213 998 213 892.5 112 c 128,-1,43
 787 11 787 11 606 -11 c 1,44,-1
 606 -148 l 1,12,-1
EndSplineSet
EndChar

StartChar: ampersand
Encoding: 38 38 8
Width: 1261
GlyphClass: 2
Flags: W
LayerCount: 2
UndoRedoHistory
Layer: 1
Undoes
UndoOperation
Index: 0
Type: 1
WasModified: 0
WasOrder2: 1
Width: 1261
VWidth: 2048
LBearingChange: 0
UnicodeEnc: 0
InstructionsLength: 0
SplineSet
517 -1 m 0,0,1
 442 -1 442 -1 374.5 12.5 c 128,-1,2
 307 26 307 26 246 56.5 c 128,-1,3
 185 87 185 87 141 131.5 c 128,-1,4
 97 176 97 176 71 242 c 128,-1,5
 45 308 45 308 45 389 c 0,6,7
 45 459 45 459 68 518 c 128,-1,8
 91 577 91 577 136 623.5 c 128,-1,9
 181 670 181 670 227 703 c 128,-1,10
 273 736 273 736 339 772 c 1,11,12
 305 812 305 812 287 835 c 128,-1,13
 269 858 269 858 244.5 896 c 128,-1,14
 220 934 220 934 209 972.5 c 128,-1,15
 198 1011 198 1011 198 1052 c 0,16,17
 198 1129 198 1129 226.5 1189 c 128,-1,18
 255 1249 255 1249 303.5 1285.5 c 128,-1,19
 352 1322 352 1322 413 1340.5 c 128,-1,20
 474 1359 474 1359 544 1359 c 0,21,22
 610 1359 610 1359 671.5 1342 c 128,-1,23
 733 1325 733 1325 786 1291.5 c 128,-1,24
 839 1258 839 1258 871 1200 c 128,-1,25
 903 1142 903 1142 903 1068 c 0,26,27
 903 1007 903 1007 880 953.5 c 128,-1,28
 857 900 857 900 815.5 858 c 128,-1,29
 774 816 774 816 729 785 c 128,-1,30
 684 754 684 754 627 725 c 1,31,-1
 919 403 l 1,32,33
 986 481 986 481 1047 597 c 1,34,-1
 1216 488 l 1,35,36
 1149 355 1149 355 1060 256 c 1,37,-1
 1249 57 l 1,38,-1
 1041 4 l 1,39,-1
 917 134 l 1,40,41
 734 -1 734 -1 517 -1 c 0,0,1
522 178 m 0,42,43
 671 178 671 178 784 266 c 1,44,45
 763 289 763 289 620.5 445.5 c 128,-1,46
 478 602 478 602 452 630 c 1,47,48
 361 579 361 579 315.5 529.5 c 128,-1,49
 270 480 270 480 270 399 c 0,50,51
 270 290 270 290 340 234 c 128,-1,52
 410 178 410 178 522 178 c 0,42,43
511 863 m 1,53,54
 549 884 549 884 575.5 902 c 128,-1,55
 602 920 602 920 629 945 c 128,-1,56
 656 970 656 970 670 1001 c 128,-1,57
 684 1032 684 1032 684 1067 c 0,58,59
 684 1128 684 1128 648 1158.5 c 128,-1,60
 612 1189 612 1189 551 1189 c 0,61,62
 486 1189 486 1189 449.5 1157.5 c 128,-1,63
 413 1126 413 1126 413 1061 c 0,64,65
 413 1007 413 1007 438 960.5 c 128,-1,66
 463 914 463 914 511 863 c 1,53,54
EndSplineSet
EndUndoOperation
UndoOperation
Index: 1
Type: 1
WasModified: 0
WasOrder2: 1
Width: 1261
VWidth: 2048
LBearingChange: 0
UnicodeEnc: 0
InstructionsLength: 0
SplineSet
517 -1 m 0,0,1
 734 -1 734 -1 917 134 c 1,2,-1
 1041 4 l 1,3,-1
 1249 57 l 1,4,-1
 1060 256 l 1,5,6
 1149 355 1149 355 1216 488 c 1,7,-1
 1047 597 l 1,8,9
 986 481 986 481 919 403 c 1,10,-1
 627 725 l 1,11,12
 684 754 684 754 729 785 c 128,-1,13
 774 816 774 816 815.5 858 c 128,-1,14
 857 900 857 900 880 953.5 c 128,-1,15
 903 1007 903 1007 903 1068 c 0,16,17
 903 1142 903 1142 871 1200 c 128,-1,18
 839 1258 839 1258 786 1291.5 c 128,-1,19
 733 1325 733 1325 671.5 1342 c 128,-1,20
 610 1359 610 1359 544 1359 c 0,21,22
 474 1359 474 1359 413 1340.5 c 128,-1,23
 352 1322 352 1322 303.5 1285.5 c 128,-1,24
 255 1249 255 1249 226.5 1189 c 128,-1,25
 198 1129 198 1129 198 1052 c 0,26,27
 198 1011 198 1011 209 972.5 c 128,-1,28
 220 934 220 934 244.5 896 c 128,-1,29
 269 858 269 858 287 835 c 128,-1,30
 305 812 305 812 339 772 c 1,31,32
 273 736 273 736 227 703 c 128,-1,33
 181 670 181 670 136 623.5 c 128,-1,34
 91 577 91 577 68 518 c 128,-1,35
 45 459 45 459 45 389 c 0,36,37
 45 308 45 308 71 242 c 128,-1,38
 97 176 97 176 141 131.5 c 128,-1,39
 185 87 185 87 246 56.5 c 128,-1,40
 307 26 307 26 374.5 12.5 c 128,-1,41
 442 -1 442 -1 517 -1 c 0,0,1
522 178 m 0,42,43
 410 178 410 178 340 234 c 128,-1,44
 270 290 270 290 270 399 c 0,45,46
 270 480 270 480 315.5 529.5 c 128,-1,47
 361 579 361 579 452 630 c 1,48,49
 478 602 478 602 620.5 445.5 c 128,-1,50
 763 289 763 289 784 266 c 1,51,52
 671 178 671 178 522 178 c 0,42,43
511 863 m 1,53,54
 463 914 463 914 438 960.5 c 128,-1,55
 413 1007 413 1007 413 1061 c 0,56,57
 413 1126 413 1126 449.5 1157.5 c 128,-1,58
 486 1189 486 1189 551 1189 c 0,59,60
 612 1189 612 1189 648 1158.5 c 128,-1,61
 684 1128 684 1128 684 1067 c 0,62,63
 684 1032 684 1032 670 1001 c 128,-1,64
 656 970 656 970 629 945 c 128,-1,65
 602 920 602 920 575.5 902 c 128,-1,66
 549 884 549 884 511 863 c 1,53,54
EndSplineSet
EndUndoOperation
UndoOperation
Index: 2
Type: 1
WasModified: 0
WasOrder2: 1
Width: 1261
VWidth: 2048
LBearingChange: 0
UnicodeEnc: 0
InstructionsLength: 0
SplineSet
511 863 m 1,0,1
 463 914 463 914 438 960.5 c 128,-1,2
 413 1007 413 1007 413 1061 c 0,3,4
 413 1126 413 1126 449.5 1157.5 c 128,-1,5
 486 1189 486 1189 551 1189 c 0,6,7
 612 1189 612 1189 648 1158.5 c 128,-1,8
 684 1128 684 1128 684 1067 c 0,9,10
 684 1032 684 1032 670 1001 c 128,-1,11
 656 970 656 970 629 945 c 128,-1,12
 602 920 602 920 575.5 902 c 128,-1,13
 549 884 549 884 511 863 c 1,0,1
522 178 m 0,14,15
 410 178 410 178 340 234 c 128,-1,16
 270 290 270 290 270 399 c 0,17,18
 270 480 270 480 315.5 529.5 c 128,-1,19
 361 579 361 579 452 630 c 1,20,21
 478 602 478 602 620.5 445.5 c 128,-1,22
 763 289 763 289 784 266 c 1,23,24
 671 178 671 178 522 178 c 0,14,15
517 -1 m 0,25,26
 734 -1 734 -1 917 134 c 1,27,-1
 1041 4 l 1,28,-1
 1249 57 l 1,29,-1
 1060 256 l 1,30,31
 1149 355 1149 355 1216 488 c 1,32,-1
 1047 597 l 1,33,34
 986 481 986 481 919 403 c 1,35,-1
 627 725 l 1,36,37
 684 754 684 754 729 785 c 128,-1,38
 774 816 774 816 815.5 858 c 128,-1,39
 857 900 857 900 880 953.5 c 128,-1,40
 903 1007 903 1007 903 1068 c 0,41,42
 903 1142 903 1142 871 1200 c 128,-1,43
 839 1258 839 1258 786 1291.5 c 128,-1,44
 733 1325 733 1325 671.5 1342 c 128,-1,45
 610 1359 610 1359 544 1359 c 0,46,47
 474 1359 474 1359 413 1340.5 c 128,-1,48
 352 1322 352 1322 303.5 1285.5 c 128,-1,49
 255 1249 255 1249 226.5 1189 c 128,-1,50
 198 1129 198 1129 198 1052 c 0,51,52
 198 1011 198 1011 209 972.5 c 128,-1,53
 220 934 220 934 244.5 896 c 128,-1,54
 269 858 269 858 287 835 c 128,-1,55
 305 812 305 812 339 772 c 1,56,57
 273 736 273 736 227 703 c 128,-1,58
 181 670 181 670 136 623.5 c 128,-1,59
 91 577 91 577 68 518 c 128,-1,60
 45 459 45 459 45 389 c 0,61,62
 45 308 45 308 71 242 c 128,-1,63
 97 176 97 176 141 131.5 c 128,-1,64
 185 87 185 87 246 56.5 c 128,-1,65
 307 26 307 26 374.5 12.5 c 128,-1,66
 442 -1 442 -1 517 -1 c 0,25,26
EndSplineSet
EndUndoOperation
EndUndoes
Redoes
EndRedoes
EndUndoRedoHistory
Fore
SplineSet
517 -1 m 0,0,1
 442 -1 442 -1 374.5 12.5 c 128,-1,2
 307 26 307 26 246 56.5 c 128,-1,3
 185 87 185 87 141 131.5 c 128,-1,4
 97 176 97 176 71 242 c 128,-1,5
 45 308 45 308 45 389 c 0,6,7
 45 459 45 459 68 518 c 128,-1,8
 91 577 91 577 136 623.5 c 128,-1,9
 181 670 181 670 227 703 c 128,-1,10
 273 736 273 736 339 772 c 1,11,12
 305 812 305 812 287 835 c 128,-1,13
 269 858 269 858 244.5 896 c 128,-1,14
 220 934 220 934 209 972.5 c 128,-1,15
 198 1011 198 1011 198 1052 c 0,16,17
 198 1129 198 1129 226.5 1189 c 128,-1,18
 255 1249 255 1249 303.5 1285.5 c 128,-1,19
 352 1322 352 1322 413 1340.5 c 128,-1,20
 474 1359 474 1359 544 1359 c 0,21,22
 610 1359 610 1359 671.5 1342 c 128,-1,23
 733 1325 733 1325 786 1291.5 c 128,-1,24
 839 1258 839 1258 871 1200 c 128,-1,25
 903 1142 903 1142 903 1068 c 0,26,27
 903 1007 903 1007 880 953.5 c 128,-1,28
 857 900 857 900 815.5 858 c 128,-1,29
 774 816 774 816 729 785 c 128,-1,30
 684 754 684 754 627 725 c 1,31,-1
 919 403 l 1,32,33
 986 481 986 481 1047 597 c 1,34,-1
 1216 488 l 1,35,36
 1149 355 1149 355 1060 256 c 1,37,-1
 1249 57 l 1,38,-1
 1041 4 l 1,39,-1
 917 134 l 1,40,41
 734 -1 734 -1 517 -1 c 0,0,1
522 178 m 0,42,43
 671 178 671 178 784 266 c 1,44,45
 763 289 763 289 620.5 445.5 c 128,-1,46
 478 602 478 602 452 630 c 1,47,48
 361 579 361 579 315.5 529.5 c 128,-1,49
 270 480 270 480 270 399 c 0,50,51
 270 290 270 290 340 234 c 128,-1,52
 410 178 410 178 522 178 c 0,42,43
511 863 m 1,53,54
 549 884 549 884 575.5 902 c 128,-1,55
 602 920 602 920 629 945 c 128,-1,56
 656 970 656 970 670 1001 c 128,-1,57
 684 1032 684 1032 684 1067 c 0,58,59
 684 1128 684 1128 648 1158.5 c 128,-1,60
 612 1189 612 1189 551 1189 c 0,61,62
 486 1189 486 1189 449.5 1157.5 c 128,-1,63
 413 1126 413 1126 413 1061 c 0,64,65
 413 1007 413 1007 438 960.5 c 128,-1,66
 463 914 463 914 511 863 c 1,53,54
EndSplineSet
EndChar

StartChar: quotesingle
Encoding: 39 39 9
Width: 514
GlyphClass: 2
Flags: W
LayerCount: 2
UndoRedoHistory
Layer: 1
Undoes
UndoOperation
Index: 0
Type: 1
WasModified: 0
WasOrder2: 1
Width: 514
VWidth: 2048
LBearingChange: 0
UnicodeEnc: 0
InstructionsLength: 0
SplineSet
184 833 m 1,0,-1
 152 1341 l 1,1,-1
 362 1341 l 1,2,-1
 337 833 l 1,3,-1
 184 833 l 1,0,-1
EndSplineSet
EndUndoOperation
UndoOperation
Index: 1
Type: 1
WasModified: 0
WasOrder2: 1
Width: 514
VWidth: 2048
LBearingChange: 0
UnicodeEnc: 0
InstructionsLength: 0
SplineSet
184 833 m 1,0,-1
 152 1341 l 1,1,-1
 362 1341 l 1,2,-1
 337 833 l 1,3,-1
 184 833 l 1,0,-1
EndSplineSet
EndUndoOperation
UndoOperation
Index: 2
Type: 1
WasModified: 0
WasOrder2: 1
Width: 514
VWidth: 2048
LBearingChange: 0
UnicodeEnc: 0
InstructionsLength: 0
SplineSet
184 833 m 1,0,-1
 152 1341 l 1,1,-1
 362 1341 l 1,2,-1
 337 833 l 1,3,-1
 184 833 l 1,0,-1
EndSplineSet
EndUndoOperation
EndUndoes
Redoes
EndRedoes
EndUndoRedoHistory
Fore
SplineSet
184 833 m 1,0,-1
 152 1341 l 1,1,-1
 362 1341 l 1,2,-1
 337 833 l 1,3,-1
 184 833 l 1,0,-1
EndSplineSet
EndChar

StartChar: parenleft
Encoding: 40 40 10
Width: 570
GlyphClass: 2
Flags: W
LayerCount: 2
UndoRedoHistory
Layer: 1
Undoes
UndoOperation
Index: 0
Type: 1
WasModified: 0
WasOrder2: 1
Width: 570
VWidth: 2048
LBearingChange: 0
UnicodeEnc: 0
InstructionsLength: 0
SplineSet
565 -245 m 1,0,-1
 333 -245 l 1,1,-1
 330 -237 l 1,2,3
 76 115 76 115 76 550 c 0,4,5
 76 996 76 996 329 1354 c 1,6,-1
 332 1362 l 1,7,-1
 566 1362 l 1,8,-1
 556 1343 l 1,9,10
 468 1217 468 1217 392.5 992.5 c 128,-1,11
 317 768 317 768 317 552 c 0,12,13
 317 338 317 338 393 117.5 c 128,-1,14
 469 -103 469 -103 555 -226 c 1,15,-1
 565 -245 l 1,0,-1
EndSplineSet
EndUndoOperation
UndoOperation
Index: 1
Type: 1
WasModified: 0
WasOrder2: 1
Width: 570
VWidth: 2048
LBearingChange: 0
UnicodeEnc: 0
InstructionsLength: 0
SplineSet
565 -245 m 1,0,-1
 333 -245 l 1,1,-1
 330 -237 l 1,2,3
 76 115 76 115 76 550 c 0,4,5
 76 996 76 996 329 1354 c 1,6,-1
 332 1362 l 1,7,-1
 566 1362 l 1,8,-1
 556 1343 l 1,9,10
 468 1217 468 1217 392.5 992.5 c 128,-1,11
 317 768 317 768 317 552 c 0,12,13
 317 338 317 338 393 117.5 c 128,-1,14
 469 -103 469 -103 555 -226 c 1,15,-1
 565 -245 l 1,0,-1
EndSplineSet
EndUndoOperation
UndoOperation
Index: 2
Type: 1
WasModified: 0
WasOrder2: 1
Width: 570
VWidth: 2048
LBearingChange: 0
UnicodeEnc: 0
InstructionsLength: 0
SplineSet
565 -245 m 1,0,-1
 333 -245 l 1,1,-1
 330 -237 l 1,2,3
 76 115 76 115 76 550 c 0,4,5
 76 996 76 996 329 1354 c 1,6,-1
 332 1362 l 1,7,-1
 566 1362 l 1,8,-1
 556 1343 l 1,9,10
 468 1217 468 1217 392.5 992.5 c 128,-1,11
 317 768 317 768 317 552 c 0,12,13
 317 338 317 338 393 117.5 c 128,-1,14
 469 -103 469 -103 555 -226 c 1,15,-1
 565 -245 l 1,0,-1
EndSplineSet
EndUndoOperation
EndUndoes
Redoes
EndRedoes
EndUndoRedoHistory
Fore
SplineSet
565 -245 m 1,0,-1
 333 -245 l 1,1,-1
 330 -237 l 1,2,3
 76 115 76 115 76 550 c 0,4,5
 76 996 76 996 329 1354 c 1,6,-1
 332 1362 l 1,7,-1
 566 1362 l 1,8,-1
 556 1343 l 1,9,10
 468 1217 468 1217 392.5 992.5 c 128,-1,11
 317 768 317 768 317 552 c 0,12,13
 317 338 317 338 393 117.5 c 128,-1,14
 469 -103 469 -103 555 -226 c 1,15,-1
 565 -245 l 1,0,-1
EndSplineSet
EndChar

StartChar: parenright
Encoding: 41 41 11
Width: 570
GlyphClass: 2
Flags: W
LayerCount: 2
UndoRedoHistory
Layer: 1
Undoes
UndoOperation
Index: 0
Type: 1
WasModified: 0
WasOrder2: 1
Width: 570
VWidth: 2048
LBearingChange: 0
UnicodeEnc: 0
InstructionsLength: 0
SplineSet
260 -237 m 1,0,-1
 35 -226 l 1,1,2
 121 -102 121 -102 197 118.5 c 128,-1,3
 273 339 273 339 273 552 c 0,4,5
 273 768 273 768 197.5 992.5 c 128,-1,6
 122 1217 122 1217 34 1343 c 1,7,-1
 260 1354 l 1,8,9
 514 992 514 992 514 550 c 0,10,11
 514 115 514 115 260 -237 c 1,0,-1
EndSplineSet
EndUndoOperation
UndoOperation
Index: 1
Type: 1
WasModified: 0
WasOrder2: 1
Width: 570
VWidth: 2048
LBearingChange: 0
UnicodeEnc: 0
InstructionsLength: 0
SplineSet
260 -237 m 1,0,-1
 35 -226 l 1,1,2
 121 -102 121 -102 197 118.5 c 128,-1,3
 273 339 273 339 273 552 c 0,4,5
 273 768 273 768 197.5 992.5 c 128,-1,6
 122 1217 122 1217 34 1343 c 1,7,-1
 260 1354 l 1,8,9
 514 992 514 992 514 550 c 0,10,11
 514 115 514 115 260 -237 c 1,0,-1
EndSplineSet
EndUndoOperation
UndoOperation
Index: 2
Type: 1
WasModified: 0
WasOrder2: 1
Width: 570
VWidth: 2048
LBearingChange: 0
UnicodeEnc: 0
InstructionsLength: 0
SplineSet
260 -237 m 1,0,-1
 35 -226 l 1,1,2
 121 -102 121 -102 197 118.5 c 128,-1,3
 273 339 273 339 273 552 c 0,4,5
 273 768 273 768 197.5 992.5 c 128,-1,6
 122 1217 122 1217 34 1343 c 1,7,-1
 260 1354 l 1,8,9
 514 992 514 992 514 550 c 0,10,11
 514 115 514 115 260 -237 c 1,0,-1
EndSplineSet
EndUndoOperation
EndUndoes
Redoes
EndRedoes
EndUndoRedoHistory
Fore
SplineSet
260 -237 m 1,0,-1
 35 -226 l 1,1,2
 121 -102 121 -102 197 118.5 c 128,-1,3
 273 339 273 339 273 552 c 0,4,5
 273 768 273 768 197.5 992.5 c 128,-1,6
 122 1217 122 1217 34 1343 c 1,7,-1
 260 1354 l 1,8,9
 514 992 514 992 514 550 c 0,10,11
 514 115 514 115 260 -237 c 1,0,-1
EndSplineSet
EndChar

StartChar: asterisk
Encoding: 42 42 12
Width: 965
GlyphClass: 2
Flags: W
LayerCount: 2
UndoRedoHistory
Layer: 1
Undoes
UndoOperation
Index: 0
Type: 1
WasModified: 0
WasOrder2: 1
Width: 965
VWidth: 2048
LBearingChange: 0
UnicodeEnc: 0
InstructionsLength: 0
SplineSet
112 1159 m 1,0,-1
 411 1035 l 1,1,-1
 380 1378 l 1,2,-1
 601 1378 l 1,3,-1
 572 1035 l 1,4,-1
 874 1159 l 1,5,-1
 935 946 l 1,6,-1
 628 878 l 1,7,-1
 841 610 l 1,8,-1
 645 498 l 1,9,-1
 490 783 l 1,10,-1
 342 500 l 1,11,-1
 141 610 l 1,12,-1
 354 878 l 1,13,-1
 48 946 l 1,14,-1
 112 1159 l 1,0,-1
EndSplineSet
EndUndoOperation
UndoOperation
Index: 1
Type: 1
WasModified: 0
WasOrder2: 1
Width: 965
VWidth: 2048
LBearingChange: 0
UnicodeEnc: 0
InstructionsLength: 0
SplineSet
112 1159 m 1,0,-1
 411 1035 l 1,1,-1
 380 1378 l 1,2,-1
 601 1378 l 1,3,-1
 572 1035 l 1,4,-1
 874 1159 l 1,5,-1
 935 946 l 1,6,-1
 628 878 l 1,7,-1
 841 610 l 1,8,-1
 645 498 l 1,9,-1
 490 783 l 1,10,-1
 342 500 l 1,11,-1
 141 610 l 1,12,-1
 354 878 l 1,13,-1
 48 946 l 1,14,-1
 112 1159 l 1,0,-1
EndSplineSet
EndUndoOperation
UndoOperation
Index: 2
Type: 1
WasModified: 0
WasOrder2: 1
Width: 965
VWidth: 2048
LBearingChange: 0
UnicodeEnc: 0
InstructionsLength: 0
SplineSet
112 1159 m 1,0,-1
 411 1035 l 1,1,-1
 380 1378 l 1,2,-1
 601 1378 l 1,3,-1
 572 1035 l 1,4,-1
 874 1159 l 1,5,-1
 935 946 l 1,6,-1
 628 878 l 1,7,8
 628 878 628 878 841 610 c 1,9,-1
 645 498 l 1,10,-1
 490 783 l 1,11,-1
 342 500 l 1,12,-1
 141 610 l 1,13,-1
 354 878 l 1,14,-1
 48 946 l 1,15,-1
 112 1159 l 1,0,-1
EndSplineSet
EndUndoOperation
EndUndoes
Redoes
EndRedoes
EndUndoRedoHistory
Fore
SplineSet
112 1159 m 1,0,-1
 411 1035 l 1,1,-1
 380 1378 l 1,2,-1
 601 1378 l 1,3,-1
 572 1035 l 1,4,-1
 874 1159 l 1,5,-1
 935 946 l 1,6,-1
 628 878 l 1,7,-1
 841 610 l 1,8,-1
 645 498 l 1,9,-1
 490 783 l 1,10,-1
 342 500 l 1,11,-1
 141 610 l 1,12,-1
 354 878 l 1,13,-1
 48 946 l 1,14,-1
 112 1159 l 1,0,-1
EndSplineSet
EndChar

StartChar: plus
Encoding: 43 43 13
Width: 1035
GlyphClass: 2
Flags: W
LayerCount: 2
UndoRedoHistory
Layer: 1
Undoes
UndoOperation
Index: 0
Type: 1
WasModified: 0
WasOrder2: 1
Width: 1035
VWidth: 2048
LBearingChange: 0
UnicodeEnc: 0
InstructionsLength: 0
SplineSet
430 692 m 1,0,-1
 430 1065 l 1,1,-1
 623 1065 l 1,2,-1
 623 692 l 1,3,-1
 983 692 l 1,4,-1
 983 502 l 1,5,-1
 622 502 l 1,6,-1
 622 130 l 1,7,-1
 429 130 l 1,8,-1
 429 502 l 1,9,-1
 68 502 l 1,10,-1
 68 692 l 1,11,-1
 430 692 l 1,0,-1
EndSplineSet
EndUndoOperation
UndoOperation
Index: 1
Type: 1
WasModified: 0
WasOrder2: 1
Width: 1035
VWidth: 2048
LBearingChange: 0
UnicodeEnc: 0
InstructionsLength: 0
SplineSet
430 692 m 1,0,-1
 430 1065 l 1,1,-1
 623 1065 l 1,2,-1
 623 692 l 1,3,-1
 983 692 l 1,4,-1
 983 502 l 1,5,-1
 622 502 l 1,6,-1
 622 130 l 1,7,-1
 429 130 l 1,8,-1
 429 502 l 1,9,-1
 68 502 l 1,10,-1
 68 692 l 1,11,-1
 430 692 l 1,0,-1
EndSplineSet
EndUndoOperation
UndoOperation
Index: 2
Type: 1
WasModified: 0
WasOrder2: 1
Width: 1035
VWidth: 2048
LBearingChange: 0
UnicodeEnc: 0
InstructionsLength: 0
SplineSet
430 692 m 1,0,-1
 430 1065 l 1,1,-1
 623 1065 l 1,2,-1
 623 692 l 1,3,-1
 983 692 l 1,4,-1
 983 502 l 1,5,-1
 622 502 l 1,6,-1
 622 130 l 1,7,-1
 429 130 l 1,8,-1
 429 502 l 1,9,-1
 68 502 l 1,10,-1
 68 692 l 1,11,-1
 430 692 l 1,0,-1
EndSplineSet
EndUndoOperation
EndUndoes
Redoes
EndRedoes
EndUndoRedoHistory
Fore
SplineSet
430 692 m 1,0,-1
 430 1065 l 1,1,-1
 623 1065 l 1,2,-1
 623 692 l 1,3,-1
 983 692 l 1,4,-1
 983 502 l 1,5,-1
 622 502 l 1,6,-1
 622 130 l 1,7,-1
 429 130 l 1,8,-1
 429 502 l 1,9,-1
 68 502 l 1,10,-1
 68 692 l 1,11,-1
 430 692 l 1,0,-1
EndSplineSet
EndChar

StartChar: comma
Encoding: 44 44 14
Width: 443
GlyphClass: 2
Flags: W
LayerCount: 2
UndoRedoHistory
Layer: 1
Undoes
UndoOperation
Index: 0
Type: 1
WasModified: 0
WasOrder2: 1
Width: 443
VWidth: 2048
LBearingChange: 0
UnicodeEnc: 0
InstructionsLength: 0
SplineSet
226 -233 m 1,0,-1
 49 -233 l 1,1,-1
 137 245 l 1,2,-1
 374 245 l 1,3,-1
 369 190 l 1,4,-1
 226 -233 l 1,0,-1
EndSplineSet
EndUndoOperation
UndoOperation
Index: 1
Type: 1
WasModified: 0
WasOrder2: 1
Width: 443
VWidth: 2048
LBearingChange: 0
UnicodeEnc: 0
InstructionsLength: 0
SplineSet
226 -233 m 1,0,-1
 49 -233 l 1,1,-1
 137 245 l 1,2,-1
 374 245 l 1,3,-1
 369 190 l 1,4,-1
 226 -233 l 1,0,-1
EndSplineSet
EndUndoOperation
UndoOperation
Index: 2
Type: 1
WasModified: 0
WasOrder2: 1
Width: 443
VWidth: 2048
LBearingChange: 0
UnicodeEnc: 0
InstructionsLength: 0
SplineSet
226 -233 m 1,0,-1
 49 -233 l 1,1,-1
 137 245 l 1,2,-1
 374 245 l 1,3,-1
 369 190 l 1,4,-1
 226 -233 l 1,0,-1
EndSplineSet
EndUndoOperation
EndUndoes
Redoes
EndRedoes
EndUndoRedoHistory
Fore
SplineSet
226 -233 m 1,0,-1
 49 -233 l 1,1,-1
 137 245 l 1,2,-1
 374 245 l 1,3,-1
 369 190 l 1,4,-1
 226 -233 l 1,0,-1
EndSplineSet
EndChar

StartChar: hyphen
Encoding: 45 45 15
Width: 594
GlyphClass: 2
Flags: W
LayerCount: 2
UndoRedoHistory
Layer: 1
Undoes
UndoOperation
Index: 0
Type: 1
WasModified: 0
WasOrder2: 1
Width: 594
VWidth: 2048
LBearingChange: 0
UnicodeEnc: 0
InstructionsLength: 0
SplineSet
57 406 m 1,0,-1
 57 606 l 1,1,-1
 553 606 l 1,2,-1
 553 406 l 1,3,-1
 57 406 l 1,0,-1
EndSplineSet
EndUndoOperation
UndoOperation
Index: 1
Type: 1
WasModified: 0
WasOrder2: 1
Width: 594
VWidth: 2048
LBearingChange: 0
UnicodeEnc: 0
InstructionsLength: 0
SplineSet
57 406 m 1,0,-1
 57 606 l 1,1,-1
 553 606 l 1,2,-1
 553 406 l 1,3,-1
 57 406 l 1,0,-1
EndSplineSet
EndUndoOperation
UndoOperation
Index: 2
Type: 1
WasModified: 0
WasOrder2: 1
Width: 594
VWidth: 2048
LBearingChange: 0
UnicodeEnc: 0
InstructionsLength: 0
SplineSet
57 406 m 1,0,-1
 57 606 l 1,1,-1
 553 606 l 1,2,-1
 553 406 l 1,3,-1
 57 406 l 1,0,-1
EndSplineSet
EndUndoOperation
EndUndoes
Redoes
EndRedoes
EndUndoRedoHistory
Fore
SplineSet
57 406 m 1,0,-1
 57 606 l 1,1,-1
 553 606 l 1,2,-1
 553 406 l 1,3,-1
 57 406 l 1,0,-1
EndSplineSet
EndChar

StartChar: period
Encoding: 46 46 16
Width: 538
GlyphClass: 2
Flags: W
LayerCount: 2
UndoRedoHistory
Layer: 1
Undoes
UndoOperation
Index: 0
Type: 1
WasModified: 0
WasOrder2: 1
Width: 538
VWidth: 2048
LBearingChange: 0
UnicodeEnc: 0
InstructionsLength: 0
SplineSet
270 3 m 0,0,1
 208 3 208 3 165 45.5 c 128,-1,2
 122 88 122 88 122 148 c 128,-1,3
 122 208 122 208 165 251.5 c 128,-1,4
 208 295 208 295 270 295 c 0,5,6
 331 295 331 295 373.5 251.5 c 128,-1,7
 416 208 416 208 416 148 c 0,8,9
 416 89 416 89 373.5 46 c 128,-1,10
 331 3 331 3 270 3 c 0,0,1
EndSplineSet
EndUndoOperation
UndoOperation
Index: 1
Type: 1
WasModified: 0
WasOrder2: 1
Width: 538
VWidth: 2048
LBearingChange: 0
UnicodeEnc: 0
InstructionsLength: 0
SplineSet
270 3 m 0,0,1
 208 3 208 3 165 45.5 c 128,-1,2
 122 88 122 88 122 148 c 128,-1,3
 122 208 122 208 165 251.5 c 128,-1,4
 208 295 208 295 270 295 c 0,5,6
 331 295 331 295 373.5 251.5 c 128,-1,7
 416 208 416 208 416 148 c 0,8,9
 416 89 416 89 373.5 46 c 128,-1,10
 331 3 331 3 270 3 c 0,0,1
EndSplineSet
EndUndoOperation
UndoOperation
Index: 2
Type: 1
WasModified: 0
WasOrder2: 1
Width: 538
VWidth: 2048
LBearingChange: 0
UnicodeEnc: 0
InstructionsLength: 0
SplineSet
270 3 m 0,0,1
 208 3 208 3 165 45.5 c 128,-1,2
 122 88 122 88 122 148 c 128,-1,3
 122 208 122 208 165 251.5 c 128,-1,4
 208 295 208 295 270 295 c 0,5,6
 331 295 331 295 373.5 251.5 c 128,-1,7
 416 208 416 208 416 148 c 0,8,9
 416 89 416 89 373.5 46 c 128,-1,10
 331 3 331 3 270 3 c 0,0,1
EndSplineSet
EndUndoOperation
EndUndoes
Redoes
EndRedoes
EndUndoRedoHistory
Fore
SplineSet
270 3 m 0,0,1
 208 3 208 3 165 45.5 c 128,-1,2
 122 88 122 88 122 148 c 128,-1,3
 122 208 122 208 165 251.5 c 128,-1,4
 208 295 208 295 270 295 c 0,5,6
 331 295 331 295 373.5 251.5 c 128,-1,7
 416 208 416 208 416 148 c 0,8,9
 416 89 416 89 373.5 46 c 128,-1,10
 331 3 331 3 270 3 c 0,0,1
EndSplineSet
EndChar

StartChar: slash
Encoding: 47 47 17
Width: 851
GlyphClass: 2
Flags: W
LayerCount: 2
UndoRedoHistory
Layer: 1
Undoes
UndoOperation
Index: 0
Type: 1
WasModified: 0
WasOrder2: 1
Width: 851
VWidth: 2048
LBearingChange: 0
UnicodeEnc: 0
InstructionsLength: 0
SplineSet
26 -167 m 1,0,-1
 579 1364 l 1,1,-1
 793 1364 l 1,2,-1
 237 -167 l 1,3,-1
 26 -167 l 1,0,-1
EndSplineSet
EndUndoOperation
UndoOperation
Index: 1
Type: 1
WasModified: 0
WasOrder2: 1
Width: 851
VWidth: 2048
LBearingChange: 0
UnicodeEnc: 0
InstructionsLength: 0
SplineSet
26 -167 m 1,0,-1
 579 1364 l 1,1,-1
 793 1364 l 1,2,-1
 237 -167 l 1,3,-1
 26 -167 l 1,0,-1
EndSplineSet
EndUndoOperation
UndoOperation
Index: 2
Type: 1
WasModified: 0
WasOrder2: 1
Width: 851
VWidth: 2048
LBearingChange: 0
UnicodeEnc: 0
InstructionsLength: 0
SplineSet
26 -167 m 1,0,-1
 579 1364 l 1,1,-1
 793 1364 l 1,2,-1
 237 -167 l 1,3,-1
 26 -167 l 1,0,-1
EndSplineSet
EndUndoOperation
EndUndoes
Redoes
EndRedoes
EndUndoRedoHistory
Fore
SplineSet
26 -167 m 1,0,-1
 579 1364 l 1,1,-1
 793 1364 l 1,2,-1
 237 -167 l 1,3,-1
 26 -167 l 1,0,-1
EndSplineSet
EndChar

StartChar: zero
Encoding: 48 48 18
Width: 1139
GlyphClass: 2
Flags: W
LayerCount: 2
UndoRedoHistory
Layer: 1
Undoes
UndoOperation
Index: 0
Type: 1
WasModified: 0
WasOrder2: 1
Width: 1139
VWidth: 2048
LBearingChange: 0
UnicodeEnc: 0
InstructionsLength: 0
SplineSet
569 206 m 0,0,1
 803 206 803 206 803 687 c 0,2,3
 803 1159 803 1159 569 1159 c 0,4,5
 338 1159 338 1159 334 690 c 0,6,7
 334 590 334 590 345 508 c 128,-1,8
 356 426 356 426 381.5 355.5 c 128,-1,9
 407 285 407 285 454.5 245.5 c 128,-1,10
 502 206 502 206 569 206 c 0,0,1
569 1 m 128,-1,12
 462 1 462 1 376.5 38 c 128,-1,13
 291 75 291 75 235.5 138 c 128,-1,14
 180 201 180 201 143 289 c 128,-1,15
 106 377 106 377 90 473.5 c 128,-1,16
 74 570 74 570 74 680 c 0,17,18
 74 792 74 792 90 890 c 128,-1,19
 106 988 106 988 143.5 1076 c 128,-1,20
 181 1164 181 1164 237 1227 c 128,-1,21
 293 1290 293 1290 378 1326.5 c 128,-1,22
 463 1363 463 1363 569 1363 c 0,23,24
 676 1363 676 1363 761 1326 c 128,-1,25
 846 1289 846 1289 902 1226 c 128,-1,26
 958 1163 958 1163 995.5 1075 c 128,-1,27
 1033 987 1033 987 1049 889 c 128,-1,28
 1065 791 1065 791 1065 680 c 0,29,30
 1065 570 1065 570 1049 473.5 c 128,-1,31
 1033 377 1033 377 996 289 c 128,-1,32
 959 201 959 201 903 138 c 128,-1,33
 847 75 847 75 761.5 38 c 128,-1,11
 676 1 676 1 569 1 c 128,-1,12
EndSplineSet
EndUndoOperation
UndoOperation
Index: 1
Type: 1
WasModified: 0
WasOrder2: 1
Width: 1139
VWidth: 2048
LBearingChange: 0
UnicodeEnc: 0
InstructionsLength: 0
SplineSet
569 206 m 0,0,1
 803 206 803 206 803 687 c 0,2,3
 803 1159 803 1159 569 1159 c 0,4,5
 338 1159 338 1159 334 690 c 0,6,7
 334 590 334 590 345 508 c 128,-1,8
 356 426 356 426 381.5 355.5 c 128,-1,9
 407 285 407 285 454.5 245.5 c 128,-1,10
 502 206 502 206 569 206 c 0,0,1
569 1 m 128,-1,12
 462 1 462 1 376.5 38 c 128,-1,13
 291 75 291 75 235.5 138 c 128,-1,14
 180 201 180 201 143 289 c 128,-1,15
 106 377 106 377 90 473.5 c 128,-1,16
 74 570 74 570 74 680 c 0,17,18
 74 792 74 792 90 890 c 128,-1,19
 106 988 106 988 143.5 1076 c 128,-1,20
 181 1164 181 1164 237 1227 c 128,-1,21
 293 1290 293 1290 378 1326.5 c 128,-1,22
 463 1363 463 1363 569 1363 c 0,23,24
 676 1363 676 1363 761 1326 c 128,-1,25
 846 1289 846 1289 902 1226 c 128,-1,26
 958 1163 958 1163 995.5 1075 c 128,-1,27
 1033 987 1033 987 1049 889 c 128,-1,28
 1065 791 1065 791 1065 680 c 0,29,30
 1065 570 1065 570 1049 473.5 c 128,-1,31
 1033 377 1033 377 996 289 c 128,-1,32
 959 201 959 201 903 138 c 128,-1,33
 847 75 847 75 761.5 38 c 128,-1,11
 676 1 676 1 569 1 c 128,-1,12
EndSplineSet
EndUndoOperation
UndoOperation
Index: 2
Type: 1
WasModified: 0
WasOrder2: 1
Width: 1139
VWidth: 2048
LBearingChange: 0
UnicodeEnc: 0
InstructionsLength: 0
SplineSet
569 1 m 128,-1,1
 462 1 462 1 376.5 38 c 128,-1,2
 291 75 291 75 235.5 138 c 128,-1,3
 180 201 180 201 143 289 c 128,-1,4
 106 377 106 377 90 473.5 c 128,-1,5
 74 570 74 570 74 680 c 0,6,7
 74 792 74 792 90 890 c 128,-1,8
 106 988 106 988 143.5 1076 c 128,-1,9
 181 1164 181 1164 237 1227 c 128,-1,10
 293 1290 293 1290 378 1326.5 c 128,-1,11
 463 1363 463 1363 569 1363 c 0,12,13
 676 1363 676 1363 761 1326 c 128,-1,14
 846 1289 846 1289 902 1226 c 128,-1,15
 958 1163 958 1163 995.5 1075 c 128,-1,16
 1033 987 1033 987 1049 889 c 128,-1,17
 1065 791 1065 791 1065 680 c 0,18,19
 1065 570 1065 570 1049 473.5 c 128,-1,20
 1033 377 1033 377 996 289 c 128,-1,21
 959 201 959 201 903 138 c 128,-1,22
 847 75 847 75 761.5 38 c 128,-1,0
 676 1 676 1 569 1 c 128,-1,1
569 206 m 0,23,24
 803 206 803 206 803 687 c 0,25,26
 803 1159 803 1159 569 1159 c 0,27,28
 338 1159 338 1159 334 690 c 0,29,30
 334 590 334 590 345 508 c 128,-1,31
 356 426 356 426 381.5 355.5 c 128,-1,32
 407 285 407 285 454.5 245.5 c 128,-1,33
 502 206 502 206 569 206 c 0,23,24
EndSplineSet
EndUndoOperation
EndUndoes
Redoes
EndRedoes
EndUndoRedoHistory
Fore
SplineSet
569 206 m 0,0,1
 803 206 803 206 803 687 c 0,2,3
 803 1159 803 1159 569 1159 c 0,4,5
 338 1159 338 1159 334 690 c 0,6,7
 334 590 334 590 345 508 c 128,-1,8
 356 426 356 426 381.5 355.5 c 128,-1,9
 407 285 407 285 454.5 245.5 c 128,-1,10
 502 206 502 206 569 206 c 0,0,1
569 1 m 128,-1,12
 462 1 462 1 376.5 38 c 128,-1,13
 291 75 291 75 235.5 138 c 128,-1,14
 180 201 180 201 143 289 c 128,-1,15
 106 377 106 377 90 473.5 c 128,-1,16
 74 570 74 570 74 680 c 0,17,18
 74 792 74 792 90 890 c 128,-1,19
 106 988 106 988 143.5 1076 c 128,-1,20
 181 1164 181 1164 237 1227 c 128,-1,21
 293 1290 293 1290 378 1326.5 c 128,-1,22
 463 1363 463 1363 569 1363 c 0,23,24
 676 1363 676 1363 761 1326 c 128,-1,25
 846 1289 846 1289 902 1226 c 128,-1,26
 958 1163 958 1163 995.5 1075 c 128,-1,27
 1033 987 1033 987 1049 889 c 128,-1,28
 1065 791 1065 791 1065 680 c 0,29,30
 1065 570 1065 570 1049 473.5 c 128,-1,31
 1033 377 1033 377 996 289 c 128,-1,32
 959 201 959 201 903 138 c 128,-1,33
 847 75 847 75 761.5 38 c 128,-1,11
 676 1 676 1 569 1 c 128,-1,12
EndSplineSet
EndChar

StartChar: one
Encoding: 49 49 19
Width: 1015
GlyphClass: 2
Flags: W
LayerCount: 2
UndoRedoHistory
Layer: 1
Undoes
UndoOperation
Index: 0
Type: 1
WasModified: 0
WasOrder2: 1
Width: 1015
VWidth: 2048
LBearingChange: 0
UnicodeEnc: 0
InstructionsLength: 0
SplineSet
897 0 m 1,0,-1
 96 0 l 1,1,-1
 96 200 l 1,2,-1
 384 200 l 1,3,-1
 384 1102 l 1,4,5
 348 1077 348 1077 269.5 1048.5 c 128,-1,6
 191 1020 191 1020 96 1005 c 1,7,-1
 96 1206 l 1,8,9
 312 1265 312 1265 419 1342 c 1,10,-1
 640 1342 l 1,11,-1
 640 200 l 1,12,-1
 897 200 l 1,13,-1
 897 0 l 1,0,-1
EndSplineSet
EndUndoOperation
UndoOperation
Index: 1
Type: 1
WasModified: 0
WasOrder2: 1
Width: 1015
VWidth: 2048
LBearingChange: 0
UnicodeEnc: 0
InstructionsLength: 0
SplineSet
897 0 m 1,0,-1
 96 0 l 1,1,-1
 96 200 l 1,2,-1
 384 200 l 1,3,-1
 384 1102 l 1,4,5
 348 1077 348 1077 269.5 1048.5 c 128,-1,6
 191 1020 191 1020 96 1005 c 1,7,-1
 96 1206 l 1,8,9
 312 1265 312 1265 419 1342 c 1,10,-1
 640 1342 l 1,11,-1
 640 200 l 1,12,-1
 897 200 l 1,13,-1
 897 0 l 1,0,-1
EndSplineSet
EndUndoOperation
UndoOperation
Index: 2
Type: 1
WasModified: 0
WasOrder2: 1
Width: 1015
VWidth: 2048
LBearingChange: 0
UnicodeEnc: 0
InstructionsLength: 0
SplineSet
897 0 m 1,0,-1
 96 0 l 1,1,-1
 96 200 l 1,2,-1
 384 200 l 1,3,-1
 384 1102 l 1,4,5
 348 1077 348 1077 269.5 1048.5 c 128,-1,6
 191 1020 191 1020 96 1005 c 1,7,-1
 96 1206 l 1,8,9
 312 1265 312 1265 419 1342 c 1,10,-1
 640 1342 l 1,11,-1
 640 200 l 1,12,-1
 897 200 l 1,13,-1
 897 0 l 1,0,-1
EndSplineSet
EndUndoOperation
EndUndoes
Redoes
EndRedoes
EndUndoRedoHistory
Fore
SplineSet
897 0 m 1,0,-1
 96 0 l 1,1,-1
 96 200 l 1,2,-1
 384 200 l 1,3,-1
 384 1102 l 1,4,5
 348 1077 348 1077 269.5 1048.5 c 128,-1,6
 191 1020 191 1020 96 1005 c 1,7,-1
 96 1206 l 1,8,9
 312 1265 312 1265 419 1342 c 1,10,-1
 640 1342 l 1,11,-1
 640 200 l 1,12,-1
 897 200 l 1,13,-1
 897 0 l 1,0,-1
EndSplineSet
EndChar

StartChar: two
Encoding: 50 50 20
Width: 965
GlyphClass: 2
Flags: W
LayerCount: 2
UndoRedoHistory
Layer: 1
Undoes
UndoOperation
Index: 0
Type: 1
WasModified: 0
WasOrder2: 1
Width: 965
VWidth: 2048
LBearingChange: 0
UnicodeEnc: 0
InstructionsLength: 0
SplineSet
66 0 m 1,0,-1
 60 207 l 1,1,-1
 477 680 l 1,2,3
 539 748 539 748 578.5 828 c 128,-1,4
 618 908 618 908 618 970 c 0,5,6
 618 1050 618 1050 563.5 1104 c 128,-1,7
 509 1158 509 1158 427 1158 c 0,8,9
 347 1158 347 1158 268.5 1120.5 c 128,-1,10
 190 1083 190 1083 143 1046 c 1,11,-1
 68 1232 l 1,12,13
 132 1288 132 1288 229 1325.5 c 128,-1,14
 326 1363 326 1363 440 1363 c 0,15,16
 631 1363 631 1363 754 1258 c 128,-1,17
 877 1153 877 1153 877 972 c 0,18,19
 877 863 877 863 802 730.5 c 128,-1,20
 727 598 727 598 628 494 c 1,21,-1
 363 200 l 1,22,-1
 869 200 l 1,23,-1
 852 0 l 1,24,-1
 66 0 l 1,0,-1
EndSplineSet
EndUndoOperation
UndoOperation
Index: 1
Type: 1
WasModified: 0
WasOrder2: 1
Width: 965
VWidth: 2048
LBearingChange: 0
UnicodeEnc: 0
InstructionsLength: 0
SplineSet
66 0 m 1,0,-1
 60 207 l 1,1,-1
 477 680 l 1,2,3
 539 748 539 748 578.5 828 c 128,-1,4
 618 908 618 908 618 970 c 0,5,6
 618 1050 618 1050 563.5 1104 c 128,-1,7
 509 1158 509 1158 427 1158 c 0,8,9
 347 1158 347 1158 268.5 1120.5 c 128,-1,10
 190 1083 190 1083 143 1046 c 1,11,-1
 68 1232 l 1,12,13
 132 1288 132 1288 229 1325.5 c 128,-1,14
 326 1363 326 1363 440 1363 c 0,15,16
 631 1363 631 1363 754 1258 c 128,-1,17
 877 1153 877 1153 877 972 c 0,18,19
 877 863 877 863 802 730.5 c 128,-1,20
 727 598 727 598 628 494 c 1,21,-1
 363 200 l 1,22,-1
 869 200 l 1,23,-1
 852 0 l 1,24,-1
 66 0 l 1,0,-1
EndSplineSet
EndUndoOperation
UndoOperation
Index: 2
Type: 1
WasModified: 0
WasOrder2: 1
Width: 965
VWidth: 2048
LBearingChange: 0
UnicodeEnc: 0
InstructionsLength: 0
SplineSet
66 0 m 1,0,-1
 60 207 l 1,1,-1
 477 680 l 1,2,3
 539 748 539 748 578.5 828 c 128,-1,4
 618 908 618 908 618 970 c 0,5,6
 618 1050 618 1050 563.5 1104 c 128,-1,7
 509 1158 509 1158 427 1158 c 0,8,9
 347 1158 347 1158 268.5 1120.5 c 128,-1,10
 190 1083 190 1083 143 1046 c 1,11,-1
 68 1232 l 1,12,13
 132 1288 132 1288 229 1325.5 c 128,-1,14
 326 1363 326 1363 440 1363 c 0,15,16
 631 1363 631 1363 754 1258 c 128,-1,17
 877 1153 877 1153 877 972 c 0,18,19
 877 863 877 863 802 730.5 c 128,-1,20
 727 598 727 598 628 494 c 1,21,-1
 363 200 l 1,22,-1
 869 200 l 1,23,-1
 852 0 l 1,24,-1
 66 0 l 1,0,-1
EndSplineSet
EndUndoOperation
EndUndoes
Redoes
EndRedoes
EndUndoRedoHistory
Fore
SplineSet
66 0 m 1,0,-1
 60 207 l 1,1,-1
 477 680 l 1,2,3
 539 748 539 748 578.5 828 c 128,-1,4
 618 908 618 908 618 970 c 0,5,6
 618 1050 618 1050 563.5 1104 c 128,-1,7
 509 1158 509 1158 427 1158 c 0,8,9
 347 1158 347 1158 268.5 1120.5 c 128,-1,10
 190 1083 190 1083 143 1046 c 1,11,-1
 68 1232 l 1,12,13
 132 1288 132 1288 229 1325.5 c 128,-1,14
 326 1363 326 1363 440 1363 c 0,15,16
 631 1363 631 1363 754 1258 c 128,-1,17
 877 1153 877 1153 877 972 c 0,18,19
 877 863 877 863 802 730.5 c 128,-1,20
 727 598 727 598 628 494 c 1,21,-1
 363 200 l 1,22,-1
 869 200 l 1,23,-1
 852 0 l 1,24,-1
 66 0 l 1,0,-1
EndSplineSet
EndChar

StartChar: three
Encoding: 51 51 21
Width: 998
GlyphClass: 2
Flags: W
LayerCount: 2
UndoRedoHistory
Layer: 1
Undoes
UndoOperation
Index: 0
Type: 1
WasModified: 0
WasOrder2: 1
Width: 998
VWidth: 2048
LBearingChange: 0
UnicodeEnc: 0
InstructionsLength: 0
SplineSet
642 385 m 0,0,1
 642 438 642 438 626 475.5 c 128,-1,2
 610 513 610 513 583.5 536 c 128,-1,3
 557 559 557 559 512 573 c 128,-1,4
 467 587 467 587 419 592 c 128,-1,5
 371 597 371 597 302 599 c 1,6,-1
 242 599 l 1,7,-1
 242 799 l 1,8,-1
 302 799 l 2,9,10
 362 799 362 799 407 804 c 128,-1,11
 452 809 452 809 493.5 821 c 128,-1,12
 535 833 535 833 561 853 c 128,-1,13
 587 873 587 873 602.5 905.5 c 128,-1,14
 618 938 618 938 618 981 c 0,15,16
 618 1054 618 1054 565 1106.5 c 128,-1,17
 512 1159 512 1159 415 1159 c 0,18,19
 251 1159 251 1159 125 1077 c 1,20,-1
 51 1264 l 1,21,22
 211 1363 211 1363 437 1363 c 0,23,24
 623 1363 623 1363 743.5 1261.5 c 128,-1,25
 864 1160 864 1160 864 1000 c 0,26,27
 864 897 864 897 815 822 c 128,-1,28
 766 747 766 747 673 707 c 1,29,30
 780 675 780 675 840 583.5 c 128,-1,31
 900 492 900 492 900 373 c 0,32,33
 900 252 900 252 835 163.5 c 128,-1,34
 770 75 770 75 665.5 33 c 128,-1,35
 561 -9 561 -9 430 -9 c 0,36,37
 315 -9 315 -9 212.5 21 c 128,-1,38
 110 51 110 51 49 103 c 1,39,-1
 126 287 l 1,40,41
 174 247 174 247 259 221.5 c 128,-1,42
 344 196 344 196 431 196 c 0,43,44
 528 196 528 196 585 248 c 128,-1,45
 642 300 642 300 642 385 c 0,0,1
EndSplineSet
EndUndoOperation
UndoOperation
Index: 1
Type: 1
WasModified: 0
WasOrder2: 1
Width: 998
VWidth: 2048
LBearingChange: 0
UnicodeEnc: 0
InstructionsLength: 0
SplineSet
642 385 m 0,0,1
 642 438 642 438 626 475.5 c 128,-1,2
 610 513 610 513 583.5 536 c 128,-1,3
 557 559 557 559 512 573 c 128,-1,4
 467 587 467 587 419 592 c 128,-1,5
 371 597 371 597 302 599 c 1,6,-1
 242 599 l 1,7,-1
 242 799 l 1,8,-1
 302 799 l 2,9,10
 362 799 362 799 407 804 c 128,-1,11
 452 809 452 809 493.5 821 c 128,-1,12
 535 833 535 833 561 853 c 128,-1,13
 587 873 587 873 602.5 905.5 c 128,-1,14
 618 938 618 938 618 981 c 0,15,16
 618 1054 618 1054 565 1106.5 c 128,-1,17
 512 1159 512 1159 415 1159 c 0,18,19
 251 1159 251 1159 125 1077 c 1,20,-1
 51 1264 l 1,21,22
 211 1363 211 1363 437 1363 c 0,23,24
 623 1363 623 1363 743.5 1261.5 c 128,-1,25
 864 1160 864 1160 864 1000 c 0,26,27
 864 897 864 897 815 822 c 128,-1,28
 766 747 766 747 673 707 c 1,29,30
 780 675 780 675 840 583.5 c 128,-1,31
 900 492 900 492 900 373 c 0,32,33
 900 252 900 252 835 163.5 c 128,-1,34
 770 75 770 75 665.5 33 c 128,-1,35
 561 -9 561 -9 430 -9 c 0,36,37
 315 -9 315 -9 212.5 21 c 128,-1,38
 110 51 110 51 49 103 c 1,39,-1
 126 287 l 1,40,41
 174 247 174 247 259 221.5 c 128,-1,42
 344 196 344 196 431 196 c 0,43,44
 528 196 528 196 585 248 c 128,-1,45
 642 300 642 300 642 385 c 0,0,1
EndSplineSet
EndUndoOperation
UndoOperation
Index: 2
Type: 1
WasModified: 0
WasOrder2: 1
Width: 998
VWidth: 2048
LBearingChange: 0
UnicodeEnc: 0
InstructionsLength: 0
SplineSet
642 385 m 0,0,1
 642 438 642 438 626 475.5 c 128,-1,2
 610 513 610 513 583.5 536 c 128,-1,3
 557 559 557 559 512 573 c 128,-1,4
 467 587 467 587 419 592 c 128,-1,5
 371 597 371 597 302 599 c 1,6,-1
 242 599 l 1,7,-1
 242 799 l 1,8,-1
 302 799 l 2,9,10
 362 799 362 799 407 804 c 128,-1,11
 452 809 452 809 493.5 821 c 128,-1,12
 535 833 535 833 561 853 c 128,-1,13
 587 873 587 873 602.5 905.5 c 128,-1,14
 618 938 618 938 618 981 c 0,15,16
 618 1054 618 1054 565 1106.5 c 128,-1,17
 512 1159 512 1159 415 1159 c 0,18,19
 251 1159 251 1159 125 1077 c 1,20,-1
 51 1264 l 1,21,22
 211 1363 211 1363 437 1363 c 0,23,24
 623 1363 623 1363 743.5 1261.5 c 128,-1,25
 864 1160 864 1160 864 1000 c 0,26,27
 864 897 864 897 815 822 c 128,-1,28
 766 747 766 747 673 707 c 1,29,30
 780 675 780 675 840 583.5 c 128,-1,31
 900 492 900 492 900 373 c 0,32,33
 900 252 900 252 835 163.5 c 128,-1,34
 770 75 770 75 665.5 33 c 128,-1,35
 561 -9 561 -9 430 -9 c 0,36,37
 315 -9 315 -9 212.5 21 c 128,-1,38
 110 51 110 51 49 103 c 1,39,-1
 126 287 l 1,40,41
 174 247 174 247 259 221.5 c 128,-1,42
 344 196 344 196 431 196 c 0,43,44
 528 196 528 196 585 248 c 128,-1,45
 642 300 642 300 642 385 c 0,0,1
EndSplineSet
EndUndoOperation
EndUndoes
Redoes
EndRedoes
EndUndoRedoHistory
Fore
SplineSet
642 385 m 0,0,1
 642 438 642 438 626 475.5 c 128,-1,2
 610 513 610 513 583.5 536 c 128,-1,3
 557 559 557 559 512 573 c 128,-1,4
 467 587 467 587 419 592 c 128,-1,5
 371 597 371 597 302 599 c 1,6,-1
 242 599 l 1,7,-1
 242 799 l 1,8,-1
 302 799 l 2,9,10
 362 799 362 799 407 804 c 128,-1,11
 452 809 452 809 493.5 821 c 128,-1,12
 535 833 535 833 561 853 c 128,-1,13
 587 873 587 873 602.5 905.5 c 128,-1,14
 618 938 618 938 618 981 c 0,15,16
 618 1054 618 1054 565 1106.5 c 128,-1,17
 512 1159 512 1159 415 1159 c 0,18,19
 251 1159 251 1159 125 1077 c 1,20,-1
 51 1264 l 1,21,22
 211 1363 211 1363 437 1363 c 0,23,24
 623 1363 623 1363 743.5 1261.5 c 128,-1,25
 864 1160 864 1160 864 1000 c 0,26,27
 864 897 864 897 815 822 c 128,-1,28
 766 747 766 747 673 707 c 1,29,30
 780 675 780 675 840 583.5 c 128,-1,31
 900 492 900 492 900 373 c 0,32,33
 900 252 900 252 835 163.5 c 128,-1,34
 770 75 770 75 665.5 33 c 128,-1,35
 561 -9 561 -9 430 -9 c 0,36,37
 315 -9 315 -9 212.5 21 c 128,-1,38
 110 51 110 51 49 103 c 1,39,-1
 126 287 l 1,40,41
 174 247 174 247 259 221.5 c 128,-1,42
 344 196 344 196 431 196 c 0,43,44
 528 196 528 196 585 248 c 128,-1,45
 642 300 642 300 642 385 c 0,0,1
EndSplineSet
EndChar

StartChar: four
Encoding: 52 52 22
Width: 1085
GlyphClass: 2
Flags: W
LayerCount: 2
UndoRedoHistory
Layer: 1
Undoes
UndoOperation
Index: 0
Type: 1
WasModified: 0
WasOrder2: 1
Width: 1085
VWidth: 2048
LBearingChange: 0
UnicodeEnc: 0
InstructionsLength: 0
SplineSet
566 1335 m 1,0,-1
 876 1335 l 1,1,-1
 876 498 l 1,2,-1
 1037 498 l 1,3,-1
 1023 296 l 1,4,-1
 876 296 l 1,5,-1
 876 8 l 1,6,-1
 619 8 l 1,7,-1
 619 296 l 1,8,-1
 38 296 l 1,9,-1
 38 473 l 1,10,-1
 566 1335 l 1,0,-1
620 494 m 1,11,-1
 622 1055 l 1,12,-1
 297 494 l 1,13,-1
 620 494 l 1,11,-1
EndSplineSet
EndUndoOperation
UndoOperation
Index: 1
Type: 1
WasModified: 0
WasOrder2: 1
Width: 1085
VWidth: 2048
LBearingChange: 0
UnicodeEnc: 0
InstructionsLength: 0
SplineSet
566 1335 m 1,0,-1
 876 1335 l 1,1,-1
 876 498 l 1,2,-1
 1037 498 l 1,3,-1
 1023 296 l 1,4,-1
 876 296 l 1,5,-1
 876 8 l 1,6,-1
 619 8 l 1,7,-1
 619 296 l 1,8,-1
 38 296 l 1,9,-1
 38 473 l 1,10,-1
 566 1335 l 1,0,-1
620 494 m 1,11,-1
 622 1055 l 1,12,-1
 297 494 l 1,13,-1
 620 494 l 1,11,-1
EndSplineSet
EndUndoOperation
UndoOperation
Index: 2
Type: 1
WasModified: 0
WasOrder2: 1
Width: 1085
VWidth: 2048
LBearingChange: 0
UnicodeEnc: 0
InstructionsLength: 0
SplineSet
620 494 m 1,0,-1
 622 1055 l 1,1,-1
 297 494 l 1,2,-1
 620 494 l 1,0,-1
566 1335 m 1,3,-1
 876 1335 l 1,4,-1
 876 498 l 1,5,-1
 1037 498 l 1,6,-1
 1023 296 l 1,7,-1
 876 296 l 1,8,-1
 876 8 l 1,9,-1
 619 8 l 1,10,-1
 619 296 l 1,11,-1
 38 296 l 1,12,-1
 38 473 l 1,13,-1
 566 1335 l 1,3,-1
EndSplineSet
EndUndoOperation
EndUndoes
Redoes
EndRedoes
EndUndoRedoHistory
Fore
SplineSet
566 1335 m 1,0,-1
 876 1335 l 1,1,-1
 876 498 l 1,2,-1
 1037 498 l 1,3,-1
 1023 296 l 1,4,-1
 876 296 l 1,5,-1
 876 8 l 1,6,-1
 619 8 l 1,7,-1
 619 296 l 1,8,-1
 38 296 l 1,9,-1
 38 473 l 1,10,-1
 566 1335 l 1,0,-1
620 494 m 1,11,-1
 622 1055 l 1,12,-1
 297 494 l 1,13,-1
 620 494 l 1,11,-1
EndSplineSet
EndChar

StartChar: five
Encoding: 53 53 23
Width: 1003
GlyphClass: 2
Flags: W
LayerCount: 2
UndoRedoHistory
Layer: 1
Undoes
UndoOperation
Index: 0
Type: 1
WasModified: 0
WasOrder2: 1
Width: 1003
VWidth: 2048
LBearingChange: 0
UnicodeEnc: 0
InstructionsLength: 0
SplineSet
444 -9 m 0,0,1
 376 -9 376 -9 304.5 8 c 128,-1,2
 233 25 233 25 180.5 48 c 128,-1,3
 128 71 128 71 94.5 89.5 c 128,-1,4
 61 108 61 108 50 118 c 1,5,-1
 134 300 l 1,6,7
 151 287 151 287 183 267.5 c 128,-1,8
 215 248 215 248 285.5 223 c 128,-1,9
 356 198 356 198 420 198 c 0,10,11
 538 198 538 198 597.5 263.5 c 128,-1,12
 657 329 657 329 657 438 c 0,13,14
 657 541 657 541 603 601.5 c 128,-1,15
 549 662 549 662 463 662 c 0,16,17
 359 662 359 662 276 569 c 1,18,-1
 102 598 l 1,19,-1
 137 1335 l 1,20,-1
 859 1335 l 1,21,-1
 843 1128 l 1,22,-1
 362 1128 l 1,23,24
 361 1108 361 1108 350.5 975 c 128,-1,25
 340 842 340 842 339 807 c 1,26,27
 341 808 341 808 355 815 c 128,-1,28
 369 822 369 822 373.5 824 c 128,-1,29
 378 826 378 826 391 832 c 128,-1,30
 404 838 404 838 410 840 c 128,-1,31
 416 842 416 842 428 847 c 128,-1,32
 440 852 440 852 447.5 854 c 128,-1,33
 455 856 455 856 465 858.5 c 128,-1,34
 475 861 475 861 483.5 862 c 128,-1,35
 492 863 492 863 500 863 c 0,36,37
 681 863 681 863 794 744 c 128,-1,38
 907 625 907 625 907 436 c 0,39,40
 907 235 907 235 784 113 c 128,-1,41
 661 -9 661 -9 444 -9 c 0,0,1
EndSplineSet
EndUndoOperation
UndoOperation
Index: 1
Type: 1
WasModified: 0
WasOrder2: 1
Width: 1003
VWidth: 2048
LBearingChange: 0
UnicodeEnc: 0
InstructionsLength: 0
SplineSet
444 -9 m 0,0,1
 376 -9 376 -9 304.5 8 c 128,-1,2
 233 25 233 25 180.5 48 c 128,-1,3
 128 71 128 71 94.5 89.5 c 128,-1,4
 61 108 61 108 50 118 c 1,5,-1
 134 300 l 1,6,7
 151 287 151 287 183 267.5 c 128,-1,8
 215 248 215 248 285.5 223 c 128,-1,9
 356 198 356 198 420 198 c 0,10,11
 538 198 538 198 597.5 263.5 c 128,-1,12
 657 329 657 329 657 438 c 0,13,14
 657 541 657 541 603 601.5 c 128,-1,15
 549 662 549 662 463 662 c 0,16,17
 359 662 359 662 276 569 c 1,18,-1
 102 598 l 1,19,-1
 137 1335 l 1,20,-1
 859 1335 l 1,21,-1
 843 1128 l 1,22,-1
 362 1128 l 1,23,24
 361 1108 361 1108 350.5 975 c 128,-1,25
 340 842 340 842 339 807 c 1,26,27
 341 808 341 808 355 815 c 128,-1,28
 369 822 369 822 373.5 824 c 128,-1,29
 378 826 378 826 391 832 c 128,-1,30
 404 838 404 838 410 840 c 128,-1,31
 416 842 416 842 428 847 c 128,-1,32
 440 852 440 852 447.5 854 c 128,-1,33
 455 856 455 856 465 858.5 c 128,-1,34
 475 861 475 861 483.5 862 c 128,-1,35
 492 863 492 863 500 863 c 0,36,37
 681 863 681 863 794 744 c 128,-1,38
 907 625 907 625 907 436 c 0,39,40
 907 235 907 235 784 113 c 128,-1,41
 661 -9 661 -9 444 -9 c 0,0,1
EndSplineSet
EndUndoOperation
UndoOperation
Index: 2
Type: 1
WasModified: 0
WasOrder2: 1
Width: 1003
VWidth: 2048
LBearingChange: 0
UnicodeEnc: 0
InstructionsLength: 0
SplineSet
444 -9 m 0,0,1
 376 -9 376 -9 304.5 8 c 128,-1,2
 233 25 233 25 180.5 48 c 128,-1,3
 128 71 128 71 94.5 89.5 c 128,-1,4
 61 108 61 108 50 118 c 1,5,-1
 134 300 l 1,6,7
 151 287 151 287 183 267.5 c 128,-1,8
 215 248 215 248 285.5 223 c 128,-1,9
 356 198 356 198 420 198 c 0,10,11
 538 198 538 198 597.5 263.5 c 128,-1,12
 657 329 657 329 657 438 c 0,13,14
 657 541 657 541 603 601.5 c 128,-1,15
 549 662 549 662 463 662 c 0,16,17
 359 662 359 662 276 569 c 1,18,-1
 102 598 l 1,19,-1
 137 1335 l 1,20,-1
 859 1335 l 1,21,-1
 843 1128 l 1,22,-1
 362 1128 l 1,23,24
 361 1108 361 1108 350.5 975 c 128,-1,25
 340 842 340 842 339 807 c 1,26,27
 341 808 341 808 355 815 c 128,-1,28
 369 822 369 822 373.5 824 c 128,-1,29
 378 826 378 826 391 832 c 128,-1,30
 404 838 404 838 410 840 c 128,-1,31
 416 842 416 842 428 847 c 128,-1,32
 440 852 440 852 447.5 854 c 128,-1,33
 455 856 455 856 465 858.5 c 128,-1,34
 475 861 475 861 483.5 862 c 128,-1,35
 492 863 492 863 500 863 c 0,36,37
 681 863 681 863 794 744 c 128,-1,38
 907 625 907 625 907 436 c 0,39,40
 907 235 907 235 784 113 c 128,-1,41
 661 -9 661 -9 444 -9 c 0,0,1
EndSplineSet
EndUndoOperation
EndUndoes
Redoes
EndRedoes
EndUndoRedoHistory
Fore
SplineSet
444 -9 m 0,0,1
 376 -9 376 -9 304.5 8 c 128,-1,2
 233 25 233 25 180.5 48 c 128,-1,3
 128 71 128 71 94.5 89.5 c 128,-1,4
 61 108 61 108 50 118 c 1,5,-1
 134 300 l 1,6,7
 151 287 151 287 183 267.5 c 128,-1,8
 215 248 215 248 285.5 223 c 128,-1,9
 356 198 356 198 420 198 c 0,10,11
 538 198 538 198 597.5 263.5 c 128,-1,12
 657 329 657 329 657 438 c 0,13,14
 657 541 657 541 603 601.5 c 128,-1,15
 549 662 549 662 463 662 c 0,16,17
 359 662 359 662 276 569 c 1,18,-1
 102 598 l 1,19,-1
 137 1335 l 1,20,-1
 859 1335 l 1,21,-1
 843 1128 l 1,22,-1
 362 1128 l 1,23,24
 361 1108 361 1108 350.5 975 c 128,-1,25
 340 842 340 842 339 807 c 1,26,27
 341 808 341 808 355 815 c 128,-1,28
 369 822 369 822 373.5 824 c 128,-1,29
 378 826 378 826 391 832 c 128,-1,30
 404 838 404 838 410 840 c 128,-1,31
 416 842 416 842 428 847 c 128,-1,32
 440 852 440 852 447.5 854 c 128,-1,33
 455 856 455 856 465 858.5 c 128,-1,34
 475 861 475 861 483.5 862 c 128,-1,35
 492 863 492 863 500 863 c 0,36,37
 681 863 681 863 794 744 c 128,-1,38
 907 625 907 625 907 436 c 0,39,40
 907 235 907 235 784 113 c 128,-1,41
 661 -9 661 -9 444 -9 c 0,0,1
EndSplineSet
EndChar

StartChar: six
Encoding: 54 54 24
Width: 1140
GlyphClass: 2
Flags: W
LayerCount: 2
UndoRedoHistory
Layer: 1
Undoes
UndoOperation
Index: 0
Type: 1
WasModified: 0
WasOrder2: 1
Width: 1140
VWidth: 2048
LBearingChange: 0
UnicodeEnc: 0
InstructionsLength: 0
SplineSet
578 -9 m 0,0,1
 359 -9 359 -9 220.5 112 c 128,-1,2
 82 233 82 233 82 431 c 0,3,4
 82 550 82 550 128 646.5 c 128,-1,5
 174 743 174 743 264 862 c 1,6,-1
 615 1334 l 1,7,-1
 931 1334 l 1,8,-1
 542 835 l 1,9,10
 586 847 586 847 619 847 c 0,11,12
 813 847 813 847 940.5 729.5 c 128,-1,13
 1068 612 1068 612 1068 426 c 0,14,15
 1068 232 1068 232 929 111.5 c 128,-1,16
 790 -9 790 -9 578 -9 c 0,0,1
568 189 m 0,17,18
 680 189 680 189 742 252.5 c 128,-1,19
 804 316 804 316 804 422 c 0,20,21
 804 534 804 534 746 596.5 c 128,-1,22
 688 659 688 659 571 659 c 0,23,24
 453 659 453 659 398 595.5 c 128,-1,25
 343 532 343 532 343 420 c 0,26,27
 343 313 343 313 401 251 c 128,-1,28
 459 189 459 189 568 189 c 0,17,18
EndSplineSet
EndUndoOperation
UndoOperation
Index: 1
Type: 1
WasModified: 0
WasOrder2: 1
Width: 1140
VWidth: 2048
LBearingChange: 0
UnicodeEnc: 0
InstructionsLength: 0
SplineSet
578 -9 m 0,0,1
 359 -9 359 -9 220.5 112 c 128,-1,2
 82 233 82 233 82 431 c 0,3,4
 82 550 82 550 128 646.5 c 128,-1,5
 174 743 174 743 264 862 c 1,6,-1
 615 1334 l 1,7,-1
 931 1334 l 1,8,-1
 542 835 l 1,9,10
 586 847 586 847 619 847 c 0,11,12
 813 847 813 847 940.5 729.5 c 128,-1,13
 1068 612 1068 612 1068 426 c 0,14,15
 1068 232 1068 232 929 111.5 c 128,-1,16
 790 -9 790 -9 578 -9 c 0,0,1
568 189 m 0,17,18
 680 189 680 189 742 252.5 c 128,-1,19
 804 316 804 316 804 422 c 0,20,21
 804 534 804 534 746 596.5 c 128,-1,22
 688 659 688 659 571 659 c 0,23,24
 453 659 453 659 398 595.5 c 128,-1,25
 343 532 343 532 343 420 c 0,26,27
 343 313 343 313 401 251 c 128,-1,28
 459 189 459 189 568 189 c 0,17,18
EndSplineSet
EndUndoOperation
UndoOperation
Index: 2
Type: 1
WasModified: 0
WasOrder2: 1
Width: 1140
VWidth: 2048
LBearingChange: 0
UnicodeEnc: 0
InstructionsLength: 0
SplineSet
568 189 m 0,0,1
 680 189 680 189 742 252.5 c 128,-1,2
 804 316 804 316 804 422 c 0,3,4
 804 534 804 534 746 596.5 c 128,-1,5
 688 659 688 659 571 659 c 0,6,7
 453 659 453 659 398 595.5 c 128,-1,8
 343 532 343 532 343 420 c 0,9,10
 343 313 343 313 401 251 c 128,-1,11
 459 189 459 189 568 189 c 0,0,1
578 -9 m 0,12,13
 359 -9 359 -9 220.5 112 c 128,-1,14
 82 233 82 233 82 431 c 0,15,16
 82 550 82 550 128 646.5 c 128,-1,17
 174 743 174 743 264 862 c 1,18,-1
 615 1334 l 1,19,-1
 931 1334 l 1,20,-1
 542 835 l 1,21,22
 586 847 586 847 619 847 c 0,23,24
 813 847 813 847 940.5 729.5 c 128,-1,25
 1068 612 1068 612 1068 426 c 0,26,27
 1068 232 1068 232 929 111.5 c 128,-1,28
 790 -9 790 -9 578 -9 c 0,12,13
EndSplineSet
EndUndoOperation
EndUndoes
Redoes
EndRedoes
EndUndoRedoHistory
Fore
SplineSet
578 -9 m 0,0,1
 359 -9 359 -9 220.5 112 c 128,-1,2
 82 233 82 233 82 431 c 0,3,4
 82 550 82 550 128 646.5 c 128,-1,5
 174 743 174 743 264 862 c 1,6,-1
 615 1334 l 1,7,-1
 931 1334 l 1,8,-1
 542 835 l 1,9,10
 586 847 586 847 619 847 c 0,11,12
 813 847 813 847 940.5 729.5 c 128,-1,13
 1068 612 1068 612 1068 426 c 0,14,15
 1068 232 1068 232 929 111.5 c 128,-1,16
 790 -9 790 -9 578 -9 c 0,0,1
568 189 m 0,17,18
 680 189 680 189 742 252.5 c 128,-1,19
 804 316 804 316 804 422 c 0,20,21
 804 534 804 534 746 596.5 c 128,-1,22
 688 659 688 659 571 659 c 0,23,24
 453 659 453 659 398 595.5 c 128,-1,25
 343 532 343 532 343 420 c 0,26,27
 343 313 343 313 401 251 c 128,-1,28
 459 189 459 189 568 189 c 0,17,18
EndSplineSet
EndChar

StartChar: seven
Encoding: 55 55 25
Width: 1021
GlyphClass: 2
Flags: W
LayerCount: 2
UndoRedoHistory
Layer: 1
Undoes
UndoOperation
Index: 0
Type: 1
WasModified: 0
WasOrder2: 1
Width: 1021
VWidth: 2048
LBearingChange: 0
UnicodeEnc: 0
InstructionsLength: 0
SplineSet
937 1342 m 1,0,-1
 937 1178 l 1,1,-1
 485 -1 l 1,2,-1
 229 -1 l 1,3,-1
 648 1138 l 1,4,-1
 88 1138 l 1,5,-1
 100 1342 l 1,6,-1
 937 1342 l 1,0,-1
EndSplineSet
EndUndoOperation
UndoOperation
Index: 1
Type: 1
WasModified: 0
WasOrder2: 1
Width: 1021
VWidth: 2048
LBearingChange: 0
UnicodeEnc: 0
InstructionsLength: 0
SplineSet
937 1342 m 1,0,-1
 937 1178 l 1,1,-1
 485 -1 l 1,2,-1
 229 -1 l 1,3,-1
 648 1138 l 1,4,-1
 88 1138 l 1,5,-1
 100 1342 l 1,6,-1
 937 1342 l 1,0,-1
EndSplineSet
EndUndoOperation
UndoOperation
Index: 2
Type: 1
WasModified: 0
WasOrder2: 1
Width: 1021
VWidth: 2048
LBearingChange: 0
UnicodeEnc: 0
InstructionsLength: 0
SplineSet
937 1342 m 1,0,-1
 937 1178 l 1,1,-1
 485 -1 l 1,2,-1
 229 -1 l 1,3,-1
 648 1138 l 1,4,-1
 88 1138 l 1,5,-1
 100 1342 l 1,6,-1
 937 1342 l 1,0,-1
EndSplineSet
EndUndoOperation
EndUndoes
Redoes
EndRedoes
EndUndoRedoHistory
Fore
SplineSet
937 1342 m 1,0,-1
 937 1178 l 1,1,-1
 485 -1 l 1,2,-1
 229 -1 l 1,3,-1
 648 1138 l 1,4,-1
 88 1138 l 1,5,-1
 100 1342 l 1,6,-1
 937 1342 l 1,0,-1
EndSplineSet
EndChar

StartChar: eight
Encoding: 56 56 26
Width: 1093
GlyphClass: 2
Flags: W
LayerCount: 2
UndoRedoHistory
Layer: 1
Undoes
UndoOperation
Index: 0
Type: 1
WasModified: 0
WasOrder2: 1
Width: 1093
VWidth: 2048
LBearingChange: 0
UnicodeEnc: 0
InstructionsLength: 0
SplineSet
549 1 m 128,-1,1
 422 1 422 1 318 42 c 128,-1,2
 214 83 214 83 149 169.5 c 128,-1,3
 84 256 84 256 84 375 c 0,4,5
 84 603 84 603 301 711 c 1,6,7
 109 813 109 813 109 1017 c 0,8,9
 109 1129 109 1129 170 1209 c 128,-1,10
 231 1289 231 1289 328.5 1326 c 128,-1,11
 426 1363 426 1363 548 1363 c 0,12,13
 671 1363 671 1363 768 1326 c 128,-1,14
 865 1289 865 1289 925 1209 c 128,-1,15
 985 1129 985 1129 985 1017 c 0,16,17
 985 814 985 814 806 711 c 1,18,19
 1009 602 1009 602 1009 374 c 0,20,21
 1009 255 1009 255 944.5 168.5 c 128,-1,22
 880 82 880 82 778 41.5 c 128,-1,0
 676 1 676 1 549 1 c 128,-1,1
549 173 m 128,-1,24
 656 173 656 173 714.5 224 c 128,-1,25
 773 275 773 275 773 369 c 128,-1,26
 773 463 773 463 712.5 524.5 c 128,-1,27
 652 586 652 586 549 614 c 1,28,29
 445 586 445 586 384 524.5 c 128,-1,30
 323 463 323 463 323 368 c 0,31,32
 323 275 323 275 382.5 224 c 128,-1,23
 442 173 442 173 549 173 c 128,-1,24
549 781 m 1,33,34
 650 805 650 805 705.5 864.5 c 128,-1,35
 761 924 761 924 761 1016 c 0,36,37
 761 1092 761 1092 701.5 1138 c 128,-1,38
 642 1184 642 1184 549 1184 c 0,39,40
 455 1184 455 1184 394.5 1137.5 c 128,-1,41
 334 1091 334 1091 334 1016 c 0,42,43
 334 924 334 924 390.5 864.5 c 128,-1,44
 447 805 447 805 549 781 c 1,33,34
EndSplineSet
EndUndoOperation
UndoOperation
Index: 1
Type: 1
WasModified: 0
WasOrder2: 1
Width: 1093
VWidth: 2048
LBearingChange: 0
UnicodeEnc: 0
InstructionsLength: 0
SplineSet
549 1 m 128,-1,1
 422 1 422 1 318 42 c 128,-1,2
 214 83 214 83 149 169.5 c 128,-1,3
 84 256 84 256 84 375 c 0,4,5
 84 603 84 603 301 711 c 1,6,7
 109 813 109 813 109 1017 c 0,8,9
 109 1129 109 1129 170 1209 c 128,-1,10
 231 1289 231 1289 328.5 1326 c 128,-1,11
 426 1363 426 1363 548 1363 c 0,12,13
 671 1363 671 1363 768 1326 c 128,-1,14
 865 1289 865 1289 925 1209 c 128,-1,15
 985 1129 985 1129 985 1017 c 0,16,17
 985 814 985 814 806 711 c 1,18,19
 1009 602 1009 602 1009 374 c 0,20,21
 1009 255 1009 255 944.5 168.5 c 128,-1,22
 880 82 880 82 778 41.5 c 128,-1,0
 676 1 676 1 549 1 c 128,-1,1
549 173 m 128,-1,24
 656 173 656 173 714.5 224 c 128,-1,25
 773 275 773 275 773 369 c 128,-1,26
 773 463 773 463 712.5 524.5 c 128,-1,27
 652 586 652 586 549 614 c 1,28,29
 445 586 445 586 384 524.5 c 128,-1,30
 323 463 323 463 323 368 c 0,31,32
 323 275 323 275 382.5 224 c 128,-1,23
 442 173 442 173 549 173 c 128,-1,24
549 781 m 1,33,34
 650 805 650 805 705.5 864.5 c 128,-1,35
 761 924 761 924 761 1016 c 0,36,37
 761 1092 761 1092 701.5 1138 c 128,-1,38
 642 1184 642 1184 549 1184 c 0,39,40
 455 1184 455 1184 394.5 1137.5 c 128,-1,41
 334 1091 334 1091 334 1016 c 0,42,43
 334 924 334 924 390.5 864.5 c 128,-1,44
 447 805 447 805 549 781 c 1,33,34
EndSplineSet
EndUndoOperation
UndoOperation
Index: 2
Type: 1
WasModified: 0
WasOrder2: 1
Width: 1093
VWidth: 2048
LBearingChange: 0
UnicodeEnc: 0
InstructionsLength: 0
SplineSet
549 781 m 1,0,1
 650 805 650 805 705.5 864.5 c 128,-1,2
 761 924 761 924 761 1016 c 0,3,4
 761 1092 761 1092 701.5 1138 c 128,-1,5
 642 1184 642 1184 549 1184 c 0,6,7
 455 1184 455 1184 394.5 1137.5 c 128,-1,8
 334 1091 334 1091 334 1016 c 0,9,10
 334 924 334 924 390.5 864.5 c 128,-1,11
 447 805 447 805 549 781 c 1,0,1
549 173 m 128,-1,13
 656 173 656 173 714.5 224 c 128,-1,14
 773 275 773 275 773 369 c 128,-1,15
 773 463 773 463 712.5 524.5 c 128,-1,16
 652 586 652 586 549 614 c 1,17,18
 445 586 445 586 384 524.5 c 128,-1,19
 323 463 323 463 323 368 c 0,20,21
 323 275 323 275 382.5 224 c 128,-1,12
 442 173 442 173 549 173 c 128,-1,13
549 1 m 128,-1,23
 422 1 422 1 318 42 c 128,-1,24
 214 83 214 83 149 169.5 c 128,-1,25
 84 256 84 256 84 375 c 0,26,27
 84 603 84 603 301 711 c 1,28,29
 109 813 109 813 109 1017 c 0,30,31
 109 1129 109 1129 170 1209 c 128,-1,32
 231 1289 231 1289 328.5 1326 c 128,-1,33
 426 1363 426 1363 548 1363 c 0,34,35
 671 1363 671 1363 768 1326 c 128,-1,36
 865 1289 865 1289 925 1209 c 128,-1,37
 985 1129 985 1129 985 1017 c 0,38,39
 985 814 985 814 806 711 c 1,40,41
 1009 602 1009 602 1009 374 c 0,42,43
 1009 255 1009 255 944.5 168.5 c 128,-1,44
 880 82 880 82 778 41.5 c 128,-1,22
 676 1 676 1 549 1 c 128,-1,23
EndSplineSet
EndUndoOperation
EndUndoes
Redoes
EndRedoes
EndUndoRedoHistory
Fore
SplineSet
549 1 m 128,-1,1
 422 1 422 1 318 42 c 128,-1,2
 214 83 214 83 149 169.5 c 128,-1,3
 84 256 84 256 84 375 c 0,4,5
 84 603 84 603 301 711 c 1,6,7
 109 813 109 813 109 1017 c 0,8,9
 109 1129 109 1129 170 1209 c 128,-1,10
 231 1289 231 1289 328.5 1326 c 128,-1,11
 426 1363 426 1363 548 1363 c 0,12,13
 671 1363 671 1363 768 1326 c 128,-1,14
 865 1289 865 1289 925 1209 c 128,-1,15
 985 1129 985 1129 985 1017 c 0,16,17
 985 814 985 814 806 711 c 1,18,19
 1009 602 1009 602 1009 374 c 0,20,21
 1009 255 1009 255 944.5 168.5 c 128,-1,22
 880 82 880 82 778 41.5 c 128,-1,0
 676 1 676 1 549 1 c 128,-1,1
549 173 m 128,-1,24
 656 173 656 173 714.5 224 c 128,-1,25
 773 275 773 275 773 369 c 128,-1,26
 773 463 773 463 712.5 524.5 c 128,-1,27
 652 586 652 586 549 614 c 1,28,29
 445 586 445 586 384 524.5 c 128,-1,30
 323 463 323 463 323 368 c 0,31,32
 323 275 323 275 382.5 224 c 128,-1,23
 442 173 442 173 549 173 c 128,-1,24
549 781 m 1,33,34
 650 805 650 805 705.5 864.5 c 128,-1,35
 761 924 761 924 761 1016 c 0,36,37
 761 1092 761 1092 701.5 1138 c 128,-1,38
 642 1184 642 1184 549 1184 c 0,39,40
 455 1184 455 1184 394.5 1137.5 c 128,-1,41
 334 1091 334 1091 334 1016 c 0,42,43
 334 924 334 924 390.5 864.5 c 128,-1,44
 447 805 447 805 549 781 c 1,33,34
EndSplineSet
EndChar

StartChar: nine
Encoding: 57 57 27
Width: 1138
GlyphClass: 2
Flags: W
LayerCount: 2
UndoRedoHistory
Layer: 1
Undoes
UndoOperation
Index: 0
Type: 1
WasModified: 0
WasOrder2: 1
Width: 1138
VWidth: 2048
LBearingChange: 0
UnicodeEnc: 0
InstructionsLength: 0
SplineSet
517 10 m 1,0,-1
 204 10 l 1,1,-1
 593 515 l 1,2,3
 550 502 550 502 516 502 c 0,4,5
 322 502 322 502 195 619 c 128,-1,6
 68 736 68 736 68 924 c 0,7,8
 68 1121 68 1121 207 1242 c 128,-1,9
 346 1363 346 1363 558 1363 c 0,10,11
 777 1363 777 1363 915.5 1242 c 128,-1,12
 1054 1121 1054 1121 1054 922 c 0,13,14
 1054 806 1054 806 1010.5 712 c 128,-1,15
 967 618 967 618 884 503 c 1,16,-1
 517 10 l 1,0,-1
566 687 m 0,17,18
 684 687 684 687 739 753 c 128,-1,19
 794 819 794 819 794 934 c 0,20,21
 794 1041 794 1041 736.5 1103.5 c 128,-1,22
 679 1166 679 1166 570 1166 c 0,23,24
 458 1166 458 1166 394.5 1101.5 c 128,-1,25
 331 1037 331 1037 331 930 c 0,26,27
 331 816 331 816 390 751.5 c 128,-1,28
 449 687 449 687 566 687 c 0,17,18
EndSplineSet
EndUndoOperation
UndoOperation
Index: 1
Type: 1
WasModified: 0
WasOrder2: 1
Width: 1138
VWidth: 2048
LBearingChange: 0
UnicodeEnc: 0
InstructionsLength: 0
SplineSet
517 10 m 1,0,-1
 204 10 l 1,1,-1
 593 515 l 1,2,3
 550 502 550 502 516 502 c 0,4,5
 322 502 322 502 195 619 c 128,-1,6
 68 736 68 736 68 924 c 0,7,8
 68 1121 68 1121 207 1242 c 128,-1,9
 346 1363 346 1363 558 1363 c 0,10,11
 777 1363 777 1363 915.5 1242 c 128,-1,12
 1054 1121 1054 1121 1054 922 c 0,13,14
 1054 806 1054 806 1010.5 712 c 128,-1,15
 967 618 967 618 884 503 c 1,16,-1
 517 10 l 1,0,-1
566 687 m 0,17,18
 684 687 684 687 739 753 c 128,-1,19
 794 819 794 819 794 934 c 0,20,21
 794 1041 794 1041 736.5 1103.5 c 128,-1,22
 679 1166 679 1166 570 1166 c 0,23,24
 458 1166 458 1166 394.5 1101.5 c 128,-1,25
 331 1037 331 1037 331 930 c 0,26,27
 331 816 331 816 390 751.5 c 128,-1,28
 449 687 449 687 566 687 c 0,17,18
EndSplineSet
EndUndoOperation
UndoOperation
Index: 2
Type: 1
WasModified: 0
WasOrder2: 1
Width: 1138
VWidth: 2048
LBearingChange: 0
UnicodeEnc: 0
InstructionsLength: 0
SplineSet
566 687 m 0,0,1
 684 687 684 687 739 753 c 128,-1,2
 794 819 794 819 794 934 c 0,3,4
 794 1041 794 1041 736.5 1103.5 c 128,-1,5
 679 1166 679 1166 570 1166 c 0,6,7
 458 1166 458 1166 394.5 1101.5 c 128,-1,8
 331 1037 331 1037 331 930 c 0,9,10
 331 816 331 816 390 751.5 c 128,-1,11
 449 687 449 687 566 687 c 0,0,1
517 10 m 1,12,-1
 204 10 l 1,13,-1
 593 515 l 1,14,15
 550 502 550 502 516 502 c 0,16,17
 322 502 322 502 195 619 c 128,-1,18
 68 736 68 736 68 924 c 0,19,20
 68 1121 68 1121 207 1242 c 128,-1,21
 346 1363 346 1363 558 1363 c 0,22,23
 777 1363 777 1363 915.5 1242 c 128,-1,24
 1054 1121 1054 1121 1054 922 c 0,25,26
 1054 806 1054 806 1010.5 712 c 128,-1,27
 967 618 967 618 884 503 c 1,28,-1
 517 10 l 1,12,-1
EndSplineSet
EndUndoOperation
EndUndoes
Redoes
EndRedoes
EndUndoRedoHistory
Fore
SplineSet
517 10 m 1,0,-1
 204 10 l 1,1,-1
 593 515 l 1,2,3
 550 502 550 502 516 502 c 0,4,5
 322 502 322 502 195 619 c 128,-1,6
 68 736 68 736 68 924 c 0,7,8
 68 1121 68 1121 207 1242 c 128,-1,9
 346 1363 346 1363 558 1363 c 0,10,11
 777 1363 777 1363 915.5 1242 c 128,-1,12
 1054 1121 1054 1121 1054 922 c 0,13,14
 1054 806 1054 806 1010.5 712 c 128,-1,15
 967 618 967 618 884 503 c 1,16,-1
 517 10 l 1,0,-1
566 687 m 0,17,18
 684 687 684 687 739 753 c 128,-1,19
 794 819 794 819 794 934 c 0,20,21
 794 1041 794 1041 736.5 1103.5 c 128,-1,22
 679 1166 679 1166 570 1166 c 0,23,24
 458 1166 458 1166 394.5 1101.5 c 128,-1,25
 331 1037 331 1037 331 930 c 0,26,27
 331 816 331 816 390 751.5 c 128,-1,28
 449 687 449 687 566 687 c 0,17,18
EndSplineSet
EndChar

StartChar: colon
Encoding: 58 58 28
Width: 400
GlyphClass: 2
Flags: W
LayerCount: 2
UndoRedoHistory
Layer: 1
Undoes
UndoOperation
Index: 0
Type: 1
WasModified: 0
WasOrder2: 1
Width: 400
VWidth: 2048
LBearingChange: 0
UnicodeEnc: 0
InstructionsLength: 0
SplineSet
83 -6 m 1,0,-1
 83 260 l 1,1,-1
 339 260 l 1,2,-1
 339 -6 l 1,3,-1
 83 -6 l 1,0,-1
83 768 m 1,4,-1
 83 1023 l 1,5,-1
 339 1023 l 1,6,-1
 339 768 l 1,7,-1
 83 768 l 1,4,-1
EndSplineSet
EndUndoOperation
UndoOperation
Index: 1
Type: 1
WasModified: 0
WasOrder2: 1
Width: 400
VWidth: 2048
LBearingChange: 0
UnicodeEnc: 0
InstructionsLength: 0
SplineSet
83 -6 m 1,0,-1
 83 260 l 1,1,-1
 339 260 l 1,2,-1
 339 -6 l 1,3,-1
 83 -6 l 1,0,-1
83 768 m 1,4,-1
 83 1023 l 1,5,-1
 339 1023 l 1,6,-1
 339 768 l 1,7,-1
 83 768 l 1,4,-1
EndSplineSet
EndUndoOperation
UndoOperation
Index: 2
Type: 1
WasModified: 0
WasOrder2: 1
Width: 400
VWidth: 2048
LBearingChange: 0
UnicodeEnc: 0
InstructionsLength: 0
SplineSet
83 768 m 1,0,-1
 83 1023 l 1,1,-1
 339 1023 l 1,2,-1
 339 768 l 1,3,-1
 83 768 l 1,0,-1
83 -6 m 1,4,-1
 83 260 l 1,5,-1
 339 260 l 1,6,-1
 339 -6 l 1,7,-1
 83 -6 l 1,4,-1
EndSplineSet
EndUndoOperation
EndUndoes
Redoes
EndRedoes
EndUndoRedoHistory
Fore
SplineSet
83 -6 m 1,0,-1
 83 260 l 1,1,-1
 339 260 l 1,2,-1
 339 -6 l 1,3,-1
 83 -6 l 1,0,-1
83 768 m 1,4,-1
 83 1023 l 1,5,-1
 339 1023 l 1,6,-1
 339 768 l 1,7,-1
 83 768 l 1,4,-1
EndSplineSet
EndChar

StartChar: semicolon
Encoding: 59 59 29
Width: 454
GlyphClass: 2
Flags: W
LayerCount: 2
UndoRedoHistory
Layer: 1
Undoes
UndoOperation
Index: 0
Type: 1
WasModified: 0
WasOrder2: 1
Width: 454
VWidth: 2048
LBearingChange: 0
UnicodeEnc: 0
InstructionsLength: 0
SplineSet
92 -287 m 1,0,-1
 142 248 l 1,1,-1
 366 248 l 1,2,-1
 250 -287 l 1,3,-1
 92 -287 l 1,0,-1
108 767 m 1,4,-1
 108 1022 l 1,5,-1
 363 1022 l 1,6,-1
 363 767 l 1,7,-1
 108 767 l 1,4,-1
EndSplineSet
EndUndoOperation
UndoOperation
Index: 1
Type: 1
WasModified: 0
WasOrder2: 1
Width: 454
VWidth: 2048
LBearingChange: 0
UnicodeEnc: 0
InstructionsLength: 0
SplineSet
92 -287 m 1,0,-1
 142 248 l 1,1,-1
 366 248 l 1,2,-1
 250 -287 l 1,3,-1
 92 -287 l 1,0,-1
108 767 m 1,4,-1
 108 1022 l 1,5,-1
 363 1022 l 1,6,-1
 363 767 l 1,7,-1
 108 767 l 1,4,-1
EndSplineSet
EndUndoOperation
UndoOperation
Index: 2
Type: 1
WasModified: 0
WasOrder2: 1
Width: 454
VWidth: 2048
LBearingChange: 0
UnicodeEnc: 0
InstructionsLength: 0
SplineSet
108 767 m 1,0,-1
 108 1022 l 1,1,-1
 363 1022 l 1,2,-1
 363 767 l 1,3,-1
 108 767 l 1,0,-1
92 -287 m 1,4,-1
 142 248 l 1,5,-1
 366 248 l 1,6,-1
 250 -287 l 1,7,-1
 92 -287 l 1,4,-1
EndSplineSet
EndUndoOperation
EndUndoes
Redoes
EndRedoes
EndUndoRedoHistory
Fore
SplineSet
92 -287 m 1,0,-1
 142 248 l 1,1,-1
 366 248 l 1,2,-1
 250 -287 l 1,3,-1
 92 -287 l 1,0,-1
108 767 m 1,4,-1
 108 1022 l 1,5,-1
 363 1022 l 1,6,-1
 363 767 l 1,7,-1
 108 767 l 1,4,-1
EndSplineSet
EndChar

StartChar: less
Encoding: 60 60 30
Width: 1048
GlyphClass: 2
Flags: W
LayerCount: 2
UndoRedoHistory
Layer: 1
Undoes
UndoOperation
Index: 0
Type: 1
WasModified: 0
WasOrder2: 1
Width: 1048
VWidth: 2048
LBearingChange: 0
UnicodeEnc: 0
InstructionsLength: 0
SplineSet
969 952 m 1,0,-1
 364 654 l 1,1,-1
 967 384 l 1,2,-1
 969 169 l 1,3,-1
 96 588 l 1,4,-1
 96 710 l 1,5,-1
 969 1157 l 1,6,-1
 969 952 l 1,0,-1
EndSplineSet
EndUndoOperation
UndoOperation
Index: 1
Type: 1
WasModified: 0
WasOrder2: 1
Width: 1048
VWidth: 2048
LBearingChange: 0
UnicodeEnc: 0
InstructionsLength: 0
SplineSet
969 952 m 1,0,-1
 364 654 l 1,1,-1
 967 384 l 1,2,-1
 969 169 l 1,3,-1
 96 588 l 1,4,-1
 96 710 l 1,5,-1
 969 1157 l 1,6,-1
 969 952 l 1,0,-1
EndSplineSet
EndUndoOperation
UndoOperation
Index: 2
Type: 1
WasModified: 0
WasOrder2: 1
Width: 1048
VWidth: 2048
LBearingChange: 0
UnicodeEnc: 0
InstructionsLength: 0
SplineSet
969 952 m 1,0,-1
 364 654 l 1,1,-1
 967 384 l 1,2,3
 967 384 967 384 969 169 c 1,4,-1
 96 588 l 1,5,-1
 96 710 l 1,6,-1
 969 1157 l 1,7,-1
 969 952 l 1,0,-1
EndSplineSet
EndUndoOperation
EndUndoes
Redoes
EndRedoes
EndUndoRedoHistory
Fore
SplineSet
969 952 m 1,0,-1
 364 654 l 1,1,-1
 967 384 l 1,2,-1
 969 169 l 1,3,-1
 96 588 l 1,4,-1
 96 710 l 1,5,-1
 969 1157 l 1,6,-1
 969 952 l 1,0,-1
EndSplineSet
EndChar

StartChar: equal
Encoding: 61 61 31
Width: 1052
GlyphClass: 2
Flags: W
LayerCount: 2
UndoRedoHistory
Layer: 1
Undoes
UndoOperation
Index: 0
Type: 1
WasModified: 0
WasOrder2: 1
Width: 1052
VWidth: 2048
LBearingChange: 0
UnicodeEnc: 0
InstructionsLength: 0
SplineSet
76 326 m 1,0,-1
 76 518 l 1,1,-1
 995 518 l 1,2,-1
 995 326 l 1,3,-1
 76 326 l 1,0,-1
76 680 m 1,4,-1
 76 881 l 1,5,-1
 995 881 l 1,6,-1
 995 680 l 1,7,-1
 76 680 l 1,4,-1
EndSplineSet
EndUndoOperation
UndoOperation
Index: 1
Type: 1
WasModified: 0
WasOrder2: 1
Width: 1052
VWidth: 2048
LBearingChange: 0
UnicodeEnc: 0
InstructionsLength: 0
SplineSet
76 326 m 1,0,-1
 995 326 l 1,1,-1
 995 518 l 1,2,-1
 76 518 l 1,3,-1
 76 326 l 1,0,-1
76 680 m 1,4,-1
 995 680 l 1,5,-1
 995 881 l 1,6,-1
 76 881 l 1,7,-1
 76 680 l 1,4,-1
EndSplineSet
EndUndoOperation
UndoOperation
Index: 2
Type: 1
WasModified: 0
WasOrder2: 1
Width: 1052
VWidth: 2048
LBearingChange: 0
UnicodeEnc: 0
InstructionsLength: 0
SplineSet
76 680 m 1,0,-1
 995 680 l 1,1,-1
 995 881 l 1,2,-1
 76 881 l 1,3,-1
 76 680 l 1,0,-1
76 326 m 1,4,-1
 995 326 l 1,5,-1
 995 518 l 1,6,-1
 76 518 l 1,7,-1
 76 326 l 1,4,-1
EndSplineSet
EndUndoOperation
EndUndoes
Redoes
EndRedoes
EndUndoRedoHistory
Fore
SplineSet
76 326 m 1,0,-1
 76 518 l 1,1,-1
 995 518 l 1,2,-1
 995 326 l 1,3,-1
 76 326 l 1,0,-1
76 680 m 1,4,-1
 76 881 l 1,5,-1
 995 881 l 1,6,-1
 995 680 l 1,7,-1
 76 680 l 1,4,-1
EndSplineSet
EndChar

StartChar: greater
Encoding: 62 62 32
Width: 1049
GlyphClass: 2
Flags: W
LayerCount: 2
UndoRedoHistory
Layer: 1
Undoes
UndoOperation
Index: 0
Type: 1
WasModified: 0
WasOrder2: 1
Width: 1049
VWidth: 2048
LBearingChange: 0
UnicodeEnc: 0
InstructionsLength: 0
SplineSet
100 1158 m 1,0,-1
 973 709 l 1,1,-1
 973 588 l 1,2,-1
 100 171 l 1,3,-1
 100 386 l 1,4,-1
 704 654 l 1,5,-1
 100 953 l 1,6,-1
 100 1158 l 1,0,-1
EndSplineSet
EndUndoOperation
UndoOperation
Index: 1
Type: 1
WasModified: 0
WasOrder2: 1
Width: 1049
VWidth: 2048
LBearingChange: 0
UnicodeEnc: 0
InstructionsLength: 0
SplineSet
100 1158 m 1,0,-1
 973 709 l 1,1,-1
 973 588 l 1,2,-1
 100 171 l 1,3,-1
 100 386 l 1,4,-1
 704 654 l 1,5,-1
 100 953 l 1,6,-1
 100 1158 l 1,0,-1
EndSplineSet
EndUndoOperation
UndoOperation
Index: 2
Type: 1
WasModified: 0
WasOrder2: 1
Width: 1049
VWidth: 2048
LBearingChange: 0
UnicodeEnc: 0
InstructionsLength: 0
SplineSet
100 1158 m 1,0,-1
 973 709 l 1,1,-1
 973 588 l 1,2,-1
 100 171 l 1,3,-1
 100 386 l 1,4,-1
 704 654 l 1,5,-1
 100 953 l 1,6,-1
 100 1158 l 1,0,-1
EndSplineSet
EndUndoOperation
EndUndoes
Redoes
EndRedoes
EndUndoRedoHistory
Fore
SplineSet
100 1158 m 1,0,-1
 973 709 l 1,1,-1
 973 588 l 1,2,-1
 100 171 l 1,3,-1
 100 386 l 1,4,-1
 704 654 l 1,5,-1
 100 953 l 1,6,-1
 100 1158 l 1,0,-1
EndSplineSet
EndChar

StartChar: question
Encoding: 63 63 33
Width: 773
GlyphClass: 2
Flags: W
LayerCount: 2
UndoRedoHistory
Layer: 1
Undoes
UndoOperation
Index: 0
Type: 1
WasModified: 0
WasOrder2: 1
Width: 773
VWidth: 2048
LBearingChange: 0
UnicodeEnc: 0
InstructionsLength: 0
SplineSet
395 423 m 1,0,-1
 283 429 l 1,1,2
 292 500 292 500 320.5 573 c 128,-1,3
 349 646 349 646 383 704 c 128,-1,4
 417 762 417 762 450 816.5 c 128,-1,5
 483 871 483 871 505 923.5 c 128,-1,6
 527 976 527 976 527 1019 c 0,7,8
 526 1092 526 1092 481.5 1134.5 c 128,-1,9
 437 1177 437 1177 357 1177 c 0,10,11
 304 1177 304 1177 254 1164 c 128,-1,12
 204 1151 204 1151 178 1137.5 c 128,-1,13
 152 1124 152 1124 117 1103 c 1,14,-1
 45 1267 l 1,15,16
 189 1363 189 1363 381 1363 c 0,17,18
 431 1363 431 1363 480 1351.5 c 128,-1,19
 529 1340 529 1340 574.5 1314.5 c 128,-1,20
 620 1289 620 1289 655 1253 c 128,-1,21
 690 1217 690 1217 711 1164.5 c 128,-1,22
 732 1112 732 1112 732 1050 c 128,-1,23
 732 988 732 988 710.5 927.5 c 128,-1,24
 689 867 689 867 651 809.5 c 128,-1,25
 613 752 613 752 572 697.5 c 128,-1,26
 531 643 531 643 480.5 568.5 c 128,-1,27
 430 494 430 494 395 423 c 1,0,-1
338 -7 m 0,28,29
 278 -7 278 -7 234.5 36.5 c 128,-1,30
 191 80 191 80 191 139 c 0,31,32
 191 199 191 199 234 242.5 c 128,-1,33
 277 286 277 286 338 286 c 0,34,35
 397 286 397 286 437.5 242.5 c 128,-1,36
 478 199 478 199 478 139 c 0,37,38
 478 80 478 80 437.5 36.5 c 128,-1,39
 397 -7 397 -7 338 -7 c 0,28,29
EndSplineSet
EndUndoOperation
UndoOperation
Index: 1
Type: 1
WasModified: 0
WasOrder2: 1
Width: 773
VWidth: 2048
LBearingChange: 0
UnicodeEnc: 0
InstructionsLength: 0
SplineSet
395 423 m 1,0,-1
 283 429 l 1,1,2
 292 500 292 500 320.5 573 c 128,-1,3
 349 646 349 646 383 704 c 128,-1,4
 417 762 417 762 450 816.5 c 128,-1,5
 483 871 483 871 505 923.5 c 128,-1,6
 527 976 527 976 527 1019 c 0,7,8
 526 1092 526 1092 481.5 1134.5 c 128,-1,9
 437 1177 437 1177 357 1177 c 0,10,11
 304 1177 304 1177 254 1164 c 128,-1,12
 204 1151 204 1151 178 1137.5 c 128,-1,13
 152 1124 152 1124 117 1103 c 1,14,-1
 45 1267 l 1,15,16
 189 1363 189 1363 381 1363 c 0,17,18
 431 1363 431 1363 480 1351.5 c 128,-1,19
 529 1340 529 1340 574.5 1314.5 c 128,-1,20
 620 1289 620 1289 655 1253 c 128,-1,21
 690 1217 690 1217 711 1164.5 c 128,-1,22
 732 1112 732 1112 732 1050 c 128,-1,23
 732 988 732 988 710.5 927.5 c 128,-1,24
 689 867 689 867 651 809.5 c 128,-1,25
 613 752 613 752 572 697.5 c 128,-1,26
 531 643 531 643 480.5 568.5 c 128,-1,27
 430 494 430 494 395 423 c 1,0,-1
338 -7 m 0,28,29
 278 -7 278 -7 234.5 36.5 c 128,-1,30
 191 80 191 80 191 139 c 0,31,32
 191 199 191 199 234 242.5 c 128,-1,33
 277 286 277 286 338 286 c 0,34,35
 397 286 397 286 437.5 242.5 c 128,-1,36
 478 199 478 199 478 139 c 0,37,38
 478 80 478 80 437.5 36.5 c 128,-1,39
 397 -7 397 -7 338 -7 c 0,28,29
EndSplineSet
EndUndoOperation
UndoOperation
Index: 2
Type: 1
WasModified: 0
WasOrder2: 1
Width: 773
VWidth: 2048
LBearingChange: 0
UnicodeEnc: 0
InstructionsLength: 0
SplineSet
338 -7 m 0,0,1
 278 -7 278 -7 234.5 36.5 c 128,-1,2
 191 80 191 80 191 139 c 0,3,4
 191 199 191 199 234 242.5 c 128,-1,5
 277 286 277 286 338 286 c 0,6,7
 397 286 397 286 437.5 242.5 c 128,-1,8
 478 199 478 199 478 139 c 0,9,10
 478 80 478 80 437.5 36.5 c 128,-1,11
 397 -7 397 -7 338 -7 c 0,0,1
395 423 m 1,12,-1
 283 429 l 1,13,14
 292 500 292 500 320.5 573 c 128,-1,15
 349 646 349 646 383 704 c 128,-1,16
 417 762 417 762 450 816.5 c 128,-1,17
 483 871 483 871 505 923.5 c 128,-1,18
 527 976 527 976 527 1019 c 0,19,20
 526 1092 526 1092 481.5 1134.5 c 128,-1,21
 437 1177 437 1177 357 1177 c 0,22,23
 304 1177 304 1177 254 1164 c 128,-1,24
 204 1151 204 1151 178 1137.5 c 128,-1,25
 152 1124 152 1124 117 1103 c 1,26,-1
 45 1267 l 1,27,28
 189 1363 189 1363 381 1363 c 0,29,30
 431 1363 431 1363 480 1351.5 c 128,-1,31
 529 1340 529 1340 574.5 1314.5 c 128,-1,32
 620 1289 620 1289 655 1253 c 128,-1,33
 690 1217 690 1217 711 1164.5 c 128,-1,34
 732 1112 732 1112 732 1050 c 128,-1,35
 732 988 732 988 710.5 927.5 c 128,-1,36
 689 867 689 867 651 809.5 c 128,-1,37
 613 752 613 752 572 697.5 c 128,-1,38
 531 643 531 643 480.5 568.5 c 128,-1,39
 430 494 430 494 395 423 c 1,12,-1
EndSplineSet
EndUndoOperation
EndUndoes
Redoes
EndRedoes
EndUndoRedoHistory
Fore
SplineSet
395 423 m 1,0,-1
 283 429 l 1,1,2
 292 500 292 500 320.5 573 c 128,-1,3
 349 646 349 646 383 704 c 128,-1,4
 417 762 417 762 450 816.5 c 128,-1,5
 483 871 483 871 505 923.5 c 128,-1,6
 527 976 527 976 527 1019 c 0,7,8
 526 1092 526 1092 481.5 1134.5 c 128,-1,9
 437 1177 437 1177 357 1177 c 0,10,11
 304 1177 304 1177 254 1164 c 128,-1,12
 204 1151 204 1151 178 1137.5 c 128,-1,13
 152 1124 152 1124 117 1103 c 1,14,-1
 45 1267 l 1,15,16
 189 1363 189 1363 381 1363 c 0,17,18
 431 1363 431 1363 480 1351.5 c 128,-1,19
 529 1340 529 1340 574.5 1314.5 c 128,-1,20
 620 1289 620 1289 655 1253 c 128,-1,21
 690 1217 690 1217 711 1164.5 c 128,-1,22
 732 1112 732 1112 732 1050 c 128,-1,23
 732 988 732 988 710.5 927.5 c 128,-1,24
 689 867 689 867 651 809.5 c 128,-1,25
 613 752 613 752 572 697.5 c 128,-1,26
 531 643 531 643 480.5 568.5 c 128,-1,27
 430 494 430 494 395 423 c 1,0,-1
338 -7 m 0,28,29
 278 -7 278 -7 234.5 36.5 c 128,-1,30
 191 80 191 80 191 139 c 0,31,32
 191 199 191 199 234 242.5 c 128,-1,33
 277 286 277 286 338 286 c 0,34,35
 397 286 397 286 437.5 242.5 c 128,-1,36
 478 199 478 199 478 139 c 0,37,38
 478 80 478 80 437.5 36.5 c 128,-1,39
 397 -7 397 -7 338 -7 c 0,28,29
EndSplineSet
EndChar

StartChar: at
Encoding: 64 64 34
Width: 1662
GlyphClass: 2
Flags: W
LayerCount: 2
UndoRedoHistory
Layer: 1
Undoes
UndoOperation
Index: 0
Type: 1
WasModified: 0
WasOrder2: 1
Width: 1662
VWidth: 2048
LBearingChange: 0
UnicodeEnc: 0
InstructionsLength: 0
SplineSet
815 -119 m 0,0,1
 605 -119 605 -119 441.5 -32.5 c 128,-1,2
 278 54 278 54 185 217 c 128,-1,3
 92 380 92 380 92 596 c 128,-1,4
 92 812 92 812 193.5 986.5 c 128,-1,5
 295 1161 295 1161 474 1259.5 c 128,-1,6
 653 1358 653 1358 875 1358 c 0,7,8
 1020 1358 1020 1358 1147.5 1312 c 128,-1,9
 1275 1266 1275 1266 1368.5 1183.5 c 128,-1,10
 1462 1101 1462 1101 1516 979 c 128,-1,11
 1570 857 1570 857 1570 713 c 0,12,13
 1570 622 1570 622 1549 544 c 128,-1,14
 1528 466 1528 466 1493 412 c 128,-1,15
 1458 358 1458 358 1413 319 c 128,-1,16
 1368 280 1368 280 1320 261.5 c 128,-1,17
 1272 243 1272 243 1225 243 c 0,18,19
 1146 243 1146 243 1087 294 c 128,-1,20
 1028 345 1028 345 1011 440 c 1,21,22
 993 370 993 370 916.5 307 c 128,-1,23
 840 244 840 244 756 244 c 0,24,25
 686 244 686 244 631 269 c 128,-1,26
 576 294 576 294 542.5 337.5 c 128,-1,27
 509 381 509 381 491.5 436 c 128,-1,28
 474 491 474 491 474 554 c 128,-1,29
 474 617 474 617 491 680.5 c 128,-1,30
 508 744 508 744 542.5 801.5 c 128,-1,31
 577 859 577 859 624 903 c 128,-1,32
 671 947 671 947 737 973.5 c 128,-1,33
 803 1000 803 1000 878 1000 c 0,34,35
 948 1000 948 1000 1037.5 981 c 128,-1,36
 1127 962 1127 962 1181 930 c 1,37,38
 1173 874 1173 874 1156 766.5 c 128,-1,39
 1139 659 1139 659 1130.5 592 c 128,-1,40
 1122 525 1122 525 1122 476 c 0,41,42
 1122 428 1122 428 1152 398 c 128,-1,43
 1182 368 1182 368 1226 368 c 0,44,45
 1260 368 1260 368 1293 388 c 128,-1,46
 1326 408 1326 408 1355 448 c 128,-1,47
 1384 488 1384 488 1402.5 558.5 c 128,-1,48
 1421 629 1421 629 1421 721 c 0,49,50
 1421 795 1421 795 1403 865 c 128,-1,51
 1385 935 1385 935 1343 1001.5 c 128,-1,52
 1301 1068 1301 1068 1239 1117 c 128,-1,53
 1177 1166 1177 1166 1081.5 1195.5 c 128,-1,54
 986 1225 986 1225 867 1225 c 0,55,56
 751 1225 751 1225 651 1189 c 128,-1,57
 551 1153 551 1153 480 1091.5 c 128,-1,58
 409 1030 409 1030 358.5 948.5 c 128,-1,59
 308 867 308 867 284 776 c 128,-1,60
 260 685 260 685 260 590 c 0,61,62
 260 501 260 501 281.5 418 c 128,-1,63
 303 335 303 335 348 261.5 c 128,-1,64
 393 188 393 188 457.5 133.5 c 128,-1,65
 522 79 522 79 614.5 47 c 128,-1,66
 707 15 707 15 816 15 c 0,67,68
 929 15 929 15 1042.5 41.5 c 128,-1,69
 1156 68 1156 68 1243 118 c 1,70,-1
 1285 -3 l 1,71,72
 1201 -59 1201 -59 1074.5 -89 c 128,-1,73
 948 -119 948 -119 815 -119 c 0,0,1
773 360 m 0,74,75
 822 360 822 360 858.5 381.5 c 128,-1,76
 895 403 895 403 917.5 446 c 128,-1,77
 940 489 940 489 953.5 540.5 c 128,-1,78
 967 592 967 592 976 664 c 0,79,80
 988 758 988 758 1000 872 c 1,81,82
 949 890 949 890 902 890 c 0,83,84
 822 890 822 890 760 840.5 c 128,-1,85
 698 791 698 791 666.5 714 c 128,-1,86
 635 637 635 637 635 549 c 0,87,88
 635 509 635 509 643.5 475.5 c 128,-1,89
 652 442 652 442 668.5 416 c 128,-1,90
 685 390 685 390 711.5 375 c 128,-1,91
 738 360 738 360 773 360 c 0,74,75
EndSplineSet
EndUndoOperation
UndoOperation
Index: 1
Type: 1
WasModified: 0
WasOrder2: 1
Width: 1662
VWidth: 2048
LBearingChange: 0
UnicodeEnc: 0
InstructionsLength: 0
SplineSet
815 -119 m 0,0,1
 605 -119 605 -119 441.5 -32.5 c 128,-1,2
 278 54 278 54 185 217 c 128,-1,3
 92 380 92 380 92 596 c 128,-1,4
 92 812 92 812 193.5 986.5 c 128,-1,5
 295 1161 295 1161 474 1259.5 c 128,-1,6
 653 1358 653 1358 875 1358 c 0,7,8
 1020 1358 1020 1358 1147.5 1312 c 128,-1,9
 1275 1266 1275 1266 1368.5 1183.5 c 128,-1,10
 1462 1101 1462 1101 1516 979 c 128,-1,11
 1570 857 1570 857 1570 713 c 0,12,13
 1570 622 1570 622 1549 544 c 128,-1,14
 1528 466 1528 466 1493 412 c 128,-1,15
 1458 358 1458 358 1413 319 c 128,-1,16
 1368 280 1368 280 1320 261.5 c 128,-1,17
 1272 243 1272 243 1225 243 c 0,18,19
 1146 243 1146 243 1087 294 c 128,-1,20
 1028 345 1028 345 1011 440 c 1,21,22
 993 370 993 370 916.5 307 c 128,-1,23
 840 244 840 244 756 244 c 0,24,25
 686 244 686 244 631 269 c 128,-1,26
 576 294 576 294 542.5 337.5 c 128,-1,27
 509 381 509 381 491.5 436 c 128,-1,28
 474 491 474 491 474 554 c 128,-1,29
 474 617 474 617 491 680.5 c 128,-1,30
 508 744 508 744 542.5 801.5 c 128,-1,31
 577 859 577 859 624 903 c 128,-1,32
 671 947 671 947 737 973.5 c 128,-1,33
 803 1000 803 1000 878 1000 c 0,34,35
 948 1000 948 1000 1037.5 981 c 128,-1,36
 1127 962 1127 962 1181 930 c 1,37,38
 1173 874 1173 874 1156 766.5 c 128,-1,39
 1139 659 1139 659 1130.5 592 c 128,-1,40
 1122 525 1122 525 1122 476 c 0,41,42
 1122 428 1122 428 1152 398 c 128,-1,43
 1182 368 1182 368 1226 368 c 0,44,45
 1260 368 1260 368 1293 388 c 128,-1,46
 1326 408 1326 408 1355 448 c 128,-1,47
 1384 488 1384 488 1402.5 558.5 c 128,-1,48
 1421 629 1421 629 1421 721 c 0,49,50
 1421 795 1421 795 1403 865 c 128,-1,51
 1385 935 1385 935 1343 1001.5 c 128,-1,52
 1301 1068 1301 1068 1239 1117 c 128,-1,53
 1177 1166 1177 1166 1081.5 1195.5 c 128,-1,54
 986 1225 986 1225 867 1225 c 0,55,56
 751 1225 751 1225 651 1189 c 128,-1,57
 551 1153 551 1153 480 1091.5 c 128,-1,58
 409 1030 409 1030 358.5 948.5 c 128,-1,59
 308 867 308 867 284 776 c 128,-1,60
 260 685 260 685 260 590 c 0,61,62
 260 501 260 501 281.5 418 c 128,-1,63
 303 335 303 335 348 261.5 c 128,-1,64
 393 188 393 188 457.5 133.5 c 128,-1,65
 522 79 522 79 614.5 47 c 128,-1,66
 707 15 707 15 816 15 c 0,67,68
 929 15 929 15 1042.5 41.5 c 128,-1,69
 1156 68 1156 68 1243 118 c 1,70,-1
 1285 -3 l 1,71,72
 1201 -59 1201 -59 1074.5 -89 c 128,-1,73
 948 -119 948 -119 815 -119 c 0,0,1
773 360 m 0,74,75
 822 360 822 360 858.5 381.5 c 128,-1,76
 895 403 895 403 917.5 446 c 128,-1,77
 940 489 940 489 953.5 540.5 c 128,-1,78
 967 592 967 592 976 664 c 0,79,80
 988 758 988 758 1000 872 c 1,81,82
 949 890 949 890 902 890 c 0,83,84
 822 890 822 890 760 840.5 c 128,-1,85
 698 791 698 791 666.5 714 c 128,-1,86
 635 637 635 637 635 549 c 0,87,88
 635 509 635 509 643.5 475.5 c 128,-1,89
 652 442 652 442 668.5 416 c 128,-1,90
 685 390 685 390 711.5 375 c 128,-1,91
 738 360 738 360 773 360 c 0,74,75
EndSplineSet
EndUndoOperation
UndoOperation
Index: 2
Type: 1
WasModified: 0
WasOrder2: 1
Width: 1662
VWidth: 2048
LBearingChange: 0
UnicodeEnc: 0
InstructionsLength: 0
SplineSet
773 360 m 0,0,1
 822 360 822 360 858.5 381.5 c 128,-1,2
 895 403 895 403 917.5 446 c 128,-1,3
 940 489 940 489 953.5 540.5 c 128,-1,4
 967 592 967 592 976 664 c 0,5,6
 988 758 988 758 1000 872 c 1,7,8
 949 890 949 890 902 890 c 0,9,10
 822 890 822 890 760 840.5 c 128,-1,11
 698 791 698 791 666.5 714 c 128,-1,12
 635 637 635 637 635 549 c 0,13,14
 635 509 635 509 643.5 475.5 c 128,-1,15
 652 442 652 442 668.5 416 c 128,-1,16
 685 390 685 390 711.5 375 c 128,-1,17
 738 360 738 360 773 360 c 0,0,1
815 -119 m 0,18,19
 605 -119 605 -119 441.5 -32.5 c 128,-1,20
 278 54 278 54 185 217 c 128,-1,21
 92 380 92 380 92 596 c 128,-1,22
 92 812 92 812 193.5 986.5 c 128,-1,23
 295 1161 295 1161 474 1259.5 c 128,-1,24
 653 1358 653 1358 875 1358 c 0,25,26
 1020 1358 1020 1358 1147.5 1312 c 128,-1,27
 1275 1266 1275 1266 1368.5 1183.5 c 128,-1,28
 1462 1101 1462 1101 1516 979 c 128,-1,29
 1570 857 1570 857 1570 713 c 0,30,31
 1570 622 1570 622 1549 544 c 128,-1,32
 1528 466 1528 466 1493 412 c 128,-1,33
 1458 358 1458 358 1413 319 c 128,-1,34
 1368 280 1368 280 1320 261.5 c 128,-1,35
 1272 243 1272 243 1225 243 c 0,36,37
 1146 243 1146 243 1087 294 c 128,-1,38
 1028 345 1028 345 1011 440 c 1,39,40
 993 370 993 370 916.5 307 c 128,-1,41
 840 244 840 244 756 244 c 0,42,43
 686 244 686 244 631 269 c 128,-1,44
 576 294 576 294 542.5 337.5 c 128,-1,45
 509 381 509 381 491.5 436 c 128,-1,46
 474 491 474 491 474 554 c 256,47,48
 474 617 474 617 491 680.5 c 128,-1,49
 508 744 508 744 542.5 801.5 c 128,-1,50
 577 859 577 859 624 903 c 128,-1,51
 671 947 671 947 737 973.5 c 128,-1,52
 803 1000 803 1000 878 1000 c 0,53,54
 948 1000 948 1000 1037.5 981 c 128,-1,55
 1127 962 1127 962 1181 930 c 1,56,57
 1173 874 1173 874 1156 766.5 c 128,-1,58
 1139 659 1139 659 1130.5 592 c 128,-1,59
 1122 525 1122 525 1122 476 c 0,60,61
 1122 428 1122 428 1152 398 c 128,-1,62
 1182 368 1182 368 1226 368 c 0,63,64
 1260 368 1260 368 1293 388 c 128,-1,65
 1326 408 1326 408 1355 448 c 128,-1,66
 1384 488 1384 488 1402.5 558.5 c 128,-1,67
 1421 629 1421 629 1421 721 c 0,68,69
 1421 795 1421 795 1403 865 c 128,-1,70
 1385 935 1385 935 1343 1001.5 c 128,-1,71
 1301 1068 1301 1068 1239 1117 c 128,-1,72
 1177 1166 1177 1166 1081.5 1195.5 c 128,-1,73
 986 1225 986 1225 867 1225 c 0,74,75
 751 1225 751 1225 651 1189 c 128,-1,76
 551 1153 551 1153 480 1091.5 c 128,-1,77
 409 1030 409 1030 358.5 948.5 c 128,-1,78
 308 867 308 867 284 776 c 128,-1,79
 260 685 260 685 260 590 c 0,80,81
 260 501 260 501 281.5 418 c 128,-1,82
 303 335 303 335 348 261.5 c 128,-1,83
 393 188 393 188 457.5 133.5 c 128,-1,84
 522 79 522 79 614.5 47 c 128,-1,85
 707 15 707 15 816 15 c 0,86,87
 929 15 929 15 1042.5 41.5 c 128,-1,88
 1156 68 1156 68 1243 118 c 1,89,-1
 1285 -3 l 1,90,91
 1201 -59 1201 -59 1074.5 -89 c 128,-1,92
 948 -119 948 -119 815 -119 c 0,18,19
EndSplineSet
EndUndoOperation
EndUndoes
Redoes
EndRedoes
EndUndoRedoHistory
Fore
SplineSet
815 -119 m 0,0,1
 605 -119 605 -119 441.5 -32.5 c 128,-1,2
 278 54 278 54 185 217 c 128,-1,3
 92 380 92 380 92 596 c 128,-1,4
 92 812 92 812 193.5 986.5 c 128,-1,5
 295 1161 295 1161 474 1259.5 c 128,-1,6
 653 1358 653 1358 875 1358 c 0,7,8
 1020 1358 1020 1358 1147.5 1312 c 128,-1,9
 1275 1266 1275 1266 1368.5 1183.5 c 128,-1,10
 1462 1101 1462 1101 1516 979 c 128,-1,11
 1570 857 1570 857 1570 713 c 0,12,13
 1570 622 1570 622 1549 544 c 128,-1,14
 1528 466 1528 466 1493 412 c 128,-1,15
 1458 358 1458 358 1413 319 c 128,-1,16
 1368 280 1368 280 1320 261.5 c 128,-1,17
 1272 243 1272 243 1225 243 c 0,18,19
 1146 243 1146 243 1087 294 c 128,-1,20
 1028 345 1028 345 1011 440 c 1,21,22
 993 370 993 370 916.5 307 c 128,-1,23
 840 244 840 244 756 244 c 0,24,25
 686 244 686 244 631 269 c 128,-1,26
 576 294 576 294 542.5 337.5 c 128,-1,27
 509 381 509 381 491.5 436 c 128,-1,28
 474 491 474 491 474 554 c 128,-1,29
 474 617 474 617 491 680.5 c 128,-1,30
 508 744 508 744 542.5 801.5 c 128,-1,31
 577 859 577 859 624 903 c 128,-1,32
 671 947 671 947 737 973.5 c 128,-1,33
 803 1000 803 1000 878 1000 c 0,34,35
 948 1000 948 1000 1037.5 981 c 128,-1,36
 1127 962 1127 962 1181 930 c 1,37,38
 1173 874 1173 874 1156 766.5 c 128,-1,39
 1139 659 1139 659 1130.5 592 c 128,-1,40
 1122 525 1122 525 1122 476 c 0,41,42
 1122 428 1122 428 1152 398 c 128,-1,43
 1182 368 1182 368 1226 368 c 0,44,45
 1260 368 1260 368 1293 388 c 128,-1,46
 1326 408 1326 408 1355 448 c 128,-1,47
 1384 488 1384 488 1402.5 558.5 c 128,-1,48
 1421 629 1421 629 1421 721 c 0,49,50
 1421 795 1421 795 1403 865 c 128,-1,51
 1385 935 1385 935 1343 1001.5 c 128,-1,52
 1301 1068 1301 1068 1239 1117 c 128,-1,53
 1177 1166 1177 1166 1081.5 1195.5 c 128,-1,54
 986 1225 986 1225 867 1225 c 0,55,56
 751 1225 751 1225 651 1189 c 128,-1,57
 551 1153 551 1153 480 1091.5 c 128,-1,58
 409 1030 409 1030 358.5 948.5 c 128,-1,59
 308 867 308 867 284 776 c 128,-1,60
 260 685 260 685 260 590 c 0,61,62
 260 501 260 501 281.5 418 c 128,-1,63
 303 335 303 335 348 261.5 c 128,-1,64
 393 188 393 188 457.5 133.5 c 128,-1,65
 522 79 522 79 614.5 47 c 128,-1,66
 707 15 707 15 816 15 c 0,67,68
 929 15 929 15 1042.5 41.5 c 128,-1,69
 1156 68 1156 68 1243 118 c 1,70,-1
 1285 -3 l 1,71,72
 1201 -59 1201 -59 1074.5 -89 c 128,-1,73
 948 -119 948 -119 815 -119 c 0,0,1
773 360 m 0,74,75
 822 360 822 360 858.5 381.5 c 128,-1,76
 895 403 895 403 917.5 446 c 128,-1,77
 940 489 940 489 953.5 540.5 c 128,-1,78
 967 592 967 592 976 664 c 0,79,80
 988 758 988 758 1000 872 c 1,81,82
 949 890 949 890 902 890 c 0,83,84
 822 890 822 890 760 840.5 c 128,-1,85
 698 791 698 791 666.5 714 c 128,-1,86
 635 637 635 637 635 549 c 0,87,88
 635 509 635 509 643.5 475.5 c 128,-1,89
 652 442 652 442 668.5 416 c 128,-1,90
 685 390 685 390 711.5 375 c 128,-1,91
 738 360 738 360 773 360 c 0,74,75
EndSplineSet
EndChar

StartChar: A
Encoding: 65 65 35
Width: 1263
GlyphClass: 2
Flags: W
LayerCount: 2
UndoRedoHistory
Layer: 1
Undoes
UndoOperation
Index: 0
Type: 1
WasModified: 0
WasOrder2: 1
Width: 1263
VWidth: 2048
LBearingChange: 0
UnicodeEnc: 0
InstructionsLength: 0
SplineSet
474 555 m 1,0,-1
 786 555 l 1,1,-1
 636 1093 l 1,2,-1
 474 555 l 1,0,-1
8 0 m 1,3,-1
 463 1336 l 1,4,-1
 801 1336 l 1,5,-1
 1255 0 l 1,6,-1
 969 0 l 1,7,-1
 842 365 l 1,8,-1
 416 365 l 1,9,-1
 296 0 l 1,10,-1
 8 0 l 1,3,-1
EndSplineSet
EndUndoOperation
UndoOperation
Index: 1
Type: 1
WasModified: 0
WasOrder2: 1
Width: 1263
VWidth: 2048
LBearingChange: 0
UnicodeEnc: 0
InstructionsLength: 0
SplineSet
474 555 m 1,0,-1
 636 1093 l 1,1,-1
 786 555 l 1,2,-1
 474 555 l 1,0,-1
8 0 m 1,3,-1
 296 0 l 1,4,-1
 416 365 l 1,5,-1
 842 365 l 1,6,-1
 969 0 l 1,7,-1
 1255 0 l 1,8,-1
 801 1336 l 1,9,-1
 463 1336 l 1,10,-1
 8 0 l 1,3,-1
EndSplineSet
EndUndoOperation
UndoOperation
Index: 2
Type: 1
WasModified: 0
WasOrder2: 1
Width: 1263
VWidth: 2048
LBearingChange: 0
UnicodeEnc: 0
InstructionsLength: 0
SplineSet
8 0 m 1,0,-1
 296 0 l 1,1,-1
 416 365 l 1,2,-1
 842 365 l 1,3,-1
 969 0 l 1,4,-1
 1255 0 l 1,5,-1
 801 1336 l 1,6,-1
 463 1336 l 1,7,-1
 8 0 l 1,0,-1
474 555 m 1,8,-1
 636 1093 l 1,9,-1
 786 555 l 1,10,-1
 474 555 l 1,8,-1
EndSplineSet
EndUndoOperation
EndUndoes
Redoes
EndRedoes
EndUndoRedoHistory
Fore
SplineSet
474 555 m 1,0,-1
 786 555 l 1,1,-1
 636 1093 l 1,2,-1
 474 555 l 1,0,-1
8 0 m 1,3,-1
 463 1336 l 1,4,-1
 801 1336 l 1,5,-1
 1255 0 l 1,6,-1
 969 0 l 1,7,-1
 842 365 l 1,8,-1
 416 365 l 1,9,-1
 296 0 l 1,10,-1
 8 0 l 1,3,-1
EndSplineSet
EndChar

StartChar: B
Encoding: 66 66 36
Width: 1247
GlyphClass: 2
Flags: W
LayerCount: 2
UndoRedoHistory
Layer: 1
Undoes
UndoOperation
Index: 0
Type: 1
WasModified: 0
WasOrder2: 1
Width: 1247
VWidth: 2048
LBearingChange: 0
UnicodeEnc: 0
InstructionsLength: 0
SplineSet
144 0 m 1,0,-1
 144 1336 l 1,1,-1
 611 1336 l 2,2,3
 871 1336 871 1336 1000.5 1259.5 c 128,-1,4
 1130 1183 1130 1183 1130 1000 c 0,5,6
 1130 967 1130 967 1120.5 930.5 c 128,-1,7
 1111 894 1111 894 1091 853.5 c 128,-1,8
 1071 813 1071 813 1032.5 776 c 128,-1,9
 994 739 994 739 943 715 c 1,10,11
 1052 677 1052 677 1115 593 c 128,-1,12
 1178 509 1178 509 1178 393 c 0,13,14
 1178 202 1178 202 1044.5 101 c 128,-1,15
 911 0 911 0 680 0 c 2,16,-1
 144 0 l 1,0,-1
432 216 m 1,17,-1
 628 216 l 2,18,19
 763 216 763 216 826.5 261.5 c 128,-1,20
 890 307 890 307 890 412 c 128,-1,21
 890 517 890 517 826.5 560.5 c 128,-1,22
 763 604 763 604 622 604 c 2,23,-1
 432 604 l 1,24,-1
 432 216 l 1,17,-1
432 793 m 1,25,-1
 625 793 l 2,26,27
 742 793 742 793 796 830 c 128,-1,28
 850 867 850 867 850 956 c 0,29,30
 850 1055 850 1055 787 1090.5 c 128,-1,31
 724 1126 724 1126 577 1126 c 2,32,-1
 432 1126 l 1,33,-1
 432 793 l 1,25,-1
EndSplineSet
EndUndoOperation
UndoOperation
Index: 1
Type: 1
WasModified: 0
WasOrder2: 1
Width: 1247
VWidth: 2048
LBearingChange: 0
UnicodeEnc: 0
InstructionsLength: 0
SplineSet
144 0 m 1,0,-1
 680 0 l 2,1,2
 911 0 911 0 1044.5 101 c 128,-1,3
 1178 202 1178 202 1178 393 c 0,4,5
 1178 509 1178 509 1115 593 c 128,-1,6
 1052 677 1052 677 943 715 c 1,7,8
 994 739 994 739 1032.5 776 c 128,-1,9
 1071 813 1071 813 1091 853.5 c 128,-1,10
 1111 894 1111 894 1120.5 930.5 c 128,-1,11
 1130 967 1130 967 1130 1000 c 0,12,13
 1130 1183 1130 1183 1000.5 1259.5 c 128,-1,14
 871 1336 871 1336 611 1336 c 2,15,-1
 144 1336 l 1,16,-1
 144 0 l 1,0,-1
432 216 m 1,17,-1
 432 604 l 1,18,-1
 622 604 l 2,19,20
 763 604 763 604 826.5 560.5 c 128,-1,21
 890 517 890 517 890 412 c 128,-1,22
 890 307 890 307 826.5 261.5 c 128,-1,23
 763 216 763 216 628 216 c 2,24,-1
 432 216 l 1,17,-1
432 793 m 1,25,-1
 432 1126 l 1,26,-1
 577 1126 l 2,27,28
 724 1126 724 1126 787 1090.5 c 128,-1,29
 850 1055 850 1055 850 956 c 0,30,31
 850 867 850 867 796 830 c 128,-1,32
 742 793 742 793 625 793 c 2,33,-1
 432 793 l 1,25,-1
EndSplineSet
EndUndoOperation
UndoOperation
Index: 2
Type: 1
WasModified: 0
WasOrder2: 1
Width: 1247
VWidth: 2048
LBearingChange: 0
UnicodeEnc: 0
InstructionsLength: 0
SplineSet
432 793 m 1,0,-1
 432 1126 l 1,1,-1
 577 1126 l 2,2,3
 724 1126 724 1126 787 1090.5 c 128,-1,4
 850 1055 850 1055 850 956 c 0,5,6
 850 867 850 867 796 830 c 128,-1,7
 742 793 742 793 625 793 c 2,8,-1
 432 793 l 1,0,-1
432 216 m 1,9,-1
 432 604 l 1,10,-1
 622 604 l 2,11,12
 763 604 763 604 826.5 560.5 c 128,-1,13
 890 517 890 517 890 412 c 128,-1,14
 890 307 890 307 826.5 261.5 c 128,-1,15
 763 216 763 216 628 216 c 2,16,-1
 432 216 l 1,9,-1
144 0 m 1,17,-1
 680 0 l 2,18,19
 911 0 911 0 1044.5 101 c 128,-1,20
 1178 202 1178 202 1178 393 c 0,21,22
 1178 509 1178 509 1115 593 c 128,-1,23
 1052 677 1052 677 943 715 c 1,24,25
 994 739 994 739 1032.5 776 c 128,-1,26
 1071 813 1071 813 1091 853.5 c 128,-1,27
 1111 894 1111 894 1120.5 930.5 c 128,-1,28
 1130 967 1130 967 1130 1000 c 0,29,30
 1130 1183 1130 1183 1000.5 1259.5 c 128,-1,31
 871 1336 871 1336 611 1336 c 2,32,-1
 144 1336 l 1,33,-1
 144 0 l 1,17,-1
EndSplineSet
EndUndoOperation
EndUndoes
Redoes
EndRedoes
EndUndoRedoHistory
Fore
SplineSet
144 0 m 1,0,-1
 144 1336 l 1,1,-1
 611 1336 l 2,2,3
 871 1336 871 1336 1000.5 1259.5 c 128,-1,4
 1130 1183 1130 1183 1130 1000 c 0,5,6
 1130 967 1130 967 1120.5 930.5 c 128,-1,7
 1111 894 1111 894 1091 853.5 c 128,-1,8
 1071 813 1071 813 1032.5 776 c 128,-1,9
 994 739 994 739 943 715 c 1,10,11
 1052 677 1052 677 1115 593 c 128,-1,12
 1178 509 1178 509 1178 393 c 0,13,14
 1178 202 1178 202 1044.5 101 c 128,-1,15
 911 0 911 0 680 0 c 2,16,-1
 144 0 l 1,0,-1
432 216 m 1,17,-1
 628 216 l 2,18,19
 763 216 763 216 826.5 261.5 c 128,-1,20
 890 307 890 307 890 412 c 128,-1,21
 890 517 890 517 826.5 560.5 c 128,-1,22
 763 604 763 604 622 604 c 2,23,-1
 432 604 l 1,24,-1
 432 216 l 1,17,-1
432 793 m 1,25,-1
 625 793 l 2,26,27
 742 793 742 793 796 830 c 128,-1,28
 850 867 850 867 850 956 c 0,29,30
 850 1055 850 1055 787 1090.5 c 128,-1,31
 724 1126 724 1126 577 1126 c 2,32,-1
 432 1126 l 1,33,-1
 432 793 l 1,25,-1
EndSplineSet
EndChar

StartChar: C
Encoding: 67 67 37
Width: 1176
GlyphClass: 2
Flags: W
LayerCount: 2
UndoRedoHistory
Layer: 1
Undoes
UndoOperation
Index: 0
Type: 1
WasModified: 0
WasOrder2: 1
Width: 1176
VWidth: 2048
LBearingChange: 0
UnicodeEnc: 0
InstructionsLength: 0
SplineSet
742 -16 m 0,0,1
 599 -16 599 -16 478.5 31 c 128,-1,2
 358 78 358 78 271 165 c 128,-1,3
 184 252 184 252 135 383.5 c 128,-1,4
 86 515 86 515 86 677 c 0,5,6
 86 838 86 838 134.5 967.5 c 128,-1,7
 183 1097 183 1097 269 1182.5 c 128,-1,8
 355 1268 355 1268 473.5 1313.5 c 128,-1,9
 592 1359 592 1359 733 1359 c 0,10,11
 940 1359 940 1359 1129 1249 c 1,12,-1
 1046 1035 l 1,13,14
 869 1136 869 1136 719 1125 c 0,15,16
 655 1120 655 1120 594.5 1089 c 128,-1,17
 534 1058 534 1058 484 1003.5 c 128,-1,18
 434 949 434 949 404 862.5 c 128,-1,19
 374 776 374 776 374 671 c 0,20,21
 374 456 374 456 476 337 c 128,-1,22
 578 218 578 218 757 213 c 0,23,24
 900 209 900 209 1048 293 c 1,25,-1
 1103 75 l 1,26,27
 1005 26 1005 26 925.5 5 c 128,-1,28
 846 -16 846 -16 742 -16 c 0,0,1
EndSplineSet
EndUndoOperation
UndoOperation
Index: 1
Type: 1
WasModified: 0
WasOrder2: 1
Width: 1176
VWidth: 2048
LBearingChange: 0
UnicodeEnc: 0
InstructionsLength: 0
SplineSet
742 -16 m 0,0,1
 846 -16 846 -16 925.5 5 c 128,-1,2
 1005 26 1005 26 1103 75 c 1,3,-1
 1048 293 l 1,4,5
 900 209 900 209 757 213 c 0,6,7
 578 218 578 218 476 337 c 128,-1,8
 374 456 374 456 374 671 c 0,9,10
 374 776 374 776 404 862.5 c 128,-1,11
 434 949 434 949 484 1003.5 c 128,-1,12
 534 1058 534 1058 594.5 1089 c 128,-1,13
 655 1120 655 1120 719 1125 c 0,14,15
 869 1136 869 1136 1046 1035 c 1,16,-1
 1129 1249 l 1,17,18
 940 1359 940 1359 733 1359 c 0,19,20
 592 1359 592 1359 473.5 1313.5 c 128,-1,21
 355 1268 355 1268 269 1182.5 c 128,-1,22
 183 1097 183 1097 134.5 967.5 c 128,-1,23
 86 838 86 838 86 677 c 0,24,25
 86 515 86 515 135 383.5 c 128,-1,26
 184 252 184 252 271 165 c 128,-1,27
 358 78 358 78 478.5 31 c 128,-1,28
 599 -16 599 -16 742 -16 c 0,0,1
EndSplineSet
EndUndoOperation
UndoOperation
Index: 2
Type: 1
WasModified: 0
WasOrder2: 1
Width: 1176
VWidth: 2048
LBearingChange: 0
UnicodeEnc: 0
InstructionsLength: 0
SplineSet
742 -16 m 0,0,1
 846 -16 846 -16 925.5 5 c 128,-1,2
 1005 26 1005 26 1103 75 c 1,3,-1
 1048 293 l 1,4,5
 900 209 900 209 757 213 c 0,6,7
 578 218 578 218 476 337 c 128,-1,8
 374 456 374 456 374 671 c 0,9,10
 374 776 374 776 404 862.5 c 128,-1,11
 434 949 434 949 484 1003.5 c 128,-1,12
 534 1058 534 1058 594.5 1089 c 128,-1,13
 655 1120 655 1120 719 1125 c 0,14,15
 869 1136 869 1136 1046 1035 c 1,16,-1
 1129 1249 l 1,17,18
 940 1359 940 1359 733 1359 c 0,19,20
 592 1359 592 1359 473.5 1313.5 c 128,-1,21
 355 1268 355 1268 269 1182.5 c 128,-1,22
 183 1097 183 1097 134.5 967.5 c 128,-1,23
 86 838 86 838 86 677 c 0,24,25
 86 515 86 515 135 383.5 c 128,-1,26
 184 252 184 252 271 165 c 128,-1,27
 358 78 358 78 478.5 31 c 128,-1,28
 599 -16 599 -16 742 -16 c 0,0,1
EndSplineSet
EndUndoOperation
EndUndoes
Redoes
EndRedoes
EndUndoRedoHistory
Fore
SplineSet
742 -16 m 0,0,1
 599 -16 599 -16 478.5 31 c 128,-1,2
 358 78 358 78 271 165 c 128,-1,3
 184 252 184 252 135 383.5 c 128,-1,4
 86 515 86 515 86 677 c 0,5,6
 86 838 86 838 134.5 967.5 c 128,-1,7
 183 1097 183 1097 269 1182.5 c 128,-1,8
 355 1268 355 1268 473.5 1313.5 c 128,-1,9
 592 1359 592 1359 733 1359 c 0,10,11
 940 1359 940 1359 1129 1249 c 1,12,-1
 1046 1035 l 1,13,14
 869 1136 869 1136 719 1125 c 0,15,16
 655 1120 655 1120 594.5 1089 c 128,-1,17
 534 1058 534 1058 484 1003.5 c 128,-1,18
 434 949 434 949 404 862.5 c 128,-1,19
 374 776 374 776 374 671 c 0,20,21
 374 456 374 456 476 337 c 128,-1,22
 578 218 578 218 757 213 c 0,23,24
 900 209 900 209 1048 293 c 1,25,-1
 1103 75 l 1,26,27
 1005 26 1005 26 925.5 5 c 128,-1,28
 846 -16 846 -16 742 -16 c 0,0,1
EndSplineSet
EndChar

StartChar: D
Encoding: 68 68 38
Width: 1388
GlyphClass: 2
Flags: W
LayerCount: 2
UndoRedoHistory
Layer: 1
Undoes
UndoOperation
Index: 0
Type: 1
WasModified: 0
WasOrder2: 1
Width: 1388
VWidth: 2048
LBearingChange: 0
UnicodeEnc: 0
InstructionsLength: 0
SplineSet
432 1126 m 1,0,-1
 432 216 l 1,1,-1
 579 216 l 2,2,3
 794 216 794 216 901.5 332 c 128,-1,4
 1009 448 1009 448 1009 671 c 0,5,6
 1009 909 1009 909 898 1017.5 c 128,-1,7
 787 1126 787 1126 553 1126 c 2,8,-1
 432 1126 l 1,0,-1
144 0 m 1,9,-1
 144 1336 l 1,10,-1
 542 1336 l 2,11,12
 713 1336 713 1336 849.5 1296 c 128,-1,13
 986 1256 986 1256 1086.5 1176.5 c 128,-1,14
 1187 1097 1187 1097 1241.5 970 c 128,-1,15
 1296 843 1296 843 1296 676 c 0,16,17
 1296 353 1296 353 1099.5 176.5 c 128,-1,18
 903 0 903 0 565 0 c 2,19,-1
 144 0 l 1,9,-1
EndSplineSet
EndUndoOperation
UndoOperation
Index: 1
Type: 1
WasModified: 0
WasOrder2: 1
Width: 1388
VWidth: 2048
LBearingChange: 0
UnicodeEnc: 0
InstructionsLength: 0
SplineSet
432 1126 m 1,0,-1
 432 216 l 1,1,-1
 579 216 l 2,2,3
 794 216 794 216 901.5 332 c 128,-1,4
 1009 448 1009 448 1009 671 c 0,5,6
 1009 909 1009 909 898 1017.5 c 128,-1,7
 787 1126 787 1126 553 1126 c 2,8,-1
 432 1126 l 1,0,-1
144 0 m 1,9,-1
 144 1336 l 1,10,-1
 542 1336 l 2,11,12
 713 1336 713 1336 849.5 1296 c 128,-1,13
 986 1256 986 1256 1086.5 1176.5 c 128,-1,14
 1187 1097 1187 1097 1241.5 970 c 128,-1,15
 1296 843 1296 843 1296 676 c 0,16,17
 1296 353 1296 353 1099.5 176.5 c 128,-1,18
 903 0 903 0 565 0 c 2,19,-1
 144 0 l 1,9,-1
EndSplineSet
EndUndoOperation
UndoOperation
Index: 2
Type: 1
WasModified: 0
WasOrder2: 1
Width: 1388
VWidth: 2048
LBearingChange: 0
UnicodeEnc: 0
InstructionsLength: 0
SplineSet
144 0 m 1,0,-1
 144 1336 l 1,1,-1
 542 1336 l 2,2,3
 713 1336 713 1336 849.5 1296 c 128,-1,4
 986 1256 986 1256 1086.5 1176.5 c 128,-1,5
 1187 1097 1187 1097 1241.5 970 c 128,-1,6
 1296 843 1296 843 1296 676 c 0,7,8
 1296 353 1296 353 1099.5 176.5 c 128,-1,9
 903 0 903 0 565 0 c 2,10,-1
 144 0 l 1,0,-1
432 1126 m 1,11,-1
 432 216 l 1,12,-1
 579 216 l 2,13,14
 794 216 794 216 901.5 332 c 128,-1,15
 1009 448 1009 448 1009 671 c 0,16,17
 1009 909 1009 909 898 1017.5 c 128,-1,18
 787 1126 787 1126 553 1126 c 2,19,-1
 432 1126 l 1,11,-1
EndSplineSet
EndUndoOperation
EndUndoes
Redoes
EndRedoes
EndUndoRedoHistory
Fore
SplineSet
432 1126 m 1,0,-1
 432 216 l 1,1,-1
 579 216 l 2,2,3
 794 216 794 216 901.5 332 c 128,-1,4
 1009 448 1009 448 1009 671 c 0,5,6
 1009 909 1009 909 898 1017.5 c 128,-1,7
 787 1126 787 1126 553 1126 c 2,8,-1
 432 1126 l 1,0,-1
144 0 m 1,9,-1
 144 1336 l 1,10,-1
 542 1336 l 2,11,12
 713 1336 713 1336 849.5 1296 c 128,-1,13
 986 1256 986 1256 1086.5 1176.5 c 128,-1,14
 1187 1097 1187 1097 1241.5 970 c 128,-1,15
 1296 843 1296 843 1296 676 c 0,16,17
 1296 353 1296 353 1099.5 176.5 c 128,-1,18
 903 0 903 0 565 0 c 2,19,-1
 144 0 l 1,9,-1
EndSplineSet
EndChar

StartChar: E
Encoding: 69 69 39
Width: 1076
GlyphClass: 2
Flags: W
LayerCount: 2
UndoRedoHistory
Layer: 1
Undoes
UndoOperation
Index: 0
Type: 1
WasModified: 0
WasOrder2: 1
Width: 1076
VWidth: 2048
LBearingChange: 0
UnicodeEnc: 0
InstructionsLength: 0
SplineSet
432 1126 m 1,0,-1
 432 805 l 1,1,-1
 936 805 l 1,2,-1
 936 595 l 1,3,-1
 432 595 l 1,4,-1
 432 216 l 1,5,-1
 984 216 l 1,6,-1
 967 0 l 1,7,-1
 144 0 l 1,8,-1
 144 1336 l 1,9,-1
 974 1336 l 1,10,-1
 963 1126 l 1,11,-1
 432 1126 l 1,0,-1
EndSplineSet
EndUndoOperation
UndoOperation
Index: 1
Type: 1
WasModified: 0
WasOrder2: 1
Width: 1076
VWidth: 2048
LBearingChange: 0
UnicodeEnc: 0
InstructionsLength: 0
SplineSet
432 1126 m 1,0,-1
 432 805 l 1,1,-1
 936 805 l 1,2,-1
 936 595 l 1,3,-1
 432 595 l 1,4,-1
 432 216 l 1,5,-1
 984 216 l 1,6,-1
 967 0 l 1,7,-1
 144 0 l 1,8,-1
 144 1336 l 1,9,-1
 974 1336 l 1,10,-1
 963 1126 l 1,11,-1
 432 1126 l 1,0,-1
EndSplineSet
EndUndoOperation
UndoOperation
Index: 2
Type: 1
WasModified: 0
WasOrder2: 1
Width: 1076
VWidth: 2048
LBearingChange: 0
UnicodeEnc: 0
InstructionsLength: 0
SplineSet
432 1126 m 1,0,-1
 432 805 l 1,1,-1
 936 805 l 1,2,-1
 936 595 l 1,3,-1
 432 595 l 1,4,-1
 432 216 l 1,5,-1
 984 216 l 1,6,-1
 967 0 l 1,7,-1
 144 0 l 1,8,-1
 144 1336 l 1,9,-1
 974 1336 l 1,10,-1
 963 1126 l 1,11,-1
 432 1126 l 1,0,-1
EndSplineSet
EndUndoOperation
EndUndoes
Redoes
EndRedoes
EndUndoRedoHistory
Fore
SplineSet
432 1126 m 1,0,-1
 432 805 l 1,1,-1
 936 805 l 1,2,-1
 936 595 l 1,3,-1
 432 595 l 1,4,-1
 432 216 l 1,5,-1
 984 216 l 1,6,-1
 967 0 l 1,7,-1
 144 0 l 1,8,-1
 144 1336 l 1,9,-1
 974 1336 l 1,10,-1
 963 1126 l 1,11,-1
 432 1126 l 1,0,-1
EndSplineSet
EndChar

StartChar: F
Encoding: 70 70 40
Width: 1022
GlyphClass: 2
Flags: W
LayerCount: 2
UndoRedoHistory
Layer: 1
Undoes
UndoOperation
Index: 0
Type: 1
WasModified: 0
WasOrder2: 1
Width: 1022
VWidth: 2048
LBearingChange: 0
UnicodeEnc: 0
InstructionsLength: 0
SplineSet
432 1116 m 1,0,-1
 432 765 l 1,1,-1
 928 765 l 1,2,-1
 928 556 l 1,3,-1
 432 556 l 1,4,-1
 432 0 l 1,5,-1
 144 0 l 1,6,-1
 144 1336 l 1,7,-1
 973 1336 l 1,8,-1
 961 1116 l 1,9,-1
 432 1116 l 1,0,-1
EndSplineSet
EndUndoOperation
UndoOperation
Index: 1
Type: 1
WasModified: 0
WasOrder2: 1
Width: 1022
VWidth: 2048
LBearingChange: 0
UnicodeEnc: 0
InstructionsLength: 0
SplineSet
432 1116 m 1,0,-1
 432 765 l 1,1,-1
 928 765 l 1,2,-1
 928 556 l 1,3,-1
 432 556 l 1,4,-1
 432 0 l 1,5,-1
 144 0 l 1,6,-1
 144 1336 l 1,7,-1
 973 1336 l 1,8,-1
 961 1116 l 1,9,-1
 432 1116 l 1,0,-1
EndSplineSet
EndUndoOperation
UndoOperation
Index: 2
Type: 1
WasModified: 0
WasOrder2: 1
Width: 1022
VWidth: 2048
LBearingChange: 0
UnicodeEnc: 0
InstructionsLength: 0
SplineSet
432 1116 m 1,0,-1
 432 765 l 1,1,-1
 928 765 l 1,2,-1
 928 556 l 1,3,-1
 432 556 l 1,4,-1
 432 0 l 1,5,-1
 144 0 l 1,6,-1
 144 1336 l 1,7,-1
 973 1336 l 1,8,-1
 961 1116 l 1,9,-1
 432 1116 l 1,0,-1
EndSplineSet
EndUndoOperation
EndUndoes
Redoes
EndRedoes
EndUndoRedoHistory
Fore
SplineSet
432 1116 m 1,0,-1
 432 765 l 1,1,-1
 928 765 l 1,2,-1
 928 556 l 1,3,-1
 432 556 l 1,4,-1
 432 0 l 1,5,-1
 144 0 l 1,6,-1
 144 1336 l 1,7,-1
 973 1336 l 1,8,-1
 961 1116 l 1,9,-1
 432 1116 l 1,0,-1
EndSplineSet
EndChar

StartChar: G
Encoding: 71 71 41
Width: 1309
GlyphClass: 2
Flags: W
LayerCount: 2
UndoRedoHistory
Layer: 1
Undoes
UndoOperation
Index: 0
Type: 1
WasModified: 0
WasOrder2: 1
Width: 1309
VWidth: 2048
LBearingChange: 0
UnicodeEnc: 0
InstructionsLength: 0
SplineSet
738 -16 m 0,0,1
 438 -16 438 -16 265 169 c 128,-1,2
 92 354 92 354 92 672 c 0,3,4
 92 996 92 996 269.5 1177.5 c 128,-1,5
 447 1359 447 1359 764 1359 c 0,6,7
 971 1359 971 1359 1183 1253 c 1,8,-1
 1094 1042 l 1,9,10
 931 1122 931 1122 769 1129 c 1,11,12
 576 1136 576 1136 478 1015.5 c 128,-1,13
 380 895 380 895 380 670 c 0,14,15
 380 449 380 449 471 331 c 128,-1,16
 562 213 562 213 749 213 c 0,17,18
 866 213 866 213 954 245 c 1,19,-1
 954 519 l 1,20,-1
 685 519 l 1,21,-1
 685 727 l 1,22,-1
 1201 727 l 1,23,-1
 1201 82 l 1,24,25
 1086 31 1086 31 978.5 7.5 c 128,-1,26
 871 -16 871 -16 738 -16 c 0,0,1
EndSplineSet
EndUndoOperation
UndoOperation
Index: 1
Type: 1
WasModified: 0
WasOrder2: 1
Width: 1309
VWidth: 2048
LBearingChange: 0
UnicodeEnc: 0
InstructionsLength: 0
SplineSet
738 -16 m 0,0,1
 871 -16 871 -16 978.5 7.5 c 128,-1,2
 1086 31 1086 31 1201 82 c 1,3,-1
 1201 727 l 1,4,-1
 685 727 l 1,5,-1
 685 519 l 1,6,-1
 954 519 l 1,7,-1
 954 245 l 1,8,9
 866 213 866 213 749 213 c 0,10,11
 562 213 562 213 471 331 c 128,-1,12
 380 449 380 449 380 670 c 0,13,14
 380 895 380 895 478 1015.5 c 128,-1,15
 576 1136 576 1136 769 1129 c 1,16,17
 931 1122 931 1122 1094 1042 c 1,18,-1
 1183 1253 l 1,19,20
 971 1359 971 1359 764 1359 c 0,21,22
 447 1359 447 1359 269.5 1177.5 c 128,-1,23
 92 996 92 996 92 672 c 0,24,25
 92 354 92 354 265 169 c 128,-1,26
 438 -16 438 -16 738 -16 c 0,0,1
EndSplineSet
EndUndoOperation
UndoOperation
Index: 2
Type: 1
WasModified: 0
WasOrder2: 1
Width: 1309
VWidth: 2048
LBearingChange: 0
UnicodeEnc: 0
InstructionsLength: 0
SplineSet
738 -16 m 0,0,1
 871 -16 871 -16 978.5 7.5 c 128,-1,2
 1086 31 1086 31 1201 82 c 1,3,-1
 1201 727 l 1,4,-1
 685 727 l 1,5,-1
 685 519 l 1,6,-1
 954 519 l 1,7,-1
 954 245 l 1,8,9
 866 213 866 213 749 213 c 0,10,11
 562 213 562 213 471 331 c 128,-1,12
 380 449 380 449 380 670 c 0,13,14
 380 895 380 895 478 1015.5 c 128,-1,15
 576 1136 576 1136 769 1129 c 1,16,17
 931 1122 931 1122 1094 1042 c 1,18,-1
 1183 1253 l 1,19,20
 971 1359 971 1359 764 1359 c 0,21,22
 447 1359 447 1359 269.5 1177.5 c 128,-1,23
 92 996 92 996 92 672 c 0,24,25
 92 354 92 354 265 169 c 128,-1,26
 438 -16 438 -16 738 -16 c 0,0,1
EndSplineSet
EndUndoOperation
EndUndoes
Redoes
EndRedoes
EndUndoRedoHistory
Fore
SplineSet
738 -16 m 0,0,1
 438 -16 438 -16 265 169 c 128,-1,2
 92 354 92 354 92 672 c 0,3,4
 92 996 92 996 269.5 1177.5 c 128,-1,5
 447 1359 447 1359 764 1359 c 0,6,7
 971 1359 971 1359 1183 1253 c 1,8,-1
 1094 1042 l 1,9,10
 931 1122 931 1122 769 1129 c 1,11,12
 576 1136 576 1136 478 1015.5 c 128,-1,13
 380 895 380 895 380 670 c 0,14,15
 380 449 380 449 471 331 c 128,-1,16
 562 213 562 213 749 213 c 0,17,18
 866 213 866 213 954 245 c 1,19,-1
 954 519 l 1,20,-1
 685 519 l 1,21,-1
 685 727 l 1,22,-1
 1201 727 l 1,23,-1
 1201 82 l 1,24,25
 1086 31 1086 31 978.5 7.5 c 128,-1,26
 871 -16 871 -16 738 -16 c 0,0,1
EndSplineSet
EndChar

StartChar: H
Encoding: 72 72 42
Width: 1431
GlyphClass: 2
Flags: W
LayerCount: 2
UndoRedoHistory
Layer: 1
Undoes
UndoOperation
Index: 0
Type: 1
WasModified: 0
WasOrder2: 1
Width: 1431
VWidth: 2048
LBearingChange: 0
UnicodeEnc: 0
InstructionsLength: 0
SplineSet
432 793 m 1,0,-1
 999 793 l 1,1,-1
 999 1336 l 1,2,-1
 1287 1336 l 1,3,-1
 1287 0 l 1,4,-1
 999 0 l 1,5,-1
 999 578 l 1,6,-1
 432 578 l 1,7,-1
 432 0 l 1,8,-1
 144 0 l 1,9,-1
 144 1336 l 1,10,-1
 432 1336 l 1,11,-1
 432 793 l 1,0,-1
EndSplineSet
EndUndoOperation
UndoOperation
Index: 1
Type: 1
WasModified: 0
WasOrder2: 1
Width: 1431
VWidth: 2048
LBearingChange: 0
UnicodeEnc: 0
InstructionsLength: 0
SplineSet
432 793 m 1,0,-1
 432 1336 l 1,1,-1
 144 1336 l 1,2,-1
 144 0 l 1,3,-1
 432 0 l 1,4,-1
 432 578 l 1,5,-1
 999 578 l 1,6,-1
 999 0 l 1,7,-1
 1287 0 l 1,8,-1
 1287 1336 l 1,9,-1
 999 1336 l 1,10,-1
 999 793 l 1,11,-1
 432 793 l 1,0,-1
EndSplineSet
EndUndoOperation
UndoOperation
Index: 2
Type: 1
WasModified: 0
WasOrder2: 1
Width: 1431
VWidth: 2048
LBearingChange: 0
UnicodeEnc: 0
InstructionsLength: 0
SplineSet
432 793 m 1,0,-1
 432 1336 l 1,1,-1
 144 1336 l 1,2,-1
 144 0 l 1,3,-1
 432 0 l 1,4,-1
 432 578 l 1,5,-1
 999 578 l 1,6,-1
 999 0 l 1,7,-1
 1287 0 l 1,8,-1
 1287 1336 l 1,9,-1
 999 1336 l 1,10,-1
 999 793 l 1,11,-1
 432 793 l 1,0,-1
EndSplineSet
EndUndoOperation
EndUndoes
Redoes
EndRedoes
EndUndoRedoHistory
Fore
SplineSet
432 793 m 1,0,-1
 999 793 l 1,1,-1
 999 1336 l 1,2,-1
 1287 1336 l 1,3,-1
 1287 0 l 1,4,-1
 999 0 l 1,5,-1
 999 578 l 1,6,-1
 432 578 l 1,7,-1
 432 0 l 1,8,-1
 144 0 l 1,9,-1
 144 1336 l 1,10,-1
 432 1336 l 1,11,-1
 432 793 l 1,0,-1
EndSplineSet
EndChar

StartChar: I
Encoding: 73 73 43
Width: 576
GlyphClass: 2
Flags: W
LayerCount: 2
UndoRedoHistory
Layer: 1
Undoes
UndoOperation
Index: 0
Type: 1
WasModified: 0
WasOrder2: 1
Width: 576
VWidth: 2048
LBearingChange: 0
UnicodeEnc: 0
InstructionsLength: 0
SplineSet
144 0 m 1,0,-1
 144 1336 l 1,1,-1
 432 1336 l 1,2,-1
 432 0 l 1,3,-1
 144 0 l 1,0,-1
EndSplineSet
EndUndoOperation
UndoOperation
Index: 1
Type: 1
WasModified: 0
WasOrder2: 1
Width: 576
VWidth: 2048
LBearingChange: 0
UnicodeEnc: 0
InstructionsLength: 0
SplineSet
144 0 m 1,0,-1
 144 1336 l 1,1,-1
 432 1336 l 1,2,-1
 432 0 l 1,3,-1
 144 0 l 1,0,-1
EndSplineSet
EndUndoOperation
UndoOperation
Index: 2
Type: 1
WasModified: 0
WasOrder2: 1
Width: 576
VWidth: 2048
LBearingChange: 0
UnicodeEnc: 0
InstructionsLength: 0
SplineSet
144 0 m 1,0,-1
 144 1336 l 1,1,-1
 432 1336 l 1,2,-1
 432 0 l 1,3,-1
 144 0 l 1,0,-1
EndSplineSet
EndUndoOperation
EndUndoes
Redoes
EndRedoes
EndUndoRedoHistory
Fore
SplineSet
144 0 m 1,0,-1
 144 1336 l 1,1,-1
 432 1336 l 1,2,-1
 432 0 l 1,3,-1
 144 0 l 1,0,-1
EndSplineSet
EndChar

StartChar: J
Encoding: 74 74 44
Width: 676
GlyphClass: 2
Flags: W
LayerCount: 2
UndoRedoHistory
Layer: 1
Undoes
UndoOperation
Index: 0
Type: 1
WasModified: 0
WasOrder2: 1
Width: 676
VWidth: 2048
LBearingChange: 0
UnicodeEnc: 0
InstructionsLength: 0
SplineSet
-6 -285 m 1,0,1
 -18 -75 l 1,2,3
 121 -70 121 -70 182.5 -25.5 c 128,-1,4
 244 19 244 19 244 126 c 2,5,-1
 244 1336 l 1,6,-1
 532 1336 l 1,7,-1
 532 144 l 2,8,9
 532 -76 532 -76 400 -179.5 c 128,-1,10
 268 -283 268 -283 -6 -285 c 1,0,1
EndSplineSet
EndUndoOperation
UndoOperation
Index: 1
Type: 1
WasModified: 0
WasOrder2: 1
Width: 676
VWidth: 2048
LBearingChange: 0
UnicodeEnc: 0
InstructionsLength: 0
SplineSet
-6 -285 m 1,0,1
 268 -283 268 -283 400 -179.5 c 128,-1,2
 532 -76 532 -76 532 144 c 2,3,-1
 532 1336 l 1,4,-1
 244 1336 l 1,5,-1
 244 126 l 2,6,7
 244 19 244 19 182.5 -25.5 c 128,-1,8
 121 -70 121 -70 -18 -75 c 1,9,-1
 -6 -285 l 1,0,1
EndSplineSet
EndUndoOperation
UndoOperation
Index: 2
Type: 1
WasModified: 0
WasOrder2: 1
Width: 676
VWidth: 2048
LBearingChange: 0
UnicodeEnc: 0
InstructionsLength: 0
SplineSet
-6 -285 m 1,0,1
 268 -283 268 -283 400 -179.5 c 128,-1,2
 532 -76 532 -76 532 144 c 2,3,-1
 532 1336 l 1,4,-1
 244 1336 l 1,5,-1
 244 126 l 2,6,7
 244 19 244 19 182.5 -25.5 c 128,-1,8
 121 -70 121 -70 -18 -75 c 1,9,-1
 -6 -285 l 1,0,1
EndSplineSet
EndUndoOperation
EndUndoes
Redoes
EndRedoes
EndUndoRedoHistory
Fore
SplineSet
-6 -285 m 1,0,1
 -18 -75 l 1,2,3
 121 -70 121 -70 182.5 -25.5 c 128,-1,4
 244 19 244 19 244 126 c 2,5,-1
 244 1336 l 1,6,-1
 532 1336 l 1,7,-1
 532 144 l 2,8,9
 532 -76 532 -76 400 -179.5 c 128,-1,10
 268 -283 268 -283 -6 -285 c 1,0,1
EndSplineSet
EndChar

StartChar: K
Encoding: 75 75 45
Width: 1247
GlyphClass: 2
Flags: W
LayerCount: 2
UndoRedoHistory
Layer: 1
Undoes
UndoOperation
Index: 0
Type: 1
WasModified: 0
WasOrder2: 1
Width: 1247
VWidth: 2048
LBearingChange: 0
UnicodeEnc: 0
InstructionsLength: 0
SplineSet
900 1336 m 1,0,-1
 1232 1336 l 1,1,-1
 740 732 l 1,2,-1
 1242 0 l 1,3,-1
 916 0 l 1,4,-1
 503 611 l 1,5,-1
 432 537 l 1,6,-1
 432 0 l 1,7,-1
 144 0 l 1,8,-1
 144 1336 l 1,9,-1
 432 1336 l 1,10,-1
 432 775 l 1,11,-1
 900 1336 l 1,0,-1
EndSplineSet
EndUndoOperation
UndoOperation
Index: 1
Type: 1
WasModified: 0
WasOrder2: 1
Width: 1247
VWidth: 2048
LBearingChange: 0
UnicodeEnc: 0
InstructionsLength: 0
SplineSet
900 1336 m 1,0,-1
 1232 1336 l 1,1,-1
 740 732 l 1,2,-1
 1242 0 l 1,3,-1
 916 0 l 1,4,-1
 503 611 l 1,5,-1
 432 537 l 1,6,-1
 432 0 l 1,7,-1
 144 0 l 1,8,-1
 144 1336 l 1,9,-1
 432 1336 l 1,10,-1
 432 775 l 1,11,-1
 900 1336 l 1,0,-1
EndSplineSet
EndUndoOperation
UndoOperation
Index: 2
Type: 1
WasModified: 0
WasOrder2: 1
Width: 1247
VWidth: 2048
LBearingChange: 0
UnicodeEnc: 0
InstructionsLength: 0
SplineSet
900 1336 m 1,0,-1
 1232 1336 l 1,1,-1
 740 732 l 1,2,-1
 1242 0 l 1,3,-1
 916 0 l 1,4,-1
 503 611 l 1,5,-1
 432 537 l 1,6,-1
 432 0 l 1,7,-1
 144 0 l 1,8,-1
 144 1336 l 1,9,-1
 432 1336 l 1,10,-1
 432 775 l 1,11,-1
 900 1336 l 1,0,-1
EndSplineSet
EndUndoOperation
EndUndoes
Redoes
EndRedoes
EndUndoRedoHistory
Fore
SplineSet
900 1336 m 1,0,-1
 1232 1336 l 1,1,-1
 740 732 l 1,2,-1
 1242 0 l 1,3,-1
 916 0 l 1,4,-1
 503 611 l 1,5,-1
 432 537 l 1,6,-1
 432 0 l 1,7,-1
 144 0 l 1,8,-1
 144 1336 l 1,9,-1
 432 1336 l 1,10,-1
 432 775 l 1,11,-1
 900 1336 l 1,0,-1
EndSplineSet
EndChar

StartChar: L
Encoding: 76 76 46
Width: 1062
GlyphClass: 2
Flags: W
LayerCount: 2
UndoRedoHistory
Layer: 1
Undoes
UndoOperation
Index: 0
Type: 1
WasModified: 0
WasOrder2: 1
Width: 1062
VWidth: 2048
LBearingChange: 0
UnicodeEnc: 0
InstructionsLength: 0
SplineSet
965 216 m 1,0,-1
 951 0 l 1,1,-1
 144 0 l 1,2,-1
 144 1336 l 1,3,-1
 432 1336 l 1,4,-1
 432 216 l 1,5,-1
 965 216 l 1,0,-1
EndSplineSet
EndUndoOperation
UndoOperation
Index: 1
Type: 1
WasModified: 0
WasOrder2: 1
Width: 1062
VWidth: 2048
LBearingChange: 0
UnicodeEnc: 0
InstructionsLength: 0
SplineSet
965 216 m 1,0,-1
 951 0 l 1,1,-1
 144 0 l 1,2,-1
 144 1336 l 1,3,-1
 432 1336 l 1,4,-1
 432 216 l 1,5,-1
 965 216 l 1,0,-1
EndSplineSet
EndUndoOperation
UndoOperation
Index: 2
Type: 1
WasModified: 0
WasOrder2: 1
Width: 1062
VWidth: 2048
LBearingChange: 0
UnicodeEnc: 0
InstructionsLength: 0
SplineSet
965 216 m 1,0,-1
 951 0 l 1,1,-1
 144 0 l 1,2,-1
 144 1336 l 1,3,-1
 432 1336 l 1,4,-1
 432 216 l 1,5,-1
 965 216 l 1,0,-1
EndSplineSet
EndUndoOperation
EndUndoes
Redoes
EndRedoes
EndUndoRedoHistory
Fore
SplineSet
965 216 m 1,0,-1
 951 0 l 1,1,-1
 144 0 l 1,2,-1
 144 1336 l 1,3,-1
 432 1336 l 1,4,-1
 432 216 l 1,5,-1
 965 216 l 1,0,-1
EndSplineSet
EndChar

StartChar: M
Encoding: 77 77 47
Width: 1632
GlyphClass: 2
Flags: W
LayerCount: 2
UndoRedoHistory
Layer: 1
Undoes
UndoOperation
Index: 0
Type: 1
WasModified: 0
WasOrder2: 1
Width: 1632
VWidth: 2048
LBearingChange: 0
UnicodeEnc: 0
InstructionsLength: 0
SplineSet
1207 1336 m 1,0,-1
 1488 1336 l 1,1,-1
 1488 0 l 1,2,-1
 1222 0 l 1,3,-1
 1222 487 l 1,4,-1
 1237 880 l 1,5,-1
 912 136 l 1,6,-1
 711 136 l 1,7,-1
 395 886 l 1,8,-1
 410 484 l 1,9,-1
 410 0 l 1,10,-1
 144 0 l 1,11,-1
 144 1336 l 1,12,-1
 430 1336 l 1,13,-1
 816 421 l 1,14,-1
 1207 1336 l 1,0,-1
EndSplineSet
EndUndoOperation
UndoOperation
Index: 1
Type: 1
WasModified: 0
WasOrder2: 1
Width: 1632
VWidth: 2048
LBearingChange: 0
UnicodeEnc: 0
InstructionsLength: 0
SplineSet
1207 1336 m 1,0,-1
 1488 1336 l 1,1,-1
 1488 0 l 1,2,-1
 1222 0 l 1,3,-1
 1222 487 l 1,4,-1
 1237 880 l 1,5,-1
 912 136 l 1,6,-1
 711 136 l 1,7,-1
 395 886 l 1,8,-1
 410 484 l 1,9,-1
 410 0 l 1,10,-1
 144 0 l 1,11,-1
 144 1336 l 1,12,-1
 430 1336 l 1,13,-1
 816 421 l 1,14,-1
 1207 1336 l 1,0,-1
EndSplineSet
EndUndoOperation
UndoOperation
Index: 2
Type: 1
WasModified: 0
WasOrder2: 1
Width: 1632
VWidth: 2048
LBearingChange: 0
UnicodeEnc: 0
InstructionsLength: 0
SplineSet
1207 1336 m 1,0,-1
 1488 1336 l 1,1,-1
 1488 0 l 1,2,-1
 1222 0 l 1,3,-1
 1222 487 l 1,4,-1
 1237 880 l 1,5,-1
 912 136 l 1,6,-1
 711 136 l 1,7,-1
 395 886 l 1,8,-1
 410 484 l 1,9,-1
 410 0 l 1,10,-1
 144 0 l 1,11,-1
 144 1336 l 1,12,-1
 430 1336 l 1,13,-1
 816 421 l 1,14,-1
 1207 1336 l 1,0,-1
EndSplineSet
EndUndoOperation
EndUndoes
Redoes
EndRedoes
EndUndoRedoHistory
Fore
SplineSet
1207 1336 m 1,0,-1
 1488 1336 l 1,1,-1
 1488 0 l 1,2,-1
 1222 0 l 1,3,-1
 1222 487 l 1,4,-1
 1237 880 l 1,5,-1
 912 136 l 1,6,-1
 711 136 l 1,7,-1
 395 886 l 1,8,-1
 410 484 l 1,9,-1
 410 0 l 1,10,-1
 144 0 l 1,11,-1
 144 1336 l 1,12,-1
 430 1336 l 1,13,-1
 816 421 l 1,14,-1
 1207 1336 l 1,0,-1
EndSplineSet
EndChar

StartChar: N
Encoding: 78 78 48
Width: 1425
GlyphClass: 2
Flags: W
LayerCount: 2
UndoRedoHistory
Layer: 1
Undoes
UndoOperation
Index: 0
Type: 1
WasModified: 0
WasOrder2: 1
Width: 1425
VWidth: 2048
LBearingChange: 0
UnicodeEnc: 0
InstructionsLength: 0
SplineSet
1029 350 m 1,0,1
 1010 787 1010 787 1010 795 c 2,2,-1
 1010 1336 l 1,3,-1
 1281 1336 l 1,4,-1
 1281 0 l 1,5,-1
 978 0 l 1,6,-1
 393 961 l 1,7,8
 421 430 421 430 421 409 c 2,9,-1
 421 0 l 1,10,-1
 144 0 l 1,11,-1
 144 1336 l 1,12,-1
 436 1336 l 1,13,-1
 1029 350 l 1,0,1
EndSplineSet
EndUndoOperation
UndoOperation
Index: 1
Type: 1
WasModified: 0
WasOrder2: 1
Width: 1425
VWidth: 2048
LBearingChange: 0
UnicodeEnc: 0
InstructionsLength: 0
SplineSet
1029 350 m 1,0,1
 1010 787 1010 787 1010 795 c 2,2,-1
 1010 1336 l 1,3,-1
 1281 1336 l 1,4,-1
 1281 0 l 1,5,-1
 978 0 l 1,6,-1
 393 961 l 1,7,8
 421 430 421 430 421 409 c 2,9,-1
 421 0 l 1,10,-1
 144 0 l 1,11,-1
 144 1336 l 1,12,-1
 436 1336 l 1,13,-1
 1029 350 l 1,0,1
EndSplineSet
EndUndoOperation
UndoOperation
Index: 2
Type: 1
WasModified: 0
WasOrder2: 1
Width: 1425
VWidth: 2048
LBearingChange: 0
UnicodeEnc: 0
InstructionsLength: 0
SplineSet
1029 350 m 1,0,1
 1010 787 1010 787 1010 795 c 2,2,-1
 1010 1336 l 1,3,-1
 1281 1336 l 1,4,-1
 1281 0 l 1,5,-1
 978 0 l 1,6,-1
 393 961 l 1,7,8
 421 430 421 430 421 409 c 2,9,-1
 421 0 l 1,10,-1
 144 0 l 1,11,-1
 144 1336 l 1,12,-1
 436 1336 l 1,13,-1
 1029 350 l 1,0,1
EndSplineSet
EndUndoOperation
EndUndoes
Redoes
EndRedoes
EndUndoRedoHistory
Fore
SplineSet
1029 350 m 1,0,1
 1010 787 1010 787 1010 795 c 2,2,-1
 1010 1336 l 1,3,-1
 1281 1336 l 1,4,-1
 1281 0 l 1,5,-1
 978 0 l 1,6,-1
 393 961 l 1,7,8
 421 430 421 430 421 409 c 2,9,-1
 421 0 l 1,10,-1
 144 0 l 1,11,-1
 144 1336 l 1,12,-1
 436 1336 l 1,13,-1
 1029 350 l 1,0,1
EndSplineSet
EndChar

StartChar: O
Encoding: 79 79 49
Width: 1502
GlyphClass: 2
Flags: W
LayerCount: 2
UndoRedoHistory
Layer: 1
Undoes
UndoOperation
Index: 0
Type: 1
WasModified: 0
WasOrder2: 1
Width: 1502
VWidth: 2048
LBearingChange: 0
UnicodeEnc: 0
InstructionsLength: 0
SplineSet
1410 671 m 0,0,1
 1410 353 1410 353 1228.5 168.5 c 128,-1,2
 1047 -16 1047 -16 749 -16 c 128,-1,3
 451 -16 451 -16 271.5 167.5 c 128,-1,4
 92 351 92 351 92 671 c 0,5,6
 92 993 92 993 272 1176 c 128,-1,7
 452 1359 452 1359 750 1359 c 0,8,9
 896 1359 896 1359 1018 1312 c 128,-1,10
 1140 1265 1140 1265 1227 1178 c 128,-1,11
 1314 1091 1314 1091 1362 961 c 128,-1,12
 1410 831 1410 831 1410 671 c 0,0,1
750 212 m 128,-1,14
 920 212 920 212 1021 337 c 128,-1,15
 1122 462 1122 462 1122 669 c 0,16,17
 1122 878 1122 878 1021 1003.5 c 128,-1,18
 920 1129 920 1129 751 1129 c 0,19,20
 581 1129 581 1129 480.5 1004 c 128,-1,21
 380 879 380 879 380 669 c 0,22,23
 380 462 380 462 480 337 c 128,-1,13
 580 212 580 212 750 212 c 128,-1,14
EndSplineSet
EndUndoOperation
UndoOperation
Index: 1
Type: 1
WasModified: 0
WasOrder2: 1
Width: 1502
VWidth: 2048
LBearingChange: 0
UnicodeEnc: 0
InstructionsLength: 0
SplineSet
1410 671 m 0,0,1
 1410 831 1410 831 1362 961 c 128,-1,2
 1314 1091 1314 1091 1227 1178 c 128,-1,3
 1140 1265 1140 1265 1018 1312 c 128,-1,4
 896 1359 896 1359 750 1359 c 0,5,6
 452 1359 452 1359 272 1176 c 128,-1,7
 92 993 92 993 92 671 c 0,8,9
 92 351 92 351 271.5 167.5 c 128,-1,10
 451 -16 451 -16 749 -16 c 128,-1,11
 1047 -16 1047 -16 1228.5 168.5 c 128,-1,12
 1410 353 1410 353 1410 671 c 0,0,1
750 212 m 128,-1,14
 580 212 580 212 480 337 c 128,-1,15
 380 462 380 462 380 669 c 0,16,17
 380 879 380 879 480.5 1004 c 128,-1,18
 581 1129 581 1129 751 1129 c 0,19,20
 920 1129 920 1129 1021 1003.5 c 128,-1,21
 1122 878 1122 878 1122 669 c 0,22,23
 1122 462 1122 462 1021 337 c 128,-1,13
 920 212 920 212 750 212 c 128,-1,14
EndSplineSet
EndUndoOperation
UndoOperation
Index: 2
Type: 1
WasModified: 0
WasOrder2: 1
Width: 1502
VWidth: 2048
LBearingChange: 0
UnicodeEnc: 0
InstructionsLength: 0
SplineSet
750 212 m 128,-1,1
 580 212 580 212 480 337 c 128,-1,2
 380 462 380 462 380 669 c 0,3,4
 380 879 380 879 480.5 1004 c 128,-1,5
 581 1129 581 1129 751 1129 c 0,6,7
 920 1129 920 1129 1021 1003.5 c 128,-1,8
 1122 878 1122 878 1122 669 c 0,9,10
 1122 462 1122 462 1021 337 c 128,-1,0
 920 212 920 212 750 212 c 128,-1,1
1410 671 m 0,11,12
 1410 831 1410 831 1362 961 c 128,-1,13
 1314 1091 1314 1091 1227 1178 c 128,-1,14
 1140 1265 1140 1265 1018 1312 c 128,-1,15
 896 1359 896 1359 750 1359 c 0,16,17
 452 1359 452 1359 272 1176 c 128,-1,18
 92 993 92 993 92 671 c 0,19,20
 92 351 92 351 271.5 167.5 c 128,-1,21
 451 -16 451 -16 749 -16 c 128,-1,22
 1047 -16 1047 -16 1228.5 168.5 c 128,-1,23
 1410 353 1410 353 1410 671 c 0,11,12
EndSplineSet
EndUndoOperation
EndUndoes
Redoes
EndRedoes
EndUndoRedoHistory
Fore
SplineSet
1410 671 m 0,0,1
 1410 353 1410 353 1228.5 168.5 c 128,-1,2
 1047 -16 1047 -16 749 -16 c 128,-1,3
 451 -16 451 -16 271.5 167.5 c 128,-1,4
 92 351 92 351 92 671 c 0,5,6
 92 993 92 993 272 1176 c 128,-1,7
 452 1359 452 1359 750 1359 c 0,8,9
 896 1359 896 1359 1018 1312 c 128,-1,10
 1140 1265 1140 1265 1227 1178 c 128,-1,11
 1314 1091 1314 1091 1362 961 c 128,-1,12
 1410 831 1410 831 1410 671 c 0,0,1
750 212 m 128,-1,14
 920 212 920 212 1021 337 c 128,-1,15
 1122 462 1122 462 1122 669 c 0,16,17
 1122 878 1122 878 1021 1003.5 c 128,-1,18
 920 1129 920 1129 751 1129 c 0,19,20
 581 1129 581 1129 480.5 1004 c 128,-1,21
 380 879 380 879 380 669 c 0,22,23
 380 462 380 462 480 337 c 128,-1,13
 580 212 580 212 750 212 c 128,-1,14
EndSplineSet
EndChar

StartChar: P
Encoding: 80 80 50
Width: 1184
GlyphClass: 2
Flags: W
LayerCount: 2
UndoRedoHistory
Layer: 1
Undoes
UndoOperation
Index: 0
Type: 1
WasModified: 0
WasOrder2: 1
Width: 1184
VWidth: 2048
LBearingChange: 0
UnicodeEnc: 0
InstructionsLength: 0
SplineSet
144 0 m 1,0,-1
 144 1336 l 1,1,-1
 615 1336 l 2,2,3
 850 1336 850 1336 993 1230.5 c 128,-1,4
 1136 1125 1136 1125 1136 919 c 0,5,6
 1136 824 1136 824 1108.5 748 c 128,-1,7
 1081 672 1081 672 1022 610.5 c 128,-1,8
 963 549 963 549 859.5 515.5 c 128,-1,9
 756 482 756 482 615 482 c 0,10,11
 510 482 510 482 432 489 c 1,12,-1
 432 0 l 1,13,-1
 144 0 l 1,0,-1
589 677 m 0,14,15
 648 677 648 677 693 686 c 128,-1,16
 738 695 738 695 765.5 713 c 128,-1,17
 793 731 793 731 810.5 751 c 128,-1,18
 828 771 828 771 835.5 801 c 128,-1,19
 843 831 843 831 845.5 854 c 128,-1,20
 848 877 848 877 848 911 c 0,21,22
 848 1019 848 1019 791.5 1072.5 c 128,-1,23
 735 1126 735 1126 616 1126 c 2,24,-1
 432 1126 l 1,25,-1
 432 678 l 1,26,27
 460 677 460 677 589 677 c 0,14,15
EndSplineSet
EndUndoOperation
UndoOperation
Index: 1
Type: 1
WasModified: 0
WasOrder2: 1
Width: 1184
VWidth: 2048
LBearingChange: 0
UnicodeEnc: 0
InstructionsLength: 0
SplineSet
144 0 m 1,0,-1
 144 1336 l 1,1,-1
 615 1336 l 2,2,3
 850 1336 850 1336 993 1230.5 c 128,-1,4
 1136 1125 1136 1125 1136 919 c 0,5,6
 1136 824 1136 824 1108.5 748 c 128,-1,7
 1081 672 1081 672 1022 610.5 c 128,-1,8
 963 549 963 549 859.5 515.5 c 128,-1,9
 756 482 756 482 615 482 c 0,10,11
 510 482 510 482 432 489 c 1,12,-1
 432 0 l 1,13,-1
 144 0 l 1,0,-1
589 677 m 0,14,15
 648 677 648 677 693 686 c 128,-1,16
 738 695 738 695 765.5 713 c 128,-1,17
 793 731 793 731 810.5 751 c 128,-1,18
 828 771 828 771 835.5 801 c 128,-1,19
 843 831 843 831 845.5 854 c 128,-1,20
 848 877 848 877 848 911 c 0,21,22
 848 1019 848 1019 791.5 1072.5 c 128,-1,23
 735 1126 735 1126 616 1126 c 2,24,-1
 432 1126 l 1,25,-1
 432 678 l 1,26,27
 460 677 460 677 589 677 c 0,14,15
EndSplineSet
EndUndoOperation
UndoOperation
Index: 2
Type: 1
WasModified: 0
WasOrder2: 1
Width: 1184
VWidth: 2048
LBearingChange: 0
UnicodeEnc: 0
InstructionsLength: 0
SplineSet
589 677 m 0,0,1
 648 677 648 677 693 686 c 128,-1,2
 738 695 738 695 765.5 713 c 128,-1,3
 793 731 793 731 810.5 751 c 128,-1,4
 828 771 828 771 835.5 801 c 128,-1,5
 843 831 843 831 845.5 854 c 128,-1,6
 848 877 848 877 848 911 c 0,7,8
 848 1019 848 1019 791.5 1072.5 c 128,-1,9
 735 1126 735 1126 616 1126 c 2,10,-1
 432 1126 l 1,11,-1
 432 678 l 1,12,13
 460 677 460 677 589 677 c 0,0,1
144 0 m 1,14,-1
 144 1336 l 1,15,-1
 615 1336 l 2,16,17
 850 1336 850 1336 993 1230.5 c 128,-1,18
 1136 1125 1136 1125 1136 919 c 0,19,20
 1136 824 1136 824 1108.5 748 c 128,-1,21
 1081 672 1081 672 1022 610.5 c 128,-1,22
 963 549 963 549 859.5 515.5 c 128,-1,23
 756 482 756 482 615 482 c 0,24,25
 510 482 510 482 432 489 c 1,26,-1
 432 0 l 1,27,-1
 144 0 l 1,14,-1
EndSplineSet
EndUndoOperation
EndUndoes
Redoes
EndRedoes
EndUndoRedoHistory
Fore
SplineSet
144 0 m 1,0,-1
 144 1336 l 1,1,-1
 615 1336 l 2,2,3
 850 1336 850 1336 993 1230.5 c 128,-1,4
 1136 1125 1136 1125 1136 919 c 0,5,6
 1136 824 1136 824 1108.5 748 c 128,-1,7
 1081 672 1081 672 1022 610.5 c 128,-1,8
 963 549 963 549 859.5 515.5 c 128,-1,9
 756 482 756 482 615 482 c 0,10,11
 510 482 510 482 432 489 c 1,12,-1
 432 0 l 1,13,-1
 144 0 l 1,0,-1
589 677 m 0,14,15
 648 677 648 677 693 686 c 128,-1,16
 738 695 738 695 765.5 713 c 128,-1,17
 793 731 793 731 810.5 751 c 128,-1,18
 828 771 828 771 835.5 801 c 128,-1,19
 843 831 843 831 845.5 854 c 128,-1,20
 848 877 848 877 848 911 c 0,21,22
 848 1019 848 1019 791.5 1072.5 c 128,-1,23
 735 1126 735 1126 616 1126 c 2,24,-1
 432 1126 l 1,25,-1
 432 678 l 1,26,27
 460 677 460 677 589 677 c 0,14,15
EndSplineSet
EndChar

StartChar: Q
Encoding: 81 81 51
Width: 1482
GlyphClass: 2
Flags: W
LayerCount: 2
UndoRedoHistory
Layer: 1
Undoes
UndoOperation
Index: 0
Type: 1
WasModified: 0
WasOrder2: 1
Width: 1482
VWidth: 2048
LBearingChange: 0
UnicodeEnc: 0
InstructionsLength: 0
SplineSet
1289 -313 m 1,0,-1
 1120 -460 l 1,1,2
 990 -368 990 -368 798 -14 c 1,3,4
 760 -16 760 -16 739 -16 c 0,5,6
 442 -16 442 -16 267 167 c 128,-1,7
 92 350 92 350 92 671 c 0,8,9
 92 994 92 994 267.5 1176 c 128,-1,10
 443 1358 443 1358 740 1358 c 128,-1,11
 1037 1358 1037 1358 1213.5 1175.5 c 128,-1,12
 1390 993 1390 993 1390 671 c 0,13,14
 1390 443 1390 443 1297 281 c 128,-1,15
 1204 119 1204 119 1037 43 c 1,16,17
 1038 41 1038 41 1058.5 6.5 c 128,-1,18
 1079 -28 1079 -28 1088 -42.5 c 128,-1,19
 1097 -57 1097 -57 1119.5 -92.5 c 128,-1,20
 1142 -128 1142 -128 1158.5 -151 c 128,-1,21
 1175 -174 1175 -174 1197.5 -205.5 c 128,-1,22
 1220 -237 1220 -237 1243 -263.5 c 128,-1,23
 1266 -290 1266 -290 1289 -313 c 1,0,-1
740 213 m 0,24,25
 921 213 921 213 1011.5 334 c 128,-1,26
 1102 455 1102 455 1102 669 c 0,27,28
 1102 885 1102 885 1011.5 1007 c 128,-1,29
 921 1129 921 1129 741 1129 c 128,-1,30
 561 1129 561 1129 470.5 1006.5 c 128,-1,31
 380 884 380 884 380 669 c 0,32,33
 380 456 380 456 470 334.5 c 128,-1,34
 560 213 560 213 740 213 c 0,24,25
EndSplineSet
EndUndoOperation
UndoOperation
Index: 1
Type: 1
WasModified: 0
WasOrder2: 1
Width: 1482
VWidth: 2048
LBearingChange: 0
UnicodeEnc: 0
InstructionsLength: 0
SplineSet
1289 -313 m 1,0,-1
 1120 -460 l 1,1,2
 990 -368 990 -368 798 -14 c 1,3,4
 760 -16 760 -16 739 -16 c 0,5,6
 442 -16 442 -16 267 167 c 128,-1,7
 92 350 92 350 92 671 c 0,8,9
 92 994 92 994 267.5 1176 c 128,-1,10
 443 1358 443 1358 740 1358 c 128,-1,11
 1037 1358 1037 1358 1213.5 1175.5 c 128,-1,12
 1390 993 1390 993 1390 671 c 0,13,14
 1390 443 1390 443 1297 281 c 128,-1,15
 1204 119 1204 119 1037 43 c 1,16,17
 1038 41 1038 41 1058.5 6.5 c 128,-1,18
 1079 -28 1079 -28 1088 -42.5 c 128,-1,19
 1097 -57 1097 -57 1119.5 -92.5 c 128,-1,20
 1142 -128 1142 -128 1158.5 -151 c 128,-1,21
 1175 -174 1175 -174 1197.5 -205.5 c 128,-1,22
 1220 -237 1220 -237 1243 -263.5 c 128,-1,23
 1266 -290 1266 -290 1289 -313 c 1,0,-1
740 213 m 0,24,25
 921 213 921 213 1011.5 334 c 128,-1,26
 1102 455 1102 455 1102 669 c 0,27,28
 1102 885 1102 885 1011.5 1007 c 128,-1,29
 921 1129 921 1129 741 1129 c 128,-1,30
 561 1129 561 1129 470.5 1006.5 c 128,-1,31
 380 884 380 884 380 669 c 0,32,33
 380 456 380 456 470 334.5 c 128,-1,34
 560 213 560 213 740 213 c 0,24,25
EndSplineSet
EndUndoOperation
UndoOperation
Index: 2
Type: 1
WasModified: 0
WasOrder2: 1
Width: 1482
VWidth: 2048
LBearingChange: 0
UnicodeEnc: 0
InstructionsLength: 0
SplineSet
740 213 m 0,0,1
 921 213 921 213 1011.5 334 c 128,-1,2
 1102 455 1102 455 1102 669 c 0,3,4
 1102 885 1102 885 1011.5 1007 c 128,-1,5
 921 1129 921 1129 741 1129 c 128,-1,6
 561 1129 561 1129 470.5 1006.5 c 128,-1,7
 380 884 380 884 380 669 c 0,8,9
 380 456 380 456 470 334.5 c 128,-1,10
 560 213 560 213 740 213 c 0,0,1
1289 -313 m 1,11,-1
 1120 -460 l 1,12,13
 990 -368 990 -368 798 -14 c 1,14,15
 760 -16 760 -16 739 -16 c 0,16,17
 442 -16 442 -16 267 167 c 128,-1,18
 92 350 92 350 92 671 c 0,19,20
 92 994 92 994 267.5 1176 c 128,-1,21
 443 1358 443 1358 740 1358 c 128,-1,22
 1037 1358 1037 1358 1213.5 1175.5 c 128,-1,23
 1390 993 1390 993 1390 671 c 0,24,25
 1390 443 1390 443 1297 281 c 128,-1,26
 1204 119 1204 119 1037 43 c 1,27,28
 1038 41 1038 41 1058.5 6.5 c 128,-1,29
 1079 -28 1079 -28 1088 -42.5 c 128,-1,30
 1097 -57 1097 -57 1119.5 -92.5 c 128,-1,31
 1142 -128 1142 -128 1158.5 -151 c 128,-1,32
 1175 -174 1175 -174 1197.5 -205.5 c 128,-1,33
 1220 -237 1220 -237 1243 -263.5 c 128,-1,34
 1266 -290 1266 -290 1289 -313 c 1,11,-1
EndSplineSet
EndUndoOperation
EndUndoes
Redoes
EndRedoes
EndUndoRedoHistory
Fore
SplineSet
1289 -313 m 1,0,-1
 1120 -460 l 1,1,2
 990 -368 990 -368 798 -14 c 1,3,4
 760 -16 760 -16 739 -16 c 0,5,6
 442 -16 442 -16 267 167 c 128,-1,7
 92 350 92 350 92 671 c 0,8,9
 92 994 92 994 267.5 1176 c 128,-1,10
 443 1358 443 1358 740 1358 c 128,-1,11
 1037 1358 1037 1358 1213.5 1175.5 c 128,-1,12
 1390 993 1390 993 1390 671 c 0,13,14
 1390 443 1390 443 1297 281 c 128,-1,15
 1204 119 1204 119 1037 43 c 1,16,17
 1038 41 1038 41 1058.5 6.5 c 128,-1,18
 1079 -28 1079 -28 1088 -42.5 c 128,-1,19
 1097 -57 1097 -57 1119.5 -92.5 c 128,-1,20
 1142 -128 1142 -128 1158.5 -151 c 128,-1,21
 1175 -174 1175 -174 1197.5 -205.5 c 128,-1,22
 1220 -237 1220 -237 1243 -263.5 c 128,-1,23
 1266 -290 1266 -290 1289 -313 c 1,0,-1
740 213 m 0,24,25
 921 213 921 213 1011.5 334 c 128,-1,26
 1102 455 1102 455 1102 669 c 0,27,28
 1102 885 1102 885 1011.5 1007 c 128,-1,29
 921 1129 921 1129 741 1129 c 128,-1,30
 561 1129 561 1129 470.5 1006.5 c 128,-1,31
 380 884 380 884 380 669 c 0,32,33
 380 456 380 456 470 334.5 c 128,-1,34
 560 213 560 213 740 213 c 0,24,25
EndSplineSet
EndChar

StartChar: R
Encoding: 82 82 52
Width: 1294
GlyphClass: 2
Flags: W
LayerCount: 2
UndoRedoHistory
Layer: 1
Undoes
UndoOperation
Index: 0
Type: 1
WasModified: 0
WasOrder2: 1
Width: 1294
VWidth: 2048
LBearingChange: 0
UnicodeEnc: 0
InstructionsLength: 0
SplineSet
666 742 m 2,0,1
 800 742 800 742 856 789.5 c 128,-1,2
 912 837 912 837 912 943 c 0,3,4
 912 1035 912 1035 855 1080.5 c 128,-1,5
 798 1126 798 1126 676 1126 c 2,6,-1
 432 1126 l 1,7,-1
 432 742 l 1,8,-1
 666 742 l 2,0,1
144 0 m 1,9,-1
 144 1336 l 1,10,-1
 663 1336 l 2,11,12
 760 1336 760 1336 837 1325.5 c 128,-1,13
 914 1315 914 1315 983.5 1288.5 c 128,-1,14
 1053 1262 1053 1262 1099.5 1218.5 c 128,-1,15
 1146 1175 1146 1175 1173 1106.5 c 128,-1,16
 1200 1038 1200 1038 1200 947 c 0,17,18
 1200 820 1200 820 1129.5 727 c 128,-1,19
 1059 634 1059 634 943 587 c 1,20,21
 983 535 983 535 1053 391 c 1,22,-1
 1250 0 l 1,23,-1
 947 0 l 1,24,-1
 784 331 l 1,25,26
 756 391 756 391 684 530 c 1,27,28
 667 531 667 531 612 531 c 2,29,-1
 432 531 l 1,30,-1
 432 0 l 1,31,-1
 144 0 l 1,9,-1
EndSplineSet
EndUndoOperation
UndoOperation
Index: 1
Type: 1
WasModified: 0
WasOrder2: 1
Width: 1294
VWidth: 2048
LBearingChange: 0
UnicodeEnc: 0
InstructionsLength: 0
SplineSet
666 742 m 2,0,1
 800 742 800 742 856 789.5 c 128,-1,2
 912 837 912 837 912 943 c 0,3,4
 912 1035 912 1035 855 1080.5 c 128,-1,5
 798 1126 798 1126 676 1126 c 2,6,-1
 432 1126 l 1,7,-1
 432 742 l 1,8,-1
 666 742 l 2,0,1
144 0 m 1,9,-1
 144 1336 l 1,10,-1
 663 1336 l 2,11,12
 760 1336 760 1336 837 1325.5 c 128,-1,13
 914 1315 914 1315 983.5 1288.5 c 128,-1,14
 1053 1262 1053 1262 1099.5 1218.5 c 128,-1,15
 1146 1175 1146 1175 1173 1106.5 c 128,-1,16
 1200 1038 1200 1038 1200 947 c 0,17,18
 1200 820 1200 820 1129.5 727 c 128,-1,19
 1059 634 1059 634 943 587 c 1,20,21
 983 535 983 535 1053 391 c 1,22,-1
 1250 0 l 1,23,-1
 947 0 l 1,24,-1
 784 331 l 1,25,26
 756 391 756 391 684 530 c 1,27,28
 667 531 667 531 612 531 c 2,29,-1
 432 531 l 1,30,-1
 432 0 l 1,31,-1
 144 0 l 1,9,-1
EndSplineSet
EndUndoOperation
UndoOperation
Index: 2
Type: 1
WasModified: 0
WasOrder2: 1
Width: 1294
VWidth: 2048
LBearingChange: 0
UnicodeEnc: 0
InstructionsLength: 0
SplineSet
144 0 m 1,0,-1
 144 1336 l 1,1,-1
 663 1336 l 2,2,3
 760 1336 760 1336 837 1325.5 c 128,-1,4
 914 1315 914 1315 983.5 1288.5 c 128,-1,5
 1053 1262 1053 1262 1099.5 1218.5 c 128,-1,6
 1146 1175 1146 1175 1173 1106.5 c 128,-1,7
 1200 1038 1200 1038 1200 947 c 0,8,9
 1200 820 1200 820 1129.5 727 c 128,-1,10
 1059 634 1059 634 943 587 c 1,11,12
 983 535 983 535 1053 391 c 1,13,-1
 1250 0 l 1,14,-1
 947 0 l 1,15,-1
 784 331 l 1,16,17
 756 391 756 391 684 530 c 1,18,19
 667 531 667 531 612 531 c 2,20,-1
 432 531 l 1,21,-1
 432 0 l 1,22,-1
 144 0 l 1,0,-1
666 742 m 2,23,24
 800 742 800 742 856 789.5 c 128,-1,25
 912 837 912 837 912 943 c 0,26,27
 912 1035 912 1035 855 1080.5 c 128,-1,28
 798 1126 798 1126 676 1126 c 2,29,-1
 432 1126 l 1,30,-1
 432 742 l 1,31,-1
 666 742 l 2,23,24
EndSplineSet
EndUndoOperation
EndUndoes
Redoes
EndRedoes
EndUndoRedoHistory
Fore
SplineSet
666 742 m 2,0,1
 800 742 800 742 856 789.5 c 128,-1,2
 912 837 912 837 912 943 c 0,3,4
 912 1035 912 1035 855 1080.5 c 128,-1,5
 798 1126 798 1126 676 1126 c 2,6,-1
 432 1126 l 1,7,-1
 432 742 l 1,8,-1
 666 742 l 2,0,1
144 0 m 1,9,-1
 144 1336 l 1,10,-1
 663 1336 l 2,11,12
 760 1336 760 1336 837 1325.5 c 128,-1,13
 914 1315 914 1315 983.5 1288.5 c 128,-1,14
 1053 1262 1053 1262 1099.5 1218.5 c 128,-1,15
 1146 1175 1146 1175 1173 1106.5 c 128,-1,16
 1200 1038 1200 1038 1200 947 c 0,17,18
 1200 820 1200 820 1129.5 727 c 128,-1,19
 1059 634 1059 634 943 587 c 1,20,21
 983 535 983 535 1053 391 c 1,22,-1
 1250 0 l 1,23,-1
 947 0 l 1,24,-1
 784 331 l 1,25,26
 756 391 756 391 684 530 c 1,27,28
 667 531 667 531 612 531 c 2,29,-1
 432 531 l 1,30,-1
 432 0 l 1,31,-1
 144 0 l 1,9,-1
EndSplineSet
EndChar

StartChar: S
Encoding: 83 83 53
Width: 1074
GlyphClass: 2
Flags: W
LayerCount: 2
UndoRedoHistory
Layer: 1
Undoes
UndoOperation
Index: 0
Type: 1
WasModified: 0
WasOrder2: 1
Width: 1074
VWidth: 2048
LBearingChange: 0
UnicodeEnc: 0
InstructionsLength: 0
SplineSet
510 -17 m 0,0,1
 248 -17 248 -17 65 87 c 1,2,-1
 148 303 l 1,3,4
 207 265 207 265 315 237.5 c 128,-1,5
 423 210 423 210 520 210 c 0,6,7
 627 210 627 210 678.5 252 c 128,-1,8
 730 294 730 294 730 385 c 0,9,10
 730 494 730 494 578 544 c 2,11,-1
 354 617 l 2,12,13
 228 658 228 658 158 747.5 c 128,-1,14
 88 837 88 837 88 975 c 0,15,16
 88 1159 88 1159 216.5 1258.5 c 128,-1,17
 345 1358 345 1358 553 1358 c 0,18,19
 796 1358 796 1358 984 1251 c 1,20,-1
 902 1035 l 1,21,22
 688 1128 688 1128 564 1128 c 0,23,24
 461 1128 461 1128 409 1093 c 128,-1,25
 357 1058 357 1058 357 980 c 0,26,27
 357 885 357 885 455 853 c 2,28,-1
 663 783 l 2,29,30
 843 723 843 723 923 631.5 c 128,-1,31
 1003 540 1003 540 1003 381 c 0,32,33
 1003 190 1003 190 868 86.5 c 128,-1,34
 733 -17 733 -17 510 -17 c 0,0,1
EndSplineSet
EndUndoOperation
UndoOperation
Index: 1
Type: 1
WasModified: 0
WasOrder2: 1
Width: 1074
VWidth: 2048
LBearingChange: 0
UnicodeEnc: 0
InstructionsLength: 0
SplineSet
510 -17 m 0,0,1
 733 -17 733 -17 868 86.5 c 128,-1,2
 1003 190 1003 190 1003 381 c 0,3,4
 1003 540 1003 540 923 631.5 c 128,-1,5
 843 723 843 723 663 783 c 2,6,-1
 455 853 l 2,7,8
 357 885 357 885 357 980 c 0,9,10
 357 1058 357 1058 409 1093 c 128,-1,11
 461 1128 461 1128 564 1128 c 0,12,13
 688 1128 688 1128 902 1035 c 1,14,-1
 984 1251 l 1,15,16
 796 1358 796 1358 553 1358 c 0,17,18
 345 1358 345 1358 216.5 1258.5 c 128,-1,19
 88 1159 88 1159 88 975 c 0,20,21
 88 837 88 837 158 747.5 c 128,-1,22
 228 658 228 658 354 617 c 2,23,-1
 578 544 l 2,24,25
 730 494 730 494 730 385 c 0,26,27
 730 294 730 294 678.5 252 c 128,-1,28
 627 210 627 210 520 210 c 0,29,30
 423 210 423 210 315 237.5 c 128,-1,31
 207 265 207 265 148 303 c 1,32,-1
 65 87 l 1,33,34
 248 -17 248 -17 510 -17 c 0,0,1
EndSplineSet
EndUndoOperation
UndoOperation
Index: 2
Type: 1
WasModified: 0
WasOrder2: 1
Width: 1074
VWidth: 2048
LBearingChange: 0
UnicodeEnc: 0
InstructionsLength: 0
SplineSet
510 -17 m 0,0,1
 733 -17 733 -17 868 86.5 c 128,-1,2
 1003 190 1003 190 1003 381 c 0,3,4
 1003 540 1003 540 923 631.5 c 128,-1,5
 843 723 843 723 663 783 c 2,6,-1
 455 853 l 2,7,8
 357 885 357 885 357 980 c 0,9,10
 357 1058 357 1058 409 1093 c 128,-1,11
 461 1128 461 1128 564 1128 c 0,12,13
 688 1128 688 1128 902 1035 c 1,14,-1
 984 1251 l 1,15,16
 796 1358 796 1358 553 1358 c 0,17,18
 345 1358 345 1358 216.5 1258.5 c 128,-1,19
 88 1159 88 1159 88 975 c 0,20,21
 88 837 88 837 158 747.5 c 128,-1,22
 228 658 228 658 354 617 c 2,23,-1
 578 544 l 2,24,25
 730 494 730 494 730 385 c 0,26,27
 730 294 730 294 678.5 252 c 128,-1,28
 627 210 627 210 520 210 c 0,29,30
 423 210 423 210 315 237.5 c 128,-1,31
 207 265 207 265 148 303 c 1,32,-1
 65 87 l 1,33,34
 248 -17 248 -17 510 -17 c 0,0,1
EndSplineSet
EndUndoOperation
EndUndoes
Redoes
EndRedoes
EndUndoRedoHistory
Fore
SplineSet
510 -17 m 0,0,1
 248 -17 248 -17 65 87 c 1,2,-1
 148 303 l 1,3,4
 207 265 207 265 315 237.5 c 128,-1,5
 423 210 423 210 520 210 c 0,6,7
 627 210 627 210 678.5 252 c 128,-1,8
 730 294 730 294 730 385 c 0,9,10
 730 494 730 494 578 544 c 2,11,-1
 354 617 l 2,12,13
 228 658 228 658 158 747.5 c 128,-1,14
 88 837 88 837 88 975 c 0,15,16
 88 1159 88 1159 216.5 1258.5 c 128,-1,17
 345 1358 345 1358 553 1358 c 0,18,19
 796 1358 796 1358 984 1251 c 1,20,-1
 902 1035 l 1,21,22
 688 1128 688 1128 564 1128 c 0,23,24
 461 1128 461 1128 409 1093 c 128,-1,25
 357 1058 357 1058 357 980 c 0,26,27
 357 885 357 885 455 853 c 2,28,-1
 663 783 l 2,29,30
 843 723 843 723 923 631.5 c 128,-1,31
 1003 540 1003 540 1003 381 c 0,32,33
 1003 190 1003 190 868 86.5 c 128,-1,34
 733 -17 733 -17 510 -17 c 0,0,1
EndSplineSet
EndChar

StartChar: T
Encoding: 84 84 54
Width: 1078
GlyphClass: 2
Flags: W
LayerCount: 2
UndoRedoHistory
Layer: 1
Undoes
UndoOperation
Index: 0
Type: 1
WasModified: 0
WasOrder2: 1
Width: 1078
VWidth: 2048
LBearingChange: 0
UnicodeEnc: 0
InstructionsLength: 0
SplineSet
1056 1336 m 1,0,-1
 1056 1126 l 1,1,-1
 685 1126 l 1,2,-1
 685 0 l 1,3,-1
 397 0 l 1,4,-1
 397 1126 l 1,5,-1
 22 1126 l 1,6,-1
 22 1336 l 1,7,-1
 1056 1336 l 1,0,-1
EndSplineSet
EndUndoOperation
UndoOperation
Index: 1
Type: 1
WasModified: 0
WasOrder2: 1
Width: 1078
VWidth: 2048
LBearingChange: 0
UnicodeEnc: 0
InstructionsLength: 0
SplineSet
1056 1336 m 1,0,-1
 1056 1126 l 1,1,-1
 685 1126 l 1,2,-1
 685 0 l 1,3,-1
 397 0 l 1,4,-1
 397 1126 l 1,5,-1
 22 1126 l 1,6,-1
 22 1336 l 1,7,-1
 1056 1336 l 1,0,-1
EndSplineSet
EndUndoOperation
UndoOperation
Index: 2
Type: 1
WasModified: 0
WasOrder2: 1
Width: 1078
VWidth: 2048
LBearingChange: 0
UnicodeEnc: 0
InstructionsLength: 0
SplineSet
1056 1336 m 1,0,-1
 1056 1126 l 1,1,-1
 685 1126 l 1,2,-1
 685 0 l 1,3,-1
 397 0 l 1,4,-1
 397 1126 l 1,5,-1
 22 1126 l 1,6,-1
 22 1336 l 1,7,-1
 1056 1336 l 1,0,-1
EndSplineSet
EndUndoOperation
EndUndoes
Redoes
EndRedoes
EndUndoRedoHistory
Fore
SplineSet
1056 1336 m 1,0,-1
 1056 1126 l 1,1,-1
 685 1126 l 1,2,-1
 685 0 l 1,3,-1
 397 0 l 1,4,-1
 397 1126 l 1,5,-1
 22 1126 l 1,6,-1
 22 1336 l 1,7,-1
 1056 1336 l 1,0,-1
EndSplineSet
EndChar

StartChar: U
Encoding: 85 85 55
Width: 1358
GlyphClass: 2
Flags: W
LayerCount: 2
UndoRedoHistory
Layer: 1
Undoes
UndoOperation
Index: 0
Type: 1
WasModified: 0
WasOrder2: 1
Width: 1358
VWidth: 2048
LBearingChange: 0
UnicodeEnc: 0
InstructionsLength: 0
SplineSet
679 -17 m 0,0,1
 418 -17 418 -17 273 115.5 c 128,-1,2
 128 248 128 248 128 485 c 2,3,-1
 128 1336 l 1,4,-1
 416 1336 l 1,5,-1
 416 504 l 2,6,7
 416 213 416 213 679 213 c 0,8,9
 814 213 814 213 878 285 c 128,-1,10
 942 357 942 357 942 505 c 2,11,-1
 942 1336 l 1,12,-1
 1230 1336 l 1,13,-1
 1230 484 l 2,14,15
 1230 249 1230 249 1084.5 116 c 128,-1,16
 939 -17 939 -17 679 -17 c 0,0,1
EndSplineSet
EndUndoOperation
UndoOperation
Index: 1
Type: 1
WasModified: 0
WasOrder2: 1
Width: 1358
VWidth: 2048
LBearingChange: 0
UnicodeEnc: 0
InstructionsLength: 0
SplineSet
679 -17 m 0,0,1
 418 -17 418 -17 273 115.5 c 128,-1,2
 128 248 128 248 128 485 c 2,3,-1
 128 1336 l 1,4,-1
 416 1336 l 1,5,-1
 416 504 l 2,6,7
 416 213 416 213 679 213 c 0,8,9
 814 213 814 213 878 285 c 128,-1,10
 942 357 942 357 942 505 c 2,11,-1
 942 1336 l 1,12,-1
 1230 1336 l 1,13,-1
 1230 484 l 2,14,15
 1230 249 1230 249 1084.5 116 c 128,-1,16
 939 -17 939 -17 679 -17 c 0,0,1
EndSplineSet
EndUndoOperation
UndoOperation
Index: 2
Type: 1
WasModified: 0
WasOrder2: 1
Width: 1358
VWidth: 2048
LBearingChange: 0
UnicodeEnc: 0
InstructionsLength: 0
SplineSet
679 -17 m 0,0,1
 418 -17 418 -17 273 115.5 c 128,-1,2
 128 248 128 248 128 485 c 2,3,-1
 128 1336 l 1,4,-1
 416 1336 l 1,5,-1
 416 504 l 2,6,7
 416 213 416 213 679 213 c 0,8,9
 814 213 814 213 878 285 c 128,-1,10
 942 357 942 357 942 505 c 2,11,-1
 942 1336 l 1,12,-1
 1230 1336 l 1,13,-1
 1230 484 l 2,14,15
 1230 249 1230 249 1084.5 116 c 128,-1,16
 939 -17 939 -17 679 -17 c 0,0,1
EndSplineSet
EndUndoOperation
EndUndoes
Redoes
EndRedoes
EndUndoRedoHistory
Fore
SplineSet
679 -17 m 0,0,1
 418 -17 418 -17 273 115.5 c 128,-1,2
 128 248 128 248 128 485 c 2,3,-1
 128 1336 l 1,4,-1
 416 1336 l 1,5,-1
 416 504 l 2,6,7
 416 213 416 213 679 213 c 0,8,9
 814 213 814 213 878 285 c 128,-1,10
 942 357 942 357 942 505 c 2,11,-1
 942 1336 l 1,12,-1
 1230 1336 l 1,13,-1
 1230 484 l 2,14,15
 1230 249 1230 249 1084.5 116 c 128,-1,16
 939 -17 939 -17 679 -17 c 0,0,1
EndSplineSet
EndChar

StartChar: V
Encoding: 86 86 56
Width: 1215
GlyphClass: 2
Flags: W
LayerCount: 2
UndoRedoHistory
Layer: 1
Undoes
UndoOperation
Index: 0
Type: 1
WasModified: 0
WasOrder2: 1
Width: 1215
VWidth: 2048
LBearingChange: 0
UnicodeEnc: 0
InstructionsLength: 0
SplineSet
775 0 m 1,0,-1
 447 0 l 1,1,-1
 12 1336 l 1,2,-1
 320 1336 l 1,3,-1
 533 607 l 1,4,-1
 615 328 l 1,5,-1
 695 608 l 1,6,-1
 897 1336 l 1,7,-1
 1203 1336 l 1,8,-1
 775 0 l 1,0,-1
EndSplineSet
EndUndoOperation
UndoOperation
Index: 1
Type: 1
WasModified: 0
WasOrder2: 1
Width: 1215
VWidth: 2048
LBearingChange: 0
UnicodeEnc: 0
InstructionsLength: 0
SplineSet
775 0 m 1,0,-1
 1203 1336 l 1,1,-1
 897 1336 l 1,2,-1
 695 608 l 1,3,-1
 615 328 l 1,4,-1
 533 607 l 1,5,-1
 320 1336 l 1,6,-1
 12 1336 l 1,7,-1
 447 0 l 1,8,-1
 775 0 l 1,0,-1
EndSplineSet
EndUndoOperation
UndoOperation
Index: 2
Type: 1
WasModified: 0
WasOrder2: 1
Width: 1215
VWidth: 2048
LBearingChange: 0
UnicodeEnc: 0
InstructionsLength: 0
SplineSet
775 0 m 1,0,-1
 1203 1336 l 1,1,-1
 897 1336 l 1,2,-1
 695 608 l 1,3,-1
 615 328 l 1,4,-1
 533 607 l 1,5,-1
 320 1336 l 1,6,-1
 12 1336 l 1,7,-1
 447 0 l 1,8,-1
 775 0 l 1,0,-1
EndSplineSet
EndUndoOperation
EndUndoes
Redoes
EndRedoes
EndUndoRedoHistory
Fore
SplineSet
775 0 m 1,0,-1
 447 0 l 1,1,-1
 12 1336 l 1,2,-1
 320 1336 l 1,3,-1
 533 607 l 1,4,-1
 615 328 l 1,5,-1
 695 608 l 1,6,-1
 897 1336 l 1,7,-1
 1203 1336 l 1,8,-1
 775 0 l 1,0,-1
EndSplineSet
EndChar

StartChar: W
Encoding: 87 87 57
Width: 1868
GlyphClass: 2
Flags: W
LayerCount: 2
UndoRedoHistory
Layer: 1
Undoes
UndoOperation
Index: 0
Type: 1
WasModified: 0
WasOrder2: 1
Width: 1868
VWidth: 2048
LBearingChange: 0
UnicodeEnc: 0
InstructionsLength: 0
SplineSet
805 1330 m 1,0,-1
 1064 1330 l 1,1,-1
 1330 373 l 1,2,-1
 1574 1336 l 1,3,-1
 1855 1336 l 1,4,-1
 1472 0 l 1,5,-1
 1200 0 l 1,6,-1
 935 963 l 1,7,-1
 649 0 l 1,8,-1
 379 0 l 1,9,-1
 13 1336 l 1,10,-1
 295 1336 l 1,11,-1
 526 376 l 1,12,-1
 805 1330 l 1,0,-1
EndSplineSet
EndUndoOperation
UndoOperation
Index: 1
Type: 1
WasModified: 0
WasOrder2: 1
Width: 1868
VWidth: 2048
LBearingChange: 0
UnicodeEnc: 0
InstructionsLength: 0
SplineSet
805 1330 m 1,0,-1
 1064 1330 l 1,1,-1
 1330 373 l 1,2,-1
 1574 1336 l 1,3,-1
 1855 1336 l 1,4,-1
 1472 0 l 1,5,-1
 1200 0 l 1,6,-1
 935 963 l 1,7,-1
 649 0 l 1,8,-1
 379 0 l 1,9,-1
 13 1336 l 1,10,-1
 295 1336 l 1,11,-1
 526 376 l 1,12,-1
 805 1330 l 1,0,-1
EndSplineSet
EndUndoOperation
UndoOperation
Index: 2
Type: 1
WasModified: 0
WasOrder2: 1
Width: 1868
VWidth: 2048
LBearingChange: 0
UnicodeEnc: 0
InstructionsLength: 0
SplineSet
805 1330 m 1,0,-1
 1064 1330 l 1,1,-1
 1330 373 l 1,2,-1
 1574 1336 l 1,3,-1
 1855 1336 l 1,4,-1
 1472 0 l 1,5,-1
 1200 0 l 1,6,-1
 935 963 l 1,7,-1
 649 0 l 1,8,-1
 379 0 l 1,9,-1
 13 1336 l 1,10,-1
 295 1336 l 1,11,-1
 526 376 l 1,12,-1
 805 1330 l 1,0,-1
EndSplineSet
EndUndoOperation
EndUndoes
Redoes
EndRedoes
EndUndoRedoHistory
Fore
SplineSet
805 1330 m 1,0,-1
 1064 1330 l 1,1,-1
 1330 373 l 1,2,-1
 1574 1336 l 1,3,-1
 1855 1336 l 1,4,-1
 1472 0 l 1,5,-1
 1200 0 l 1,6,-1
 935 963 l 1,7,-1
 649 0 l 1,8,-1
 379 0 l 1,9,-1
 13 1336 l 1,10,-1
 295 1336 l 1,11,-1
 526 376 l 1,12,-1
 805 1330 l 1,0,-1
EndSplineSet
EndChar

StartChar: X
Encoding: 88 88 58
Width: 1236
GlyphClass: 2
Flags: W
LayerCount: 2
UndoRedoHistory
Layer: 1
Undoes
UndoOperation
Index: 0
Type: 1
WasModified: 0
WasOrder2: 1
Width: 1236
VWidth: 2048
LBearingChange: 0
UnicodeEnc: 0
InstructionsLength: 0
SplineSet
778 682 m 1,0,-1
 1236 0 l 1,1,-1
 924 0 l 1,2,-1
 614 456 l 1,3,-1
 296 0 l 1,4,-1
 0 0 l 1,5,-1
 459 687 l 1,6,-1
 32 1336 l 1,7,-1
 337 1336 l 1,8,-1
 626 880 l 1,9,-1
 923 1336 l 1,10,-1
 1214 1336 l 1,11,-1
 778 682 l 1,0,-1
EndSplineSet
EndUndoOperation
UndoOperation
Index: 1
Type: 1
WasModified: 0
WasOrder2: 1
Width: 1236
VWidth: 2048
LBearingChange: 0
UnicodeEnc: 0
InstructionsLength: 0
SplineSet
778 682 m 1,0,-1
 1214 1336 l 1,1,-1
 923 1336 l 1,2,-1
 626 880 l 1,3,-1
 337 1336 l 1,4,-1
 32 1336 l 1,5,-1
 459 687 l 1,6,-1
 0 0 l 1,7,-1
 296 0 l 1,8,-1
 614 456 l 1,9,-1
 924 0 l 1,10,-1
 1236 0 l 1,11,-1
 778 682 l 1,0,-1
EndSplineSet
EndUndoOperation
UndoOperation
Index: 2
Type: 1
WasModified: 0
WasOrder2: 1
Width: 1236
VWidth: 2048
LBearingChange: 0
UnicodeEnc: 0
InstructionsLength: 0
SplineSet
778 682 m 1,0,-1
 1214 1336 l 1,1,-1
 923 1336 l 1,2,-1
 626 880 l 1,3,-1
 337 1336 l 1,4,-1
 32 1336 l 1,5,-1
 459 687 l 1,6,-1
 0 0 l 1,7,-1
 296 0 l 1,8,-1
 614 456 l 1,9,-1
 924 0 l 1,10,-1
 1236 0 l 1,11,-1
 778 682 l 1,0,-1
EndSplineSet
EndUndoOperation
EndUndoes
Redoes
EndRedoes
EndUndoRedoHistory
Fore
SplineSet
778 682 m 1,0,-1
 1236 0 l 1,1,-1
 924 0 l 1,2,-1
 614 456 l 1,3,-1
 296 0 l 1,4,-1
 0 0 l 1,5,-1
 459 687 l 1,6,-1
 32 1336 l 1,7,-1
 337 1336 l 1,8,-1
 626 880 l 1,9,-1
 923 1336 l 1,10,-1
 1214 1336 l 1,11,-1
 778 682 l 1,0,-1
EndSplineSet
EndChar

StartChar: Y
Encoding: 89 89 59
Width: 1177
GlyphClass: 2
Flags: W
LayerCount: 2
UndoRedoHistory
Layer: 1
Undoes
UndoOperation
Index: 0
Type: 1
WasModified: 0
WasOrder2: 1
Width: 1177
VWidth: 2048
LBearingChange: 0
UnicodeEnc: 0
InstructionsLength: 0
SplineSet
588 749 m 1,0,-1
 875 1336 l 1,1,-1
 1173 1336 l 1,2,-1
 729 499 l 1,3,-1
 729 0 l 1,4,-1
 447 0 l 1,5,-1
 447 495 l 1,6,-1
 4 1336 l 1,7,-1
 307 1336 l 1,8,-1
 588 749 l 1,0,-1
EndSplineSet
EndUndoOperation
UndoOperation
Index: 1
Type: 1
WasModified: 0
WasOrder2: 1
Width: 1177
VWidth: 2048
LBearingChange: 0
UnicodeEnc: 0
InstructionsLength: 0
SplineSet
588 749 m 1,0,-1
 875 1336 l 1,1,-1
 1173 1336 l 1,2,-1
 729 499 l 1,3,-1
 729 0 l 1,4,-1
 447 0 l 1,5,-1
 447 495 l 1,6,-1
 4 1336 l 1,7,-1
 307 1336 l 1,8,-1
 588 749 l 1,0,-1
EndSplineSet
EndUndoOperation
UndoOperation
Index: 2
Type: 1
WasModified: 0
WasOrder2: 1
Width: 1177
VWidth: 2048
LBearingChange: 0
UnicodeEnc: 0
InstructionsLength: 0
SplineSet
588 749 m 1,0,-1
 875 1336 l 1,1,-1
 1173 1336 l 1,2,-1
 729 499 l 1,3,-1
 729 0 l 1,4,-1
 447 0 l 1,5,-1
 447 495 l 1,6,-1
 4 1336 l 1,7,-1
 307 1336 l 1,8,-1
 588 749 l 1,0,-1
EndSplineSet
EndUndoOperation
EndUndoes
Redoes
EndRedoes
EndUndoRedoHistory
Fore
SplineSet
588 749 m 1,0,-1
 875 1336 l 1,1,-1
 1173 1336 l 1,2,-1
 729 499 l 1,3,-1
 729 0 l 1,4,-1
 447 0 l 1,5,-1
 447 495 l 1,6,-1
 4 1336 l 1,7,-1
 307 1336 l 1,8,-1
 588 749 l 1,0,-1
EndSplineSet
EndChar

StartChar: Z
Encoding: 90 90 60
Width: 1082
GlyphClass: 2
Flags: W
LayerCount: 2
UndoRedoHistory
Layer: 1
Undoes
UndoOperation
Index: 0
Type: 1
WasModified: 0
WasOrder2: 1
Width: 1082
VWidth: 2048
LBearingChange: 0
UnicodeEnc: 0
InstructionsLength: 0
SplineSet
94 1336 m 1,0,-1
 1016 1336 l 1,1,-1
 1016 1150 l 1,2,-1
 457 216 l 1,3,-1
 1025 216 l 1,4,-1
 1025 0 l 1,5,-1
 87 0 l 1,6,-1
 87 172 l 1,7,-1
 676 1126 l 1,8,-1
 94 1126 l 1,9,-1
 94 1336 l 1,0,-1
EndSplineSet
EndUndoOperation
UndoOperation
Index: 1
Type: 1
WasModified: 0
WasOrder2: 1
Width: 1082
VWidth: 2048
LBearingChange: 0
UnicodeEnc: 0
InstructionsLength: 0
SplineSet
94 1336 m 1,0,-1
 94 1126 l 1,1,-1
 676 1126 l 1,2,-1
 87 172 l 1,3,-1
 87 0 l 1,4,-1
 1025 0 l 1,5,-1
 1025 216 l 1,6,-1
 457 216 l 1,7,-1
 1016 1150 l 1,8,-1
 1016 1336 l 1,9,-1
 94 1336 l 1,0,-1
EndSplineSet
EndUndoOperation
UndoOperation
Index: 2
Type: 1
WasModified: 0
WasOrder2: 1
Width: 1082
VWidth: 2048
LBearingChange: 0
UnicodeEnc: 0
InstructionsLength: 0
SplineSet
94 1336 m 1,0,-1
 94 1126 l 1,1,-1
 676 1126 l 1,2,-1
 87 172 l 1,3,-1
 87 0 l 1,4,-1
 1025 0 l 1,5,-1
 1025 216 l 1,6,-1
 457 216 l 1,7,-1
 1016 1150 l 1,8,-1
 1016 1336 l 1,9,-1
 94 1336 l 1,0,-1
EndSplineSet
EndUndoOperation
EndUndoes
Redoes
EndRedoes
EndUndoRedoHistory
Fore
SplineSet
94 1336 m 1,0,-1
 1016 1336 l 1,1,-1
 1016 1150 l 1,2,-1
 457 216 l 1,3,-1
 1025 216 l 1,4,-1
 1025 0 l 1,5,-1
 87 0 l 1,6,-1
 87 172 l 1,7,-1
 676 1126 l 1,8,-1
 94 1126 l 1,9,-1
 94 1336 l 1,0,-1
EndSplineSet
EndChar

StartChar: bracketleft
Encoding: 91 91 61
Width: 702
GlyphClass: 2
Flags: W
LayerCount: 2
UndoRedoHistory
Layer: 1
Undoes
UndoOperation
Index: 0
Type: 1
WasModified: 0
WasOrder2: 1
Width: 702
VWidth: 2048
LBearingChange: 0
UnicodeEnc: 0
InstructionsLength: 0
SplineSet
419 1200 m 1,0,-1
 419 -56 l 1,1,-1
 606 -56 l 1,2,-1
 606 -237 l 1,3,-1
 174 -237 l 1,4,-1
 174 1380 l 1,5,-1
 606 1380 l 1,6,-1
 606 1200 l 1,7,-1
 419 1200 l 1,0,-1
EndSplineSet
EndUndoOperation
UndoOperation
Index: 1
Type: 1
WasModified: 0
WasOrder2: 1
Width: 702
VWidth: 2048
LBearingChange: 0
UnicodeEnc: 0
InstructionsLength: 0
SplineSet
419 1200 m 1,0,-1
 419 -56 l 1,1,-1
 606 -56 l 1,2,-1
 606 -237 l 1,3,-1
 174 -237 l 1,4,-1
 174 1380 l 1,5,-1
 606 1380 l 1,6,-1
 606 1200 l 1,7,-1
 419 1200 l 1,0,-1
EndSplineSet
EndUndoOperation
UndoOperation
Index: 2
Type: 1
WasModified: 0
WasOrder2: 1
Width: 702
VWidth: 2048
LBearingChange: 0
UnicodeEnc: 0
InstructionsLength: 0
SplineSet
419 1200 m 1,0,-1
 419 -56 l 1,1,-1
 606 -56 l 1,2,-1
 606 -237 l 1,3,-1
 174 -237 l 1,4,-1
 174 1380 l 1,5,-1
 606 1380 l 1,6,-1
 606 1200 l 1,7,-1
 419 1200 l 1,0,-1
EndSplineSet
EndUndoOperation
EndUndoes
Redoes
EndRedoes
EndUndoRedoHistory
Fore
SplineSet
419 1200 m 1,0,-1
 419 -56 l 1,1,-1
 606 -56 l 1,2,-1
 606 -237 l 1,3,-1
 174 -237 l 1,4,-1
 174 1380 l 1,5,-1
 606 1380 l 1,6,-1
 606 1200 l 1,7,-1
 419 1200 l 1,0,-1
EndSplineSet
EndChar

StartChar: backslash
Encoding: 92 92 62
Width: 788
GlyphClass: 2
Flags: W
LayerCount: 2
UndoRedoHistory
Layer: 1
Undoes
UndoOperation
Index: 0
Type: 1
WasModified: 0
WasOrder2: 1
Width: 788
VWidth: 2048
LBearingChange: 0
UnicodeEnc: 0
InstructionsLength: 0
SplineSet
569 -54 m 1,0,-1
 18 1339 l 1,1,-1
 244 1339 l 1,2,-1
 795 -54 l 1,3,-1
 569 -54 l 1,0,-1
EndSplineSet
EndUndoOperation
UndoOperation
Index: 1
Type: 1
WasModified: 0
WasOrder2: 1
Width: 788
VWidth: 2048
LBearingChange: 0
UnicodeEnc: 0
InstructionsLength: 0
SplineSet
569 -54 m 1,0,-1
 18 1339 l 1,1,-1
 244 1339 l 1,2,-1
 795 -54 l 1,3,-1
 569 -54 l 1,0,-1
EndSplineSet
EndUndoOperation
UndoOperation
Index: 2
Type: 1
WasModified: 0
WasOrder2: 1
Width: 788
VWidth: 2048
LBearingChange: 0
UnicodeEnc: 0
InstructionsLength: 0
SplineSet
569 -54 m 1,0,-1
 18 1339 l 1,1,-1
 244 1339 l 1,2,-1
 795 -54 l 1,3,-1
 569 -54 l 1,0,-1
EndSplineSet
EndUndoOperation
EndUndoes
Redoes
EndRedoes
EndUndoRedoHistory
Fore
SplineSet
569 -54 m 1,0,-1
 18 1339 l 1,1,-1
 244 1339 l 1,2,-1
 795 -54 l 1,3,-1
 569 -54 l 1,0,-1
EndSplineSet
EndChar

StartChar: bracketright
Encoding: 93 93 63
Width: 703
GlyphClass: 2
Flags: W
LayerCount: 2
UndoRedoHistory
Layer: 1
Undoes
UndoOperation
Index: 0
Type: 1
WasModified: 0
WasOrder2: 1
Width: 703
VWidth: 2048
LBearingChange: 0
UnicodeEnc: 0
InstructionsLength: 0
SplineSet
96 1200 m 1,0,-1
 96 1380 l 1,1,-1
 529 1380 l 1,2,-1
 529 -237 l 1,3,-1
 96 -237 l 1,4,-1
 96 -56 l 1,5,-1
 283 -56 l 1,6,-1
 283 1200 l 1,7,-1
 96 1200 l 1,0,-1
EndSplineSet
EndUndoOperation
UndoOperation
Index: 1
Type: 1
WasModified: 0
WasOrder2: 1
Width: 703
VWidth: 2048
LBearingChange: 0
UnicodeEnc: 0
InstructionsLength: 0
SplineSet
96 1200 m 1,0,-1
 96 1380 l 1,1,-1
 529 1380 l 1,2,-1
 529 -237 l 1,3,-1
 96 -237 l 1,4,-1
 96 -56 l 1,5,-1
 283 -56 l 1,6,-1
 283 1200 l 1,7,-1
 96 1200 l 1,0,-1
EndSplineSet
EndUndoOperation
UndoOperation
Index: 2
Type: 1
WasModified: 0
WasOrder2: 1
Width: 703
VWidth: 2048
LBearingChange: 0
UnicodeEnc: 0
InstructionsLength: 0
SplineSet
96 1200 m 1,0,-1
 96 1380 l 1,1,-1
 529 1380 l 1,2,-1
 529 -237 l 1,3,-1
 96 -237 l 1,4,-1
 96 -56 l 1,5,-1
 283 -56 l 1,6,-1
 283 1200 l 1,7,-1
 96 1200 l 1,0,-1
EndSplineSet
EndUndoOperation
EndUndoes
Redoes
EndRedoes
EndUndoRedoHistory
Fore
SplineSet
96 1200 m 1,0,-1
 96 1380 l 1,1,-1
 529 1380 l 1,2,-1
 529 -237 l 1,3,-1
 96 -237 l 1,4,-1
 96 -56 l 1,5,-1
 283 -56 l 1,6,-1
 283 1200 l 1,7,-1
 96 1200 l 1,0,-1
EndSplineSet
EndChar

StartChar: asciicircum
Encoding: 94 94 64
Width: 1011
GlyphClass: 2
Flags: W
LayerCount: 2
UndoRedoHistory
Layer: 1
Undoes
UndoOperation
Index: 0
Type: 1
WasModified: 0
WasOrder2: 1
Width: 1011
VWidth: 2048
LBearingChange: 0
UnicodeEnc: 0
InstructionsLength: 0
SplineSet
22 491 m 1,0,-1
 441 1347 l 1,1,-1
 566 1347 l 1,2,-1
 1011 491 l 1,3,-1
 802 491 l 1,4,-1
 505 1075 l 1,5,-1
 231 491 l 1,6,-1
 22 491 l 1,0,-1
EndSplineSet
EndUndoOperation
UndoOperation
Index: 1
Type: 1
WasModified: 0
WasOrder2: 1
Width: 1011
VWidth: 2048
LBearingChange: 0
UnicodeEnc: 0
InstructionsLength: 0
SplineSet
22 491 m 1,0,-1
 441 1347 l 1,1,-1
 566 1347 l 1,2,-1
 1011 491 l 1,3,-1
 802 491 l 1,4,-1
 505 1075 l 1,5,-1
 231 491 l 1,6,-1
 22 491 l 1,0,-1
EndSplineSet
EndUndoOperation
UndoOperation
Index: 2
Type: 1
WasModified: 0
WasOrder2: 1
Width: 1011
VWidth: 2048
LBearingChange: 0
UnicodeEnc: 0
InstructionsLength: 0
SplineSet
22 491 m 1,0,-1
 441 1347 l 1,1,-1
 566 1347 l 1,2,-1
 1011 491 l 1,3,-1
 802 491 l 1,4,-1
 505 1075 l 1,5,-1
 231 491 l 1,6,-1
 22 491 l 1,0,-1
EndSplineSet
EndUndoOperation
EndUndoes
Redoes
EndRedoes
EndUndoRedoHistory
Fore
SplineSet
22 491 m 1,0,-1
 441 1347 l 1,1,-1
 566 1347 l 1,2,-1
 1011 491 l 1,3,-1
 802 491 l 1,4,-1
 505 1075 l 1,5,-1
 231 491 l 1,6,-1
 22 491 l 1,0,-1
EndSplineSet
EndChar

StartChar: underscore
Encoding: 95 95 65
Width: 1012
GlyphClass: 2
Flags: W
LayerCount: 2
UndoRedoHistory
Layer: 1
Undoes
UndoOperation
Index: 0
Type: 1
WasModified: 0
WasOrder2: 1
Width: 1012
VWidth: 2048
LBearingChange: 0
UnicodeEnc: 0
InstructionsLength: 0
SplineSet
59 -273 m 1,0,-1
 59 -98 l 1,1,-1
 973 -98 l 1,2,-1
 973 -273 l 1,3,-1
 59 -273 l 1,0,-1
EndSplineSet
EndUndoOperation
UndoOperation
Index: 1
Type: 1
WasModified: 0
WasOrder2: 1
Width: 1012
VWidth: 2048
LBearingChange: 0
UnicodeEnc: 0
InstructionsLength: 0
SplineSet
59 -273 m 1,0,-1
 59 -98 l 1,1,-1
 973 -98 l 1,2,-1
 973 -273 l 1,3,-1
 59 -273 l 1,0,-1
EndSplineSet
EndUndoOperation
UndoOperation
Index: 2
Type: 1
WasModified: 0
WasOrder2: 1
Width: 1012
VWidth: 2048
LBearingChange: 0
UnicodeEnc: 0
InstructionsLength: 0
SplineSet
59 -273 m 1,0,-1
 59 -98 l 1,1,-1
 973 -98 l 1,2,-1
 973 -273 l 1,3,-1
 59 -273 l 1,0,-1
EndSplineSet
EndUndoOperation
EndUndoes
Redoes
EndRedoes
EndUndoRedoHistory
Fore
SplineSet
59 -273 m 1,0,-1
 59 -98 l 1,1,-1
 973 -98 l 1,2,-1
 973 -273 l 1,3,-1
 59 -273 l 1,0,-1
EndSplineSet
EndChar

StartChar: grave
Encoding: 96 96 66
Width: 447
GlyphClass: 2
Flags: W
LayerCount: 2
UndoRedoHistory
Layer: 1
Undoes
UndoOperation
Index: 0
Type: 1
WasModified: 0
WasOrder2: 1
Width: 447
VWidth: 2048
LBearingChange: 0
UnicodeEnc: 0
InstructionsLength: 0
SplineSet
291 1081 m 1,0,-1
 -20 1442 l 1,1,-1
 279 1442 l 1,2,-1
 456 1081 l 1,3,-1
 291 1081 l 1,0,-1
EndSplineSet
EndUndoOperation
UndoOperation
Index: 1
Type: 1
WasModified: 0
WasOrder2: 1
Width: 447
VWidth: 2048
LBearingChange: 0
UnicodeEnc: 0
InstructionsLength: 0
SplineSet
291 1081 m 1,0,-1
 -20 1442 l 1,1,-1
 279 1442 l 1,2,-1
 456 1081 l 1,3,-1
 291 1081 l 1,0,-1
EndSplineSet
EndUndoOperation
UndoOperation
Index: 2
Type: 1
WasModified: 0
WasOrder2: 1
Width: 447
VWidth: 2048
LBearingChange: 0
UnicodeEnc: 0
InstructionsLength: 0
SplineSet
291 1081 m 1,0,-1
 -20 1442 l 1,1,-1
 279 1442 l 1,2,-1
 456 1081 l 1,3,-1
 291 1081 l 1,0,-1
EndSplineSet
EndUndoOperation
EndUndoes
Redoes
EndRedoes
EndUndoRedoHistory
Fore
SplineSet
291 1081 m 1,0,-1
 -20 1442 l 1,1,-1
 279 1442 l 1,2,-1
 456 1081 l 1,3,-1
 291 1081 l 1,0,-1
EndSplineSet
EndChar

StartChar: a
Encoding: 97 97 67
Width: 1056
GlyphClass: 2
Flags: W
LayerCount: 2
UndoRedoHistory
Layer: 1
Undoes
UndoOperation
Index: 0
Type: 1
WasModified: 0
WasOrder2: 1
Width: 1056
VWidth: 2048
LBearingChange: 0
UnicodeEnc: 0
InstructionsLength: 0
SplineSet
412 -18 m 0,0,1
 272 -18 272 -18 182.5 59 c 128,-1,2
 93 136 93 136 93 284 c 0,3,4
 93 444 93 444 198 522 c 128,-1,5
 303 600 303 600 505 621 c 0,6,7
 529 624 529 624 589 630.5 c 128,-1,8
 649 637 649 637 685 641 c 1,9,-1
 685 689 l 2,10,11
 685 775 685 775 644 813.5 c 128,-1,12
 603 852 603 852 524 852 c 0,13,14
 460 852 460 852 364.5 830 c 128,-1,15
 269 808 269 808 191 776 c 1,16,17
 189 780 189 780 175 823 c 128,-1,18
 161 866 161 866 147.5 906.5 c 128,-1,19
 134 947 134 947 131 953 c 1,20,21
 340 1041 340 1041 550 1041 c 0,22,23
 750 1041 750 1041 845 950 c 128,-1,24
 940 859 940 859 940 660 c 2,25,-1
 940 0 l 1,26,-1
 750 0 l 1,27,28
 750 2 750 2 735 67 c 128,-1,29
 720 132 720 132 715 153 c 1,30,31
 599 -18 599 -18 412 -18 c 0,0,1
476 162 m 0,32,33
 548 162 548 162 607.5 203 c 128,-1,34
 667 244 667 244 684 281 c 1,35,-1
 684 482 l 1,36,37
 664 480 664 480 605 473 c 1,38,39
 474 462 474 462 411.5 417.5 c 128,-1,40
 349 373 349 373 349 287 c 0,41,42
 349 227 349 227 381.5 194.5 c 128,-1,43
 414 162 414 162 476 162 c 0,32,33
EndSplineSet
EndUndoOperation
UndoOperation
Index: 1
Type: 1
WasModified: 0
WasOrder2: 1
Width: 1056
VWidth: 2048
LBearingChange: 0
UnicodeEnc: 0
InstructionsLength: 0
SplineSet
412 -18 m 0,0,1
 599 -18 599 -18 715 153 c 1,2,3
 720 132 720 132 735 67 c 128,-1,4
 750 2 750 2 750 0 c 1,5,-1
 940 0 l 1,6,-1
 940 660 l 2,7,8
 940 859 940 859 845 950 c 128,-1,9
 750 1041 750 1041 550 1041 c 0,10,11
 340 1041 340 1041 131 953 c 1,12,13
 134 947 134 947 147.5 906.5 c 128,-1,14
 161 866 161 866 175 823 c 128,-1,15
 189 780 189 780 191 776 c 1,16,17
 269 808 269 808 364.5 830 c 128,-1,18
 460 852 460 852 524 852 c 0,19,20
 603 852 603 852 644 813.5 c 128,-1,21
 685 775 685 775 685 689 c 2,22,-1
 685 641 l 1,23,24
 649 637 649 637 589 630.5 c 128,-1,25
 529 624 529 624 505 621 c 0,26,27
 303 600 303 600 198 522 c 128,-1,28
 93 444 93 444 93 284 c 0,29,30
 93 136 93 136 182.5 59 c 128,-1,31
 272 -18 272 -18 412 -18 c 0,0,1
476 162 m 0,32,33
 414 162 414 162 381.5 194.5 c 128,-1,34
 349 227 349 227 349 287 c 0,35,36
 349 373 349 373 411.5 417.5 c 128,-1,37
 474 462 474 462 605 473 c 1,38,39
 664 480 664 480 684 482 c 1,40,-1
 684 281 l 1,41,42
 667 244 667 244 607.5 203 c 128,-1,43
 548 162 548 162 476 162 c 0,32,33
EndSplineSet
EndUndoOperation
UndoOperation
Index: 2
Type: 1
WasModified: 0
WasOrder2: 1
Width: 1056
VWidth: 2048
LBearingChange: 0
UnicodeEnc: 0
InstructionsLength: 0
SplineSet
476 162 m 0,0,1
 414 162 414 162 381.5 194.5 c 128,-1,2
 349 227 349 227 349 287 c 0,3,4
 349 373 349 373 411.5 417.5 c 128,-1,5
 474 462 474 462 605 473 c 1,6,7
 664 480 664 480 684 482 c 1,8,-1
 684 281 l 1,9,10
 667 244 667 244 607.5 203 c 128,-1,11
 548 162 548 162 476 162 c 0,0,1
412 -18 m 0,12,13
 599 -18 599 -18 715 153 c 1,14,15
 720 132 720 132 735 67 c 128,-1,16
 750 2 750 2 750 0 c 1,17,-1
 940 0 l 1,18,-1
 940 660 l 2,19,20
 940 859 940 859 845 950 c 128,-1,21
 750 1041 750 1041 550 1041 c 0,22,23
 340 1041 340 1041 131 953 c 1,24,25
 134 947 134 947 147.5 906.5 c 128,-1,26
 161 866 161 866 175 823 c 128,-1,27
 189 780 189 780 191 776 c 1,28,29
 269 808 269 808 364.5 830 c 128,-1,30
 460 852 460 852 524 852 c 0,31,32
 603 852 603 852 644 813.5 c 128,-1,33
 685 775 685 775 685 689 c 2,34,-1
 685 641 l 1,35,36
 649 637 649 637 589 630.5 c 128,-1,37
 529 624 529 624 505 621 c 0,38,39
 303 600 303 600 198 522 c 128,-1,40
 93 444 93 444 93 284 c 0,41,42
 93 136 93 136 182.5 59 c 128,-1,43
 272 -18 272 -18 412 -18 c 0,12,13
EndSplineSet
EndUndoOperation
EndUndoes
Redoes
EndRedoes
EndUndoRedoHistory
Fore
SplineSet
412 -18 m 0,0,1
 272 -18 272 -18 182.5 59 c 128,-1,2
 93 136 93 136 93 284 c 0,3,4
 93 444 93 444 198 522 c 128,-1,5
 303 600 303 600 505 621 c 0,6,7
 529 624 529 624 589 630.5 c 128,-1,8
 649 637 649 637 685 641 c 1,9,-1
 685 689 l 2,10,11
 685 775 685 775 644 813.5 c 128,-1,12
 603 852 603 852 524 852 c 0,13,14
 460 852 460 852 364.5 830 c 128,-1,15
 269 808 269 808 191 776 c 1,16,17
 189 780 189 780 175 823 c 128,-1,18
 161 866 161 866 147.5 906.5 c 128,-1,19
 134 947 134 947 131 953 c 1,20,21
 340 1041 340 1041 550 1041 c 0,22,23
 750 1041 750 1041 845 950 c 128,-1,24
 940 859 940 859 940 660 c 2,25,-1
 940 0 l 1,26,-1
 750 0 l 1,27,28
 750 2 750 2 735 67 c 128,-1,29
 720 132 720 132 715 153 c 1,30,31
 599 -18 599 -18 412 -18 c 0,0,1
476 162 m 0,32,33
 548 162 548 162 607.5 203 c 128,-1,34
 667 244 667 244 684 281 c 1,35,-1
 684 482 l 1,36,37
 664 480 664 480 605 473 c 1,38,39
 474 462 474 462 411.5 417.5 c 128,-1,40
 349 373 349 373 349 287 c 0,41,42
 349 227 349 227 381.5 194.5 c 128,-1,43
 414 162 414 162 476 162 c 0,32,33
EndSplineSet
EndChar

StartChar: b
Encoding: 98 98 68
Width: 1156
GlyphClass: 2
Flags: W
LayerCount: 2
UndoRedoHistory
Layer: 1
Undoes
UndoOperation
Index: 0
Type: 1
WasModified: 0
WasOrder2: 1
Width: 1156
VWidth: 2048
LBearingChange: 0
UnicodeEnc: 0
InstructionsLength: 0
SplineSet
658 -18 m 0,0,1
 564 -18 564 -18 488.5 23 c 128,-1,2
 413 64 413 64 369 127 c 1,3,-1
 349 1 l 1,4,-1
 128 1 l 1,5,-1
 128 1376 l 1,6,-1
 384 1393 l 1,7,-1
 384 1079 l 2,8,9
 384 1050 384 1050 381.5 989.5 c 128,-1,10
 379 929 379 929 378 908 c 1,11,12
 489 1041 489 1041 662 1041 c 0,13,14
 852 1041 852 1041 960.5 895.5 c 128,-1,15
 1069 750 1069 750 1069 519 c 0,16,17
 1069 279 1069 279 957.5 130.5 c 128,-1,18
 846 -18 846 -18 658 -18 c 0,0,1
601 179 m 0,19,20
 698 179 698 179 755.5 265 c 128,-1,21
 813 351 813 351 813 516 c 128,-1,22
 813 681 813 681 757.5 763 c 128,-1,23
 702 845 702 845 604 845 c 0,24,25
 382 845 382 845 379 527 c 1,26,27
 379 345 379 345 435 262 c 128,-1,28
 491 179 491 179 601 179 c 0,19,20
EndSplineSet
EndUndoOperation
UndoOperation
Index: 1
Type: 1
WasModified: 0
WasOrder2: 1
Width: 1156
VWidth: 2048
LBearingChange: 0
UnicodeEnc: 0
InstructionsLength: 0
SplineSet
658 -18 m 0,0,1
 846 -18 846 -18 957.5 130.5 c 128,-1,2
 1069 279 1069 279 1069 519 c 0,3,4
 1069 750 1069 750 960.5 895.5 c 128,-1,5
 852 1041 852 1041 662 1041 c 0,6,7
 489 1041 489 1041 378 908 c 1,8,9
 379 929 379 929 381.5 989.5 c 128,-1,10
 384 1050 384 1050 384 1079 c 2,11,-1
 384 1393 l 1,12,-1
 128 1376 l 1,13,-1
 128 1 l 1,14,-1
 349 1 l 1,15,-1
 369 127 l 1,16,17
 413 64 413 64 488.5 23 c 128,-1,18
 564 -18 564 -18 658 -18 c 0,0,1
601 179 m 0,19,20
 491 179 491 179 435 262 c 128,-1,21
 379 345 379 345 379 527 c 1,22,23
 382 845 382 845 604 845 c 0,24,25
 702 845 702 845 757.5 763 c 128,-1,26
 813 681 813 681 813 516 c 128,-1,27
 813 351 813 351 755.5 265 c 128,-1,28
 698 179 698 179 601 179 c 0,19,20
EndSplineSet
EndUndoOperation
UndoOperation
Index: 2
Type: 1
WasModified: 0
WasOrder2: 1
Width: 1156
VWidth: 2048
LBearingChange: 0
UnicodeEnc: 0
InstructionsLength: 0
SplineSet
601 179 m 0,0,1
 491 179 491 179 435 262 c 128,-1,2
 379 345 379 345 379 527 c 1,3,4
 382 845 382 845 604 845 c 0,5,6
 702 845 702 845 757.5 763 c 128,-1,7
 813 681 813 681 813 516 c 128,-1,8
 813 351 813 351 755.5 265 c 128,-1,9
 698 179 698 179 601 179 c 0,0,1
658 -18 m 0,10,11
 846 -18 846 -18 957.5 130.5 c 128,-1,12
 1069 279 1069 279 1069 519 c 0,13,14
 1069 750 1069 750 960.5 895.5 c 128,-1,15
 852 1041 852 1041 662 1041 c 0,16,17
 489 1041 489 1041 378 908 c 1,18,19
 379 929 379 929 381.5 989.5 c 128,-1,20
 384 1050 384 1050 384 1079 c 2,21,-1
 384 1393 l 1,22,-1
 128 1376 l 1,23,-1
 128 1 l 1,24,-1
 349 1 l 1,25,-1
 369 127 l 1,26,27
 413 64 413 64 488.5 23 c 128,-1,28
 564 -18 564 -18 658 -18 c 0,10,11
EndSplineSet
EndUndoOperation
EndUndoes
Redoes
EndRedoes
EndUndoRedoHistory
Fore
SplineSet
658 -18 m 0,0,1
 564 -18 564 -18 488.5 23 c 128,-1,2
 413 64 413 64 369 127 c 1,3,-1
 349 1 l 1,4,-1
 128 1 l 1,5,-1
 128 1376 l 1,6,-1
 384 1393 l 1,7,-1
 384 1079 l 2,8,9
 384 1050 384 1050 381.5 989.5 c 128,-1,10
 379 929 379 929 378 908 c 1,11,12
 489 1041 489 1041 662 1041 c 0,13,14
 852 1041 852 1041 960.5 895.5 c 128,-1,15
 1069 750 1069 750 1069 519 c 0,16,17
 1069 279 1069 279 957.5 130.5 c 128,-1,18
 846 -18 846 -18 658 -18 c 0,0,1
601 179 m 0,19,20
 698 179 698 179 755.5 265 c 128,-1,21
 813 351 813 351 813 516 c 128,-1,22
 813 681 813 681 757.5 763 c 128,-1,23
 702 845 702 845 604 845 c 0,24,25
 382 845 382 845 379 527 c 1,26,27
 379 345 379 345 435 262 c 128,-1,28
 491 179 491 179 601 179 c 0,19,20
EndSplineSet
EndChar

StartChar: c
Encoding: 99 99 69
Width: 918
GlyphClass: 2
Flags: W
LayerCount: 2
UndoRedoHistory
Layer: 1
Undoes
UndoOperation
Index: 0
Type: 1
WasModified: 0
WasOrder2: 1
Width: 918
VWidth: 2048
LBearingChange: 0
UnicodeEnc: 0
InstructionsLength: 0
SplineSet
569 -18 m 0,0,1
 345 -18 345 -18 216 121 c 128,-1,2
 87 260 87 260 87 516 c 0,3,4
 87 764 87 764 222 902.5 c 128,-1,5
 357 1041 357 1041 572 1041 c 0,6,7
 742 1041 742 1041 873 959 c 1,8,-1
 813 781 l 1,9,10
 805 784 805 784 783 796.5 c 128,-1,11
 761 809 761 809 743 817 c 128,-1,12
 725 825 725 825 687 832.5 c 128,-1,13
 649 840 649 840 602 840 c 1,14,15
 486 834 486 834 414.5 752.5 c 128,-1,16
 343 671 343 671 343 513 c 0,17,18
 343 354 343 354 411.5 271.5 c 128,-1,19
 480 189 480 189 595 183 c 0,20,21
 706 177 706 177 830 247 c 1,22,-1
 863 64 l 1,23,24
 859 62 859 62 838 48.5 c 128,-1,25
 817 35 817 35 797.5 26 c 128,-1,26
 778 17 778 17 745.5 5.5 c 128,-1,27
 713 -6 713 -6 668 -12 c 128,-1,28
 623 -18 623 -18 569 -18 c 0,0,1
EndSplineSet
EndUndoOperation
UndoOperation
Index: 1
Type: 1
WasModified: 0
WasOrder2: 1
Width: 918
VWidth: 2048
LBearingChange: 0
UnicodeEnc: 0
InstructionsLength: 0
SplineSet
569 -18 m 0,0,1
 345 -18 345 -18 216 121 c 128,-1,2
 87 260 87 260 87 516 c 0,3,4
 87 764 87 764 222 902.5 c 128,-1,5
 357 1041 357 1041 572 1041 c 0,6,7
 742 1041 742 1041 873 959 c 1,8,-1
 813 781 l 1,9,10
 805 784 805 784 783 796.5 c 128,-1,11
 761 809 761 809 743 817 c 128,-1,12
 725 825 725 825 687 832.5 c 128,-1,13
 649 840 649 840 602 840 c 1,14,15
 486 834 486 834 414.5 752.5 c 128,-1,16
 343 671 343 671 343 513 c 0,17,18
 343 354 343 354 411.5 271.5 c 128,-1,19
 480 189 480 189 595 183 c 0,20,21
 706 177 706 177 830 247 c 1,22,-1
 863 64 l 1,23,24
 859 62 859 62 838 48.5 c 128,-1,25
 817 35 817 35 797.5 26 c 128,-1,26
 778 17 778 17 745.5 5.5 c 128,-1,27
 713 -6 713 -6 668 -12 c 128,-1,28
 623 -18 623 -18 569 -18 c 0,0,1
EndSplineSet
EndUndoOperation
UndoOperation
Index: 2
Type: 1
WasModified: 0
WasOrder2: 1
Width: 918
VWidth: 2048
LBearingChange: 0
UnicodeEnc: 0
InstructionsLength: 0
SplineSet
569 -18 m 0,0,1
 345 -18 345 -18 216 121 c 128,-1,2
 87 260 87 260 87 516 c 0,3,4
 87 764 87 764 222 902.5 c 128,-1,5
 357 1041 357 1041 572 1041 c 0,6,7
 742 1041 742 1041 873 959 c 1,8,-1
 813 781 l 1,9,10
 805 784 805 784 783 796.5 c 128,-1,11
 761 809 761 809 743 817 c 128,-1,12
 725 825 725 825 687 832.5 c 128,-1,13
 649 840 649 840 602 840 c 1,14,15
 486 834 486 834 414.5 752.5 c 128,-1,16
 343 671 343 671 343 513 c 0,17,18
 343 354 343 354 411.5 271.5 c 128,-1,19
 480 189 480 189 595 183 c 0,20,21
 706 177 706 177 830 247 c 1,22,-1
 863 64 l 1,23,24
 859 62 859 62 838 48.5 c 128,-1,25
 817 35 817 35 797.5 26 c 128,-1,26
 778 17 778 17 745.5 5.5 c 128,-1,27
 713 -6 713 -6 668 -12 c 128,-1,28
 623 -18 623 -18 569 -18 c 0,0,1
EndSplineSet
EndUndoOperation
EndUndoes
Redoes
EndRedoes
EndUndoRedoHistory
Fore
SplineSet
569 -18 m 0,0,1
 345 -18 345 -18 216 121 c 128,-1,2
 87 260 87 260 87 516 c 0,3,4
 87 764 87 764 222 902.5 c 128,-1,5
 357 1041 357 1041 572 1041 c 0,6,7
 742 1041 742 1041 873 959 c 1,8,-1
 813 781 l 1,9,10
 805 784 805 784 783 796.5 c 128,-1,11
 761 809 761 809 743 817 c 128,-1,12
 725 825 725 825 687 832.5 c 128,-1,13
 649 840 649 840 602 840 c 1,14,15
 486 834 486 834 414.5 752.5 c 128,-1,16
 343 671 343 671 343 513 c 0,17,18
 343 354 343 354 411.5 271.5 c 128,-1,19
 480 189 480 189 595 183 c 0,20,21
 706 177 706 177 830 247 c 1,22,-1
 863 64 l 1,23,24
 859 62 859 62 838 48.5 c 128,-1,25
 817 35 817 35 797.5 26 c 128,-1,26
 778 17 778 17 745.5 5.5 c 128,-1,27
 713 -6 713 -6 668 -12 c 128,-1,28
 623 -18 623 -18 569 -18 c 0,0,1
EndSplineSet
EndChar

StartChar: d
Encoding: 100 100 70
Width: 1156
GlyphClass: 2
Flags: W
LayerCount: 2
UndoRedoHistory
Layer: 1
Undoes
UndoOperation
Index: 0
Type: 1
WasModified: 0
WasOrder2: 1
Width: 1156
VWidth: 2048
LBearingChange: 0
UnicodeEnc: 0
InstructionsLength: 0
SplineSet
503 -17 m 0,0,1
 310 -17 310 -17 198.5 129.5 c 128,-1,2
 87 276 87 276 87 517 c 0,3,4
 87 753 87 753 198 897 c 128,-1,5
 309 1041 309 1041 503 1041 c 0,6,7
 688 1041 688 1041 780 920 c 1,8,9
 772 1006 772 1006 772 1052 c 2,10,-1
 772 1376 l 1,11,-1
 1028 1393 l 1,12,-1
 1028 0 l 1,13,-1
 808 0 l 1,14,-1
 784 117 l 1,15,16
 698 -17 698 -17 503 -17 c 0,0,1
559 179 m 0,17,18
 667 179 667 179 724.5 254.5 c 128,-1,19
 782 330 782 330 783 497 c 1,20,21
 783 680 783 680 726 761.5 c 128,-1,22
 669 843 669 843 557 843 c 0,23,24
 459 843 459 843 401 760.5 c 128,-1,25
 343 678 343 678 343 512 c 0,26,27
 343 347 343 347 401 263 c 128,-1,28
 459 179 459 179 559 179 c 0,17,18
EndSplineSet
EndUndoOperation
UndoOperation
Index: 1
Type: 1
WasModified: 0
WasOrder2: 1
Width: 1156
VWidth: 2048
LBearingChange: 0
UnicodeEnc: 0
InstructionsLength: 0
SplineSet
503 -17 m 0,0,1
 698 -17 698 -17 784 117 c 1,2,-1
 808 0 l 1,3,-1
 1028 0 l 1,4,-1
 1028 1393 l 1,5,-1
 772 1376 l 1,6,-1
 772 1052 l 2,7,8
 772 1006 772 1006 780 920 c 1,9,10
 688 1041 688 1041 503 1041 c 0,11,12
 309 1041 309 1041 198 897 c 128,-1,13
 87 753 87 753 87 517 c 0,14,15
 87 276 87 276 198.5 129.5 c 128,-1,16
 310 -17 310 -17 503 -17 c 0,0,1
559 179 m 0,17,18
 459 179 459 179 401 263 c 128,-1,19
 343 347 343 347 343 512 c 0,20,21
 343 678 343 678 401 760.5 c 128,-1,22
 459 843 459 843 557 843 c 0,23,24
 669 843 669 843 726 761.5 c 128,-1,25
 783 680 783 680 783 497 c 1,26,27
 782 330 782 330 724.5 254.5 c 128,-1,28
 667 179 667 179 559 179 c 0,17,18
EndSplineSet
EndUndoOperation
UndoOperation
Index: 2
Type: 1
WasModified: 0
WasOrder2: 1
Width: 1156
VWidth: 2048
LBearingChange: 0
UnicodeEnc: 0
InstructionsLength: 0
SplineSet
559 179 m 0,0,1
 459 179 459 179 401 263 c 128,-1,2
 343 347 343 347 343 512 c 0,3,4
 343 678 343 678 401 760.5 c 128,-1,5
 459 843 459 843 557 843 c 0,6,7
 669 843 669 843 726 761.5 c 128,-1,8
 783 680 783 680 783 497 c 1,9,10
 782 330 782 330 724.5 254.5 c 128,-1,11
 667 179 667 179 559 179 c 0,0,1
503 -17 m 0,12,13
 698 -17 698 -17 784 117 c 1,14,-1
 808 0 l 1,15,-1
 1028 0 l 1,16,-1
 1028 1393 l 1,17,-1
 772 1376 l 1,18,-1
 772 1052 l 2,19,20
 772 1006 772 1006 780 920 c 1,21,22
 688 1041 688 1041 503 1041 c 0,23,24
 309 1041 309 1041 198 897 c 128,-1,25
 87 753 87 753 87 517 c 0,26,27
 87 276 87 276 198.5 129.5 c 128,-1,28
 310 -17 310 -17 503 -17 c 0,12,13
EndSplineSet
EndUndoOperation
EndUndoes
Redoes
EndRedoes
EndUndoRedoHistory
Fore
SplineSet
503 -17 m 0,0,1
 310 -17 310 -17 198.5 129.5 c 128,-1,2
 87 276 87 276 87 517 c 0,3,4
 87 753 87 753 198 897 c 128,-1,5
 309 1041 309 1041 503 1041 c 0,6,7
 688 1041 688 1041 780 920 c 1,8,9
 772 1006 772 1006 772 1052 c 2,10,-1
 772 1376 l 1,11,-1
 1028 1393 l 1,12,-1
 1028 0 l 1,13,-1
 808 0 l 1,14,-1
 784 117 l 1,15,16
 698 -17 698 -17 503 -17 c 0,0,1
559 179 m 0,17,18
 667 179 667 179 724.5 254.5 c 128,-1,19
 782 330 782 330 783 497 c 1,20,21
 783 680 783 680 726 761.5 c 128,-1,22
 669 843 669 843 557 843 c 0,23,24
 459 843 459 843 401 760.5 c 128,-1,25
 343 678 343 678 343 512 c 0,26,27
 343 347 343 347 401 263 c 128,-1,28
 459 179 459 179 559 179 c 0,17,18
EndSplineSet
EndChar

StartChar: e
Encoding: 101 101 71
Width: 1063
GlyphClass: 2
Flags: W
LayerCount: 2
UndoRedoHistory
Layer: 1
Undoes
UndoOperation
Index: 0
Type: 1
WasModified: 0
WasOrder2: 1
Width: 1063
VWidth: 2048
LBearingChange: 0
UnicodeEnc: 0
InstructionsLength: 0
SplineSet
352 613 m 1,0,1
 746 613 l 1,2,3
 743 724 743 724 692.5 789 c 128,-1,4
 642 854 642 854 555 854 c 0,5,6
 475 854 475 854 420.5 792 c 128,-1,7
 366 730 366 730 352 613 c 1,0,1
591 -18 m 0,8,9
 355 -18 355 -18 221 123.5 c 128,-1,10
 87 265 87 265 87 512 c 0,11,12
 87 752 87 752 213 896 c 128,-1,13
 339 1040 339 1040 554 1041 c 0,14,15
 759 1041 759 1041 872.5 908 c 128,-1,16
 986 775 986 775 986 558 c 0,17,18
 986 543 986 543 979 448 c 1,19,-1
 346 448 l 1,20,21
 366 174 366 174 615 174 c 0,22,23
 645 174 645 174 673.5 176.5 c 128,-1,24
 702 179 702 179 724 182 c 128,-1,25
 746 185 746 185 770 191 c 128,-1,26
 794 197 794 197 808.5 201 c 128,-1,27
 823 205 823 205 843 213 c 128,-1,28
 863 221 863 221 870 224 c 128,-1,29
 877 227 877 227 894 235 c 128,-1,30
 911 243 911 243 912 243 c 2,31,-1
 947 63 l 1,32,33
 877 18 877 18 794 0 c 128,-1,34
 711 -18 711 -18 591 -18 c 0,8,9
EndSplineSet
EndUndoOperation
UndoOperation
Index: 1
Type: 1
WasModified: 0
WasOrder2: 1
Width: 1063
VWidth: 2048
LBearingChange: 0
UnicodeEnc: 0
InstructionsLength: 0
SplineSet
352 613 m 1,0,1
 366 730 366 730 420.5 792 c 128,-1,2
 475 854 475 854 555 854 c 0,3,4
 642 854 642 854 692.5 789 c 128,-1,5
 743 724 743 724 746 613 c 1,6,-1
 352 613 l 1,0,1
591 -18 m 0,7,8
 711 -18 711 -18 794 0 c 128,-1,9
 877 18 877 18 947 63 c 1,10,-1
 912 243 l 2,11,12
 911 243 911 243 894 235 c 128,-1,13
 877 227 877 227 870 224 c 128,-1,14
 863 221 863 221 843 213 c 128,-1,15
 823 205 823 205 808.5 201 c 128,-1,16
 794 197 794 197 770 191 c 128,-1,17
 746 185 746 185 724 182 c 128,-1,18
 702 179 702 179 673.5 176.5 c 128,-1,19
 645 174 645 174 615 174 c 0,20,21
 366 174 366 174 346 448 c 1,22,-1
 979 448 l 1,23,24
 986 543 986 543 986 558 c 0,25,26
 986 775 986 775 872.5 908 c 128,-1,27
 759 1041 759 1041 554 1041 c 0,28,29
 339 1040 339 1040 213 896 c 128,-1,30
 87 752 87 752 87 512 c 0,31,32
 87 265 87 265 221 123.5 c 128,-1,33
 355 -18 355 -18 591 -18 c 0,7,8
EndSplineSet
EndUndoOperation
UndoOperation
Index: 2
Type: 1
WasModified: 0
WasOrder2: 1
Width: 1063
VWidth: 2048
LBearingChange: 0
UnicodeEnc: 0
InstructionsLength: 0
SplineSet
591 -18 m 0,0,1
 711 -18 711 -18 794 0 c 128,-1,2
 877 18 877 18 947 63 c 1,3,-1
 912 243 l 2,4,5
 911 243 911 243 894 235 c 128,-1,6
 877 227 877 227 870 224 c 128,-1,7
 863 221 863 221 843 213 c 128,-1,8
 823 205 823 205 808.5 201 c 128,-1,9
 794 197 794 197 770 191 c 128,-1,10
 746 185 746 185 724 182 c 128,-1,11
 702 179 702 179 673.5 176.5 c 128,-1,12
 645 174 645 174 615 174 c 0,13,14
 366 174 366 174 346 448 c 1,15,-1
 979 448 l 1,16,17
 986 543 986 543 986 558 c 0,18,19
 986 775 986 775 872.5 908 c 128,-1,20
 759 1041 759 1041 554 1041 c 0,21,22
 339 1040 339 1040 213 896 c 128,-1,23
 87 752 87 752 87 512 c 0,24,25
 87 265 87 265 221 123.5 c 128,-1,26
 355 -18 355 -18 591 -18 c 0,0,1
352 613 m 1,27,28
 366 730 366 730 420.5 792 c 128,-1,29
 475 854 475 854 555 854 c 0,30,31
 642 854 642 854 692.5 789 c 128,-1,32
 743 724 743 724 746 613 c 1,33,-1
 352 613 l 1,27,28
EndSplineSet
EndUndoOperation
EndUndoes
Redoes
EndRedoes
EndUndoRedoHistory
Fore
SplineSet
352 613 m 1,0,1
 746 613 l 1,2,3
 743 724 743 724 692.5 789 c 128,-1,4
 642 854 642 854 555 854 c 0,5,6
 475 854 475 854 420.5 792 c 128,-1,7
 366 730 366 730 352 613 c 1,0,1
591 -18 m 0,8,9
 355 -18 355 -18 221 123.5 c 128,-1,10
 87 265 87 265 87 512 c 0,11,12
 87 752 87 752 213 896 c 128,-1,13
 339 1040 339 1040 554 1041 c 0,14,15
 759 1041 759 1041 872.5 908 c 128,-1,16
 986 775 986 775 986 558 c 0,17,18
 986 543 986 543 979 448 c 1,19,-1
 346 448 l 1,20,21
 366 174 366 174 615 174 c 0,22,23
 645 174 645 174 673.5 176.5 c 128,-1,24
 702 179 702 179 724 182 c 128,-1,25
 746 185 746 185 770 191 c 128,-1,26
 794 197 794 197 808.5 201 c 128,-1,27
 823 205 823 205 843 213 c 128,-1,28
 863 221 863 221 870 224 c 128,-1,29
 877 227 877 227 894 235 c 128,-1,30
 911 243 911 243 912 243 c 2,31,-1
 947 63 l 1,32,33
 877 18 877 18 794 0 c 128,-1,34
 711 -18 711 -18 591 -18 c 0,8,9
EndSplineSet
EndChar

StartChar: f
Encoding: 102 102 72
Width: 712
GlyphClass: 2
Flags: W
LayerCount: 2
UndoRedoHistory
Layer: 1
Undoes
UndoOperation
Index: 0
Type: 1
WasModified: 0
WasOrder2: 1
Width: 712
VWidth: 2048
LBearingChange: 0
UnicodeEnc: 0
InstructionsLength: 0
SplineSet
189 0 m 1,0,-1
 189 839 l 1,1,-1
 43 839 l 1,2,-1
 48 998 l 1,3,-1
 189 1015 l 1,4,-1
 189 1061 l 2,5,6
 189 1166 189 1166 214 1238.5 c 128,-1,7
 239 1311 239 1311 287 1349.5 c 128,-1,8
 335 1388 335 1388 393.5 1404 c 128,-1,9
 452 1420 452 1420 530 1420 c 0,10,11
 620 1420 620 1420 718 1401 c 1,12,13
 695 1208 l 1,14,15
 629 1219 629 1219 576 1219 c 0,16,17
 507 1219 507 1219 476 1191 c 128,-1,18
 445 1163 445 1163 445 1074 c 2,19,-1
 445 1016 l 1,20,-1
 673 1016 l 1,21,-1
 673 839 l 1,22,-1
 445 839 l 1,23,-1
 445 0 l 1,24,-1
 189 0 l 1,0,-1
EndSplineSet
EndUndoOperation
UndoOperation
Index: 1
Type: 1
WasModified: 0
WasOrder2: 1
Width: 712
VWidth: 2048
LBearingChange: 0
UnicodeEnc: 0
InstructionsLength: 0
SplineSet
189 0 m 1,0,-1
 445 0 l 1,1,-1
 445 839 l 1,2,-1
 673 839 l 1,3,-1
 673 1016 l 1,4,-1
 445 1016 l 1,5,-1
 445 1074 l 2,6,7
 445 1163 445 1163 476 1191 c 128,-1,8
 507 1219 507 1219 576 1219 c 0,9,10
 629 1219 629 1219 695 1208 c 1,11,-1
 718 1401 l 1,12,13
 620 1420 620 1420 530 1420 c 0,14,15
 452 1420 452 1420 393.5 1404 c 128,-1,16
 335 1388 335 1388 287 1349.5 c 128,-1,17
 239 1311 239 1311 214 1238.5 c 128,-1,18
 189 1166 189 1166 189 1061 c 2,19,-1
 189 1015 l 1,20,-1
 48 998 l 1,21,-1
 43 839 l 1,22,-1
 189 839 l 1,23,-1
 189 0 l 1,0,-1
EndSplineSet
EndUndoOperation
UndoOperation
Index: 2
Type: 1
WasModified: 0
WasOrder2: 1
Width: 712
VWidth: 2048
LBearingChange: 0
UnicodeEnc: 0
InstructionsLength: 0
SplineSet
189 0 m 1,0,-1
 445 0 l 1,1,-1
 445 839 l 1,2,-1
 673 839 l 1,3,-1
 673 1016 l 1,4,-1
 445 1016 l 1,5,-1
 445 1074 l 2,6,7
 445 1163 445 1163 476 1191 c 128,-1,8
 507 1219 507 1219 576 1219 c 0,9,10
 629 1219 629 1219 695 1208 c 1,11,-1
 718 1401 l 1,12,13
 620 1420 620 1420 530 1420 c 0,14,15
 452 1420 452 1420 393.5 1404 c 128,-1,16
 335 1388 335 1388 287 1349.5 c 128,-1,17
 239 1311 239 1311 214 1238.5 c 128,-1,18
 189 1166 189 1166 189 1061 c 2,19,-1
 189 1015 l 1,20,-1
 48 998 l 1,21,-1
 43 839 l 1,22,-1
 189 839 l 1,23,-1
 189 0 l 1,0,-1
EndSplineSet
EndUndoOperation
EndUndoes
Redoes
EndRedoes
EndUndoRedoHistory
Fore
SplineSet
189 0 m 1,0,-1
 189 839 l 1,1,-1
 43 839 l 1,2,-1
 48 998 l 1,3,-1
 189 1015 l 1,4,-1
 189 1061 l 2,5,6
 189 1166 189 1166 214 1238.5 c 128,-1,7
 239 1311 239 1311 287 1349.5 c 128,-1,8
 335 1388 335 1388 393.5 1404 c 128,-1,9
 452 1420 452 1420 530 1420 c 0,10,11
 620 1420 620 1420 718 1401 c 1,12,13
 695 1208 l 1,14,15
 629 1219 629 1219 576 1219 c 0,16,17
 507 1219 507 1219 476 1191 c 128,-1,18
 445 1163 445 1163 445 1074 c 2,19,-1
 445 1016 l 1,20,-1
 673 1016 l 1,21,-1
 673 839 l 1,22,-1
 445 839 l 1,23,-1
 445 0 l 1,24,-1
 189 0 l 1,0,-1
EndSplineSet
EndChar

StartChar: g
Encoding: 103 103 73
Width: 1153
GlyphClass: 2
Flags: W
LayerCount: 2
UndoRedoHistory
Layer: 1
Undoes
UndoOperation
Index: 0
Type: 1
WasModified: 0
WasOrder2: 1
Width: 1153
VWidth: 2048
LBearingChange: 0
UnicodeEnc: 0
InstructionsLength: 0
SplineSet
557 195 m 0,0,1
 784 195 784 195 787 508 c 1,2,-1
 787 536 l 2,3,4
 787 684 787 684 732 763 c 128,-1,5
 677 842 677 842 570 843 c 1,6,7
 449 843 449 843 388.5 758.5 c 128,-1,8
 328 674 328 674 328 526 c 0,9,10
 328 383 328 383 388.5 289 c 128,-1,11
 449 195 449 195 557 195 c 0,0,1
484 -439 m 0,12,13
 418 -439 418 -439 353.5 -429.5 c 128,-1,14
 289 -420 289 -420 263.5 -413 c 128,-1,15
 238 -406 238 -406 226 -402 c 1,16,-1
 242 -207 l 1,17,18
 259 -209 259 -209 297 -217.5 c 128,-1,19
 335 -226 335 -226 374.5 -231.5 c 128,-1,20
 414 -237 414 -237 459 -237 c 0,21,22
 538 -237 538 -237 601 -210.5 c 128,-1,23
 664 -184 664 -184 703.5 -139 c 128,-1,24
 743 -94 743 -94 763.5 -36.5 c 128,-1,25
 784 21 784 21 784 87 c 0,26,27
 784 131 784 131 781 156 c 1,28,29
 751 89 751 89 673.5 44.5 c 128,-1,30
 596 0 596 0 496 0 c 0,31,32
 303 0 303 0 187.5 143.5 c 128,-1,33
 72 287 72 287 72 519 c 0,34,35
 72 761 72 761 196.5 901 c 128,-1,36
 321 1041 321 1041 505 1041 c 0,37,38
 610 1041 610 1041 681 1007 c 128,-1,39
 752 973 752 973 792 893 c 1,40,-1
 805 1017 l 1,41,-1
 1032 1017 l 1,42,-1
 1032 185 l 2,43,44
 1032 78 1032 78 1012 -15 c 128,-1,45
 992 -108 992 -108 948.5 -186.5 c 128,-1,46
 905 -265 905 -265 841.5 -320.5 c 128,-1,47
 778 -376 778 -376 687 -407.5 c 128,-1,48
 596 -439 596 -439 484 -439 c 0,12,13
EndSplineSet
EndUndoOperation
UndoOperation
Index: 1
Type: 1
WasModified: 0
WasOrder2: 1
Width: 1153
VWidth: 2048
LBearingChange: 0
UnicodeEnc: 0
InstructionsLength: 0
SplineSet
557 195 m 0,0,1
 449 195 449 195 388.5 289 c 128,-1,2
 328 383 328 383 328 526 c 0,3,4
 328 674 328 674 388.5 758.5 c 128,-1,5
 449 843 449 843 570 843 c 1,6,7
 677 842 677 842 732 763 c 128,-1,8
 787 684 787 684 787 536 c 2,9,-1
 787 508 l 1,10,11
 784 195 784 195 557 195 c 0,0,1
484 -439 m 0,12,13
 596 -439 596 -439 687 -407.5 c 128,-1,14
 778 -376 778 -376 841.5 -320.5 c 128,-1,15
 905 -265 905 -265 948.5 -186.5 c 128,-1,16
 992 -108 992 -108 1012 -15 c 128,-1,17
 1032 78 1032 78 1032 185 c 2,18,-1
 1032 1017 l 1,19,-1
 805 1017 l 1,20,-1
 792 893 l 1,21,22
 752 973 752 973 681 1007 c 128,-1,23
 610 1041 610 1041 505 1041 c 0,24,25
 321 1041 321 1041 196.5 901 c 128,-1,26
 72 761 72 761 72 519 c 0,27,28
 72 287 72 287 187.5 143.5 c 128,-1,29
 303 0 303 0 496 0 c 0,30,31
 596 0 596 0 673.5 44.5 c 128,-1,32
 751 89 751 89 781 156 c 1,33,34
 784 131 784 131 784 87 c 0,35,36
 784 21 784 21 763.5 -36.5 c 128,-1,37
 743 -94 743 -94 703.5 -139 c 128,-1,38
 664 -184 664 -184 601 -210.5 c 128,-1,39
 538 -237 538 -237 459 -237 c 0,40,41
 414 -237 414 -237 374.5 -231.5 c 128,-1,42
 335 -226 335 -226 297 -217.5 c 128,-1,43
 259 -209 259 -209 242 -207 c 1,44,-1
 226 -402 l 1,45,46
 238 -406 238 -406 263.5 -413 c 128,-1,47
 289 -420 289 -420 353.5 -429.5 c 128,-1,48
 418 -439 418 -439 484 -439 c 0,12,13
EndSplineSet
EndUndoOperation
UndoOperation
Index: 2
Type: 1
WasModified: 0
WasOrder2: 1
Width: 1153
VWidth: 2048
LBearingChange: 0
UnicodeEnc: 0
InstructionsLength: 0
SplineSet
484 -439 m 0,0,1
 596 -439 596 -439 687 -407.5 c 128,-1,2
 778 -376 778 -376 841.5 -320.5 c 128,-1,3
 905 -265 905 -265 948.5 -186.5 c 128,-1,4
 992 -108 992 -108 1012 -15 c 128,-1,5
 1032 78 1032 78 1032 185 c 2,6,-1
 1032 1017 l 1,7,-1
 805 1017 l 1,8,-1
 792 893 l 1,9,10
 752 973 752 973 681 1007 c 128,-1,11
 610 1041 610 1041 505 1041 c 0,12,13
 321 1041 321 1041 196.5 901 c 128,-1,14
 72 761 72 761 72 519 c 0,15,16
 72 287 72 287 187.5 143.5 c 128,-1,17
 303 0 303 0 496 0 c 0,18,19
 596 0 596 0 673.5 44.5 c 128,-1,20
 751 89 751 89 781 156 c 1,21,22
 784 131 784 131 784 87 c 0,23,24
 784 21 784 21 763.5 -36.5 c 128,-1,25
 743 -94 743 -94 703.5 -139 c 128,-1,26
 664 -184 664 -184 601 -210.5 c 128,-1,27
 538 -237 538 -237 459 -237 c 0,28,29
 414 -237 414 -237 374.5 -231.5 c 128,-1,30
 335 -226 335 -226 297 -217.5 c 128,-1,31
 259 -209 259 -209 242 -207 c 1,32,-1
 226 -402 l 1,33,34
 238 -406 238 -406 263.5 -413 c 128,-1,35
 289 -420 289 -420 353.5 -429.5 c 128,-1,36
 418 -439 418 -439 484 -439 c 0,0,1
557 195 m 0,37,38
 449 195 449 195 388.5 289 c 128,-1,39
 328 383 328 383 328 526 c 0,40,41
 328 674 328 674 388.5 758.5 c 128,-1,42
 449 843 449 843 570 843 c 1,43,44
 677 842 677 842 732 763 c 128,-1,45
 787 684 787 684 787 536 c 2,46,-1
 787 508 l 1,47,48
 784 195 784 195 557 195 c 0,37,38
EndSplineSet
EndUndoOperation
EndUndoes
Redoes
EndRedoes
EndUndoRedoHistory
Fore
SplineSet
557 195 m 0,0,1
 784 195 784 195 787 508 c 1,2,-1
 787 536 l 2,3,4
 787 684 787 684 732 763 c 128,-1,5
 677 842 677 842 570 843 c 1,6,7
 449 843 449 843 388.5 758.5 c 128,-1,8
 328 674 328 674 328 526 c 0,9,10
 328 383 328 383 388.5 289 c 128,-1,11
 449 195 449 195 557 195 c 0,0,1
484 -439 m 0,12,13
 418 -439 418 -439 353.5 -429.5 c 128,-1,14
 289 -420 289 -420 263.5 -413 c 128,-1,15
 238 -406 238 -406 226 -402 c 1,16,-1
 242 -207 l 1,17,18
 259 -209 259 -209 297 -217.5 c 128,-1,19
 335 -226 335 -226 374.5 -231.5 c 128,-1,20
 414 -237 414 -237 459 -237 c 0,21,22
 538 -237 538 -237 601 -210.5 c 128,-1,23
 664 -184 664 -184 703.5 -139 c 128,-1,24
 743 -94 743 -94 763.5 -36.5 c 128,-1,25
 784 21 784 21 784 87 c 0,26,27
 784 131 784 131 781 156 c 1,28,29
 751 89 751 89 673.5 44.5 c 128,-1,30
 596 0 596 0 496 0 c 0,31,32
 303 0 303 0 187.5 143.5 c 128,-1,33
 72 287 72 287 72 519 c 0,34,35
 72 761 72 761 196.5 901 c 128,-1,36
 321 1041 321 1041 505 1041 c 0,37,38
 610 1041 610 1041 681 1007 c 128,-1,39
 752 973 752 973 792 893 c 1,40,-1
 805 1017 l 1,41,-1
 1032 1017 l 1,42,-1
 1032 185 l 2,43,44
 1032 78 1032 78 1012 -15 c 128,-1,45
 992 -108 992 -108 948.5 -186.5 c 128,-1,46
 905 -265 905 -265 841.5 -320.5 c 128,-1,47
 778 -376 778 -376 687 -407.5 c 128,-1,48
 596 -439 596 -439 484 -439 c 0,12,13
EndSplineSet
EndChar

StartChar: h
Encoding: 104 104 74
Width: 1143
GlyphClass: 2
Flags: W
LayerCount: 2
UndoRedoHistory
Layer: 1
Undoes
UndoOperation
Index: 0
Type: 1
WasModified: 0
WasOrder2: 1
Width: 1143
VWidth: 2048
LBearingChange: 0
UnicodeEnc: 0
InstructionsLength: 0
SplineSet
128 1376 m 1,0,-1
 384 1393 l 1,1,-1
 384 1102 l 2,2,3
 384 1100 384 1100 377 918 c 1,4,5
 494 1041 494 1041 673 1041 c 0,6,7
 839 1041 839 1041 932.5 942 c 128,-1,8
 1026 843 1026 843 1026 641 c 2,9,-1
 1026 0 l 1,10,-1
 770 0 l 1,11,-1
 770 618 l 2,12,13
 770 738 770 738 736 791 c 128,-1,14
 702 844 702 844 617 844 c 0,15,16
 562 844 562 844 520.5 827 c 128,-1,17
 479 810 479 810 452.5 780 c 128,-1,18
 426 750 426 750 410 704.5 c 128,-1,19
 394 659 394 659 387.5 608 c 128,-1,20
 381 557 381 557 381 491 c 2,21,-1
 381 0 l 1,22,-1
 128 0 l 1,23,-1
 128 1376 l 1,0,-1
EndSplineSet
EndUndoOperation
UndoOperation
Index: 1
Type: 1
WasModified: 0
WasOrder2: 1
Width: 1143
VWidth: 2048
LBearingChange: 0
UnicodeEnc: 0
InstructionsLength: 0
SplineSet
128 1376 m 1,0,-1
 128 0 l 1,1,-1
 381 0 l 1,2,-1
 381 491 l 2,3,4
 381 557 381 557 387.5 608 c 128,-1,5
 394 659 394 659 410 704.5 c 128,-1,6
 426 750 426 750 452.5 780 c 128,-1,7
 479 810 479 810 520.5 827 c 128,-1,8
 562 844 562 844 617 844 c 0,9,10
 702 844 702 844 736 791 c 128,-1,11
 770 738 770 738 770 618 c 2,12,-1
 770 0 l 1,13,-1
 1026 0 l 1,14,-1
 1026 641 l 2,15,16
 1026 843 1026 843 932.5 942 c 128,-1,17
 839 1041 839 1041 673 1041 c 0,18,19
 494 1041 494 1041 377 918 c 1,20,21
 384 1100 384 1100 384 1102 c 2,22,-1
 384 1393 l 1,23,-1
 128 1376 l 1,0,-1
EndSplineSet
EndUndoOperation
UndoOperation
Index: 2
Type: 1
WasModified: 0
WasOrder2: 1
Width: 1143
VWidth: 2048
LBearingChange: 0
UnicodeEnc: 0
InstructionsLength: 0
SplineSet
128 1376 m 1,0,-1
 128 0 l 1,1,-1
 381 0 l 1,2,-1
 381 491 l 2,3,4
 381 557 381 557 387.5 608 c 128,-1,5
 394 659 394 659 410 704.5 c 128,-1,6
 426 750 426 750 452.5 780 c 128,-1,7
 479 810 479 810 520.5 827 c 128,-1,8
 562 844 562 844 617 844 c 0,9,10
 702 844 702 844 736 791 c 128,-1,11
 770 738 770 738 770 618 c 2,12,-1
 770 0 l 1,13,-1
 1026 0 l 1,14,-1
 1026 641 l 2,15,16
 1026 843 1026 843 932.5 942 c 128,-1,17
 839 1041 839 1041 673 1041 c 0,18,19
 494 1041 494 1041 377 918 c 1,20,21
 384 1100 384 1100 384 1102 c 2,22,-1
 384 1393 l 1,23,-1
 128 1376 l 1,0,-1
EndSplineSet
EndUndoOperation
EndUndoes
Redoes
EndRedoes
EndUndoRedoHistory
Fore
SplineSet
128 1376 m 1,0,-1
 384 1393 l 1,1,-1
 384 1102 l 2,2,3
 384 1100 384 1100 377 918 c 1,4,5
 494 1041 494 1041 673 1041 c 0,6,7
 839 1041 839 1041 932.5 942 c 128,-1,8
 1026 843 1026 843 1026 641 c 2,9,-1
 1026 0 l 1,10,-1
 770 0 l 1,11,-1
 770 618 l 2,12,13
 770 738 770 738 736 791 c 128,-1,14
 702 844 702 844 617 844 c 0,15,16
 562 844 562 844 520.5 827 c 128,-1,17
 479 810 479 810 452.5 780 c 128,-1,18
 426 750 426 750 410 704.5 c 128,-1,19
 394 659 394 659 387.5 608 c 128,-1,20
 381 557 381 557 381 491 c 2,21,-1
 381 0 l 1,22,-1
 128 0 l 1,23,-1
 128 1376 l 1,0,-1
EndSplineSet
EndChar

